<?xml version="1.0" encoding="utf-8"?>
<!-- Generator: Adobe Illustrator 16.0.0, SVG Export Plug-In . SVG Version: 6.00 Build 0)  -->
<!DOCTYPE svg PUBLIC "-//W3C//DTD SVG 1.1//EN" "http://www.w3.org/Graphics/SVG/1.1/DTD/svg11.dtd">
<svg version="1.1" id="Layer_1" xmlns="http://www.w3.org/2000/svg" xmlns:xlink="http://www.w3.org/1999/xlink" x="0px" y="0px"
	 width="334.09px" height="598.37px" viewBox="0 0 334.09 598.37" enable-background="new 0 0 334.09 598.37" xml:space="preserve">
<g>
	<path d="M112.602,192.859c-0.976-2.083-3.83-4.332-6.094-2.85c-1.162,0.758-2.038,1.865-2.718,3.133
		C98.328,165.642,78.746,146,56.289,146c-23.603,0-43.71,21.498-48.109,50.662c-0.671-2.869-2.083-5.343-4.398-7.355
		c-0.356-0.313-0.724-0.607-1.123-0.895c-0.614-0.441-1.412,0.032-1.614,0.69c-2.626,8.236-0.135,15.072,5.664,19.845
		c-1.27,4.185-1.816,8.677-1.436,13.041c0.006,0.064,0.013,0.122,0.031,0.179c0.368,14.126,5.671,28.336,13.802,39.479
		c3.86,5.297,8.745,8.741,14.078,12.261c5.327,3.521,11.82,7.45,13.925,14.05c0.466,1.476,2.043,2.23,3.387,1.432
		c0.491-0.294,0.988-0.582,1.492-0.869c7.468-4.288,15.342-7.917,22.271-13.143c6.959-5.252,11.592-12.172,16.127-19.628
		c4.241-6.977,8.211-14.133,11.268-21.769c2.044-5.104,4.057-11.488,2.694-17.084c0.681-1.061,1.417-2.077,2.172-3.086
		c0.405-0.025,0.804-0.281,1.025-0.843c0.147-0.377,0.301-0.754,0.46-1.131c0.018-0.025,0.037-0.051,0.055-0.076
		c0.129-0.179,0.196-0.364,0.196-0.53c1.215-2.875,2.571-5.674,3.602-8.632C112.853,199.747,113.964,195.786,112.602,192.859z
		 M54.257,223.483c6.947,0.85,13.299-1.885,19.645-4.434c2.663-1.074,5.431-1.872,8.193-2.601c0.184-0.051,0.375-0.096,0.558-0.147
		c0.049,0.077,0.092,0.16,0.135,0.243c-0.19,1.118-0.564,2.249-0.97,3.348c-7.573,8.702-17.926,11.36-28.377,10.089
		c-8.236-1.003-16.533-4.434-23.572-9.271c-0.215-0.447-0.405-0.914-0.577-1.393c0-0.518,0.012-1.042,0.019-1.572
		c7.192,2.817,14.729,6.479,22.142,2.594c0.233-0.128,0.43-0.268,0.577-0.434C51.582,221.318,52.367,223.247,54.257,223.483z
		 M63.267,237.534c0-0.096,0.03-0.236,0.08-0.39c0.251,0.224,0.65,0.25,0.816-0.14c0.742-1.706,0.841-3.431,0.816-5.277
		c0-0.116-0.031-0.211-0.074-0.282c2.958-0.523,5.818-1.444,8.524-2.805c-3.044,3.406-6.376,6.824-10.236,9.124
		C63.236,237.706,63.267,237.63,63.267,237.534z M63.966,231.726c-0.012,0.971-0.042,1.917-0.215,2.843
		c-0.178,0.089-0.331,0.306-0.417,0.479c-0.208,0.396-0.38,0.824-0.534,1.246c-0.147,0.39-0.301,0.818-0.307,1.24
		c-0.006,0.281,0.221,0.409,0.429,0.383c-1.816,1.048-3.743,1.847-5.805,2.275c-0.982,0.204-1.952,0.281-2.903,0.243
		c0.172-0.039,0.319-0.179,0.319-0.416c0-0.671,0-1.342,0.006-2.019c0.117-0.102,0.196-0.255,0.19-0.466
		c-0.024-1.962-0.16-3.885-0.62-5.776c3.332,0.357,6.646,0.326,9.868-0.16C63.972,231.636,63.966,231.681,63.966,231.726z
		 M52.95,231.617c0.479,1.942,0.571,3.904,0.546,5.917c-0.006,0.211,0.074,0.364,0.19,0.466c0,0.677,0.006,1.348,0.006,2.019
		c0,0.211,0.117,0.345,0.264,0.402c-1.123-0.063-2.222-0.287-3.295-0.632c-1.964-0.632-3.842-1.68-5.603-2.952v-0.006
		c0.006-0.039,0.012-0.083,0.012-0.128c-0.006-2.281-0.019-4.562-0.031-6.843C47.648,230.671,50.299,231.266,52.95,231.617z
		 M44.027,236.058c-1.037-0.817-2.025-1.699-2.97-2.613c0.031-0.141-0.012-0.294-0.141-0.428c-0.976-0.99-2.013-1.949-3.056-2.901
		c-0.405-0.459-0.804-0.907-1.185-1.348c-0.153-0.173-0.331-0.23-0.497-0.205c-1.62-1.501-3.185-3.067-4.48-4.824
		c3.867,2.408,8.052,4.396,12.36,5.808C44.045,231.72,44.033,233.885,44.027,236.058z M35.632,229.407
		c0.024,0.102,0.067,0.198,0.147,0.294c3.817,4.491,8.451,9.257,13.968,11.251c0.031,0.319,0.251,0.607,0.645,0.607
		c0.227,0,0.393-0.095,0.497-0.236c1.835,0.524,3.756,0.735,5.781,0.524c8.211-0.85,14.931-8.511,20.024-14.53
		c0.19-0.223,0.239-0.485,0.178-0.716c1.228-0.836,2.412-1.782,3.547-2.85c-0.884,2.62-1.805,5.233-2.787,7.821
		c-2.688,7.125-5.087,14.581-9.187,20.989c-0.712,1.112-1.11,1.668-2.197,2.78c-0.172,0.166-0.344,0.332-0.521,0.492
		c-0.006,0.007-0.012,0.013-0.019,0.013c-0.043,0.032-0.11,0.07-0.196,0.134c-0.092,0.064-0.166,0.115-0.209,0.154
		c-0.037-0.045-0.08-0.077-0.116-0.116c0-0.07-0.737-1.073-0.866-1.284c-0.472-0.792-0.865-1.643-1.196-2.505
		c-0.117-0.307-0.258-0.582-0.417-0.831c0.552-0.665,0.448-1.865-0.571-2.134c-3.787-1.003-7.825-0.952-10.243-4.722
		c-0.43-0.677-1.27-0.44-1.516,0.116c-0.123-0.013-0.252,0.032-0.387,0.134c-2.492,1.987-5.315,2.479-8.174,3.59
		c-0.663,0.256-0.933,0.837-0.896,1.387c-0.246,0.281-0.448,0.62-0.608,1.009c-0.423,1.048-1.019,2.69-1.89,3.565
		c-0.055-0.058-0.251-0.186-0.595-0.581c-1.829-2.102-2.829-5.239-3.633-7.891c-1.191-3.929-2.117-8.044-2.927-12.165
		c-0.534-2.671-1.019-5.348-1.504-7.974c-0.221-1.189-0.344-2.358-0.405-3.527c0.172,0.122,0.337,0.236,0.509,0.351
		C31.348,225.183,33.428,227.33,35.632,229.407z M56.289,149.833c20.326,0,38.134,17.85,43.517,42.993
		c-0.255,0.27-0.405,0.625-0.35,1.049c0.633,4.93,1.497,10.031,1.512,15.081c-0.222,1.34-0.507,2.667-0.855,3.979
		c-0.583,0.307-1.068,0.837-1.301,1.527c-2.375,7.06-4.388,14.236-7.235,21.117c-0.117,0.281-0.233,0.563-0.356,0.844
		c-1.952,2.735-4.075,5.335-6.223,7.917c0.19-2.837,0.596-5.693,0.503-8.466c-0.006-0.135-0.019-0.256-0.043-0.377
		c2.32-6.542,4.345-13.909,4.511-20.81c0.135-5.687-4.946-6.453-9.144-5.399c-0.859,0.217-1.706,0.473-2.541,0.753
		c-6.45,2.16-12.256,5.981-18.792,7.814c-1.725,0.479-3.461,0.575-5.235,0.537c-0.798-0.013-1.387,0.262-1.773,0.703
		c0.325-1.373-1.025-3.047-2.651-2.753c-6.13,1.099-10.476-3.131-15.895-5.188c-0.724-0.275-1.455-0.639-2.191-1.01
		c-2.056-1.029-4.161-2.089-6.438-1.438c-3.67,1.048-3.909,5.495-4.02,8.728c-0.153,4.632,0.896,9.245,1.854,13.737
		c0.251,1.163,0.491,2.345,0.73,3.54c-3.846,0.852-8.278-3.41-11.173-8.267c-0.396-1.998-0.679-4.005-0.879-6.022l0.192-0.031
		c-0.189-1.189-0.354-2.446-0.488-3.737c-0.217-3.718-0.255-7.461-0.343-11.218c0.056-1.374,0.142-2.76,0.275-4.143
		C14.262,171.955,33.536,149.833,56.289,149.833z M2.774,191.326c2.78,2.396,4.179,5.847,4.363,9.699
		c0.017,0.348,0.206,0.568,0.442,0.678c-0.132,1.516-0.229,3.037-0.271,4.533l0.381,0.011c0,0.1-0.002,0.2-0.002,0.299
		c-0.157,0.149-0.289,0.341-0.378,0.587c0,0.006,0,0.006-0.006,0.013C2.523,203.012,1.209,198.386,2.774,191.326z M110.92,197.83
		c-0.822,5.067-3.615,9.533-5.523,14.191c-0.141,0.345-0.153,0.658-0.086,0.92c-0.516,0.741-1.019,1.489-1.497,2.256
		c-0.031-0.083-0.062-0.166-0.099-0.249c1.185-3.393,1.878-6.958,1.891-10.607c0.004-1.118-0.645-1.778-1.43-2.001
		c0-0.04-0.001-0.081-0.002-0.121l0.872-0.06c-0.032-0.466-0.077-0.932-0.122-1.391l-0.799,0.078c-0.05-0.92-0.135-1.84-0.265-2.744
		c0.557-2.158,1.405-4.278,2.876-5.875c1.319-1.425,3.154-0.083,3.916,1.214C111.38,194.68,111.135,196.482,110.92,197.83z"/>
	<path d="M61.941,179.691c6.615-3.271,16.778-7.315,21.007,1.54c0.988,2.07,3.627,0.511,3.326-1.457
		c-2.222-14.242-18.006-6.243-25.536-2.23C59.357,178.279,60.566,180.375,61.941,179.691z"/>
	<path d="M75.853,186.917c-2.939-1.783-6.713-1.802-10.009-1.731c-1.117,0.025-1.111,1.77,0,1.802c2.86,0.089,5.72,0.313,8.34,1.591
		c3.412,1.667,4.989,5.028,6.057,8.6c0.417,1.406,2.492,0.818,2.117-0.607C81.303,192.566,79.364,189.052,75.853,186.917z"/>
	<path d="M76.522,198.527c-5.204,1.438-10.169-0.856-13.912-4.6c-0.823-0.824-2.056,0.459-1.252,1.297
		c4.155,4.338,9.819,6.983,15.704,5.354C78.339,200.227,77.792,198.175,76.522,198.527z"/>
	<path d="M73.472,192.502c0-2.064-1.608-3.738-3.584-3.738c-1.982,0-3.59,1.674-3.59,3.738c0,2.063,1.608,3.731,3.59,3.731
		C71.864,196.233,73.472,194.565,73.472,192.502z M69.201,191.371c0-1.086,0.847-1.968,1.891-1.968c1.037,0,1.884,0.882,1.884,1.968
		c0,1.086-0.847,1.961-1.884,1.961C70.047,193.332,69.201,192.457,69.201,191.371z"/>
	<path d="M47.636,208.839c-0.559-0.67-1.461,0.294-0.927,0.965c2.59,3.233,5.867,5.935,10.126,5.584
		c4.026-0.332,7.487-3.495,10.224-6.306c0.736-0.76-0.387-1.917-1.135-1.182c-2.498,2.46-5.173,4.741-8.573,5.629
		C53.361,214.57,50.072,211.759,47.636,208.839z"/>
	<path d="M26.727,183.601c2.848-3.457,5.971-7.379,10.764-6.172c4.155,1.048,8.211,2.153,12.427,2.971
		c2.252,0.441,3.118-2.767,0.945-3.565c-4.627-1.706-9.156-5.265-14.312-4.485c-4.842,0.735-8.623,5.872-11.427,9.584
		C24.248,183.103,25.757,184.771,26.727,183.601z"/>
	<path d="M45.077,194.022c-1.725,3.929-5.652,4.651-9.377,4.153c-1.215-0.166-1.473,1.955-0.289,2.211
		c4.707,1.022,9.322-0.99,11.139-5.718C46.887,193.786,45.451,193.16,45.077,194.022z"/>
	<path d="M44.236,187.454c1.712,0.402,2.442-2.358,0.724-2.735c-7.739-1.718-13.219,3.042-16.079,10.236
		c-0.411,1.035,1.228,1.719,1.719,0.754C33.465,190.074,37.773,185.927,44.236,187.454z"/>
	<path d="M41.431,193.332c-1.043,0-1.884-0.875-1.884-1.961c0-1.086,0.841-1.968,1.884-1.968c0.16,0,0.319,0.019,0.466,0.064
		c-0.589-0.441-1.307-0.703-2.08-0.703c-1.982,0-3.59,1.674-3.59,3.738c0,2.063,1.608,3.731,3.59,3.731
		c1.976,0,3.584-1.667,3.584-3.731c0-0.301-0.037-0.601-0.104-0.882C43.18,192.591,42.395,193.332,41.431,193.332z"/>
	<path d="M41.897,189.467c0.687,0.505,1.197,1.265,1.399,2.153c0.012-0.077,0.018-0.167,0.018-0.25
		C43.315,190.451,42.714,189.678,41.897,189.467z"/>
	<path d="M20.508,217.07c-2.616-3.556-1.61-7.594,2.163-9.786c0.614-0.356,0.074-1.261-0.552-0.944
		c-4.559,2.302-5.937,7.306-2.948,11.512C19.747,218.663,21.099,217.872,20.508,217.07z"/>
	<path d="M87.704,207.306c3.456,2.334,4.905,7.27,3.007,11.03c-0.464,0.918,0.921,1.728,1.379,0.806
		c2.204-4.438,0.586-10.388-3.809-12.823C87.63,205.959,87.099,206.896,87.704,207.306z"/>
</g>
<path d="M-181.822,65.972c-0.623-1.287-1.247-2.574-1.87-3.861c-0.399-0.825-1.658-0.1-1.234,0.722
	c0.654,1.269,1.309,2.538,1.963,3.806C-182.57,67.401-181.454,66.732-181.822,65.972z"/>
<path d="M-79.863,64.263c1.824-1.192,3.691-2.374,5.274-3.884c0.611-0.583-0.325-1.521-0.926-0.926
	c-1.48,1.465-3.233,2.615-4.948,3.783C-81.093,63.664-80.51,64.686-79.863,64.263z"/>
<path d="M-90.63,39.865c1.082-1.048,2.164-2.096,3.245-3.144c0.585-0.567-0.326-1.478-0.892-0.893
	c-1.048,1.082-2.096,2.164-3.144,3.246C-91.922,39.593-91.148,40.367-90.63,39.865z"/>
<path d="M-172.626,51.238c0.337,0.609,1.187,0.075,0.914-0.534c-1.171-2.609-2.456-5.169-3.699-7.746
	c-0.382-0.791-1.59-0.096-1.183,0.691C-175.283,46.184-174.008,48.741-172.626,51.238z"/>
<path d="M-153.546,36.426c0.243,0.677,1.307,0.404,1.089-0.301c-0.595-1.929-1.189-3.858-1.795-5.784
	c-0.268-0.851-1.628-0.471-1.333,0.368C-154.912,32.617-154.229,34.521-153.546,36.426z"/>
<path d="M-132.404,27.655c1.211-2.563,1.394-5.196,1.413-7.992c0.006-0.891-1.386-0.891-1.381,0
	c0.013,2.537-0.068,4.997-1.143,7.343C-133.856,27.752-132.76,28.407-132.404,27.655z"/>
<path d="M-113.472,34.683c1.155-2.305,2.02-4.674,2.672-7.167c0.228-0.871-1.129-1.242-1.344-0.371
	c-0.59,2.392-1.366,4.668-2.439,6.889C-114.94,34.775-113.845,35.427-113.472,34.683z"/>
<g>
	<path d="M227.064,193.195c-0.976-2.083-3.829-4.332-6.094-2.85c-1.162,0.758-2.039,1.865-2.718,3.133
		c-5.462-27.501-25.044-47.143-47.5-47.143c-23.603,0-43.71,21.498-48.109,50.662c-0.672-2.869-2.083-5.342-4.398-7.354
		c-0.356-0.313-0.724-0.607-1.123-0.895c-0.614-0.441-1.412,0.032-1.614,0.69c-2.626,8.236-0.135,15.072,5.665,19.845
		c-1.271,4.185-1.816,8.677-1.436,13.04c0.006,0.064,0.012,0.122,0.031,0.179c0.368,14.127,5.67,28.337,13.802,39.48
		c3.86,5.296,8.745,8.74,14.078,12.261c5.327,3.521,11.82,7.45,13.925,14.049c0.467,1.477,2.043,2.23,3.388,1.432
		c0.491-0.294,0.988-0.582,1.491-0.869c7.469-4.287,15.343-7.917,22.271-13.143c6.959-5.252,11.593-12.171,16.128-19.628
		c4.24-6.977,8.211-14.133,11.267-21.769c2.043-5.105,4.057-11.488,2.694-17.085c0.681-1.061,1.417-2.077,2.172-3.086
		c0.405-0.025,0.805-0.281,1.025-0.843c0.147-0.377,0.301-0.754,0.46-1.131c0.019-0.025,0.037-0.051,0.056-0.076
		c0.128-0.179,0.196-0.365,0.196-0.53c1.215-2.875,2.571-5.674,3.602-8.632C227.316,200.083,228.427,196.121,227.064,193.195z
		 M168.721,223.819c6.947,0.85,13.298-1.885,19.644-4.434c2.664-1.073,5.432-1.872,8.193-2.601c0.184-0.051,0.375-0.096,0.559-0.147
		c0.049,0.077,0.092,0.16,0.135,0.243c-0.19,1.118-0.564,2.249-0.97,3.348c-7.573,8.703-17.925,11.36-28.377,10.089
		c-8.236-1.003-16.533-4.435-23.572-9.271c-0.215-0.447-0.405-0.913-0.577-1.393c0-0.517,0.012-1.042,0.019-1.572
		c7.192,2.818,14.729,6.479,22.142,2.595c0.233-0.128,0.43-0.269,0.577-0.435C166.045,221.653,166.83,223.583,168.721,223.819z
		 M177.729,237.869c0-0.095,0.031-0.236,0.08-0.389c0.252,0.223,0.651,0.249,0.816-0.141c0.742-1.706,0.841-3.431,0.816-5.277
		c0-0.115-0.031-0.211-0.074-0.281c2.958-0.524,5.818-1.445,8.524-2.806c-3.043,3.406-6.376,6.824-10.236,9.125
		C177.699,238.042,177.729,237.965,177.729,237.869z M178.429,232.061c-0.012,0.971-0.043,1.917-0.215,2.843
		c-0.178,0.089-0.331,0.307-0.417,0.479c-0.209,0.396-0.381,0.824-0.534,1.246c-0.147,0.39-0.301,0.818-0.307,1.239
		c-0.006,0.281,0.221,0.409,0.43,0.384c-1.817,1.048-3.744,1.846-5.806,2.274c-0.981,0.205-1.951,0.281-2.902,0.243
		c0.172-0.038,0.319-0.179,0.319-0.415c0-0.671,0-1.342,0.006-2.019c0.116-0.103,0.196-0.256,0.19-0.467
		c-0.024-1.961-0.159-3.885-0.62-5.776c3.333,0.358,6.646,0.326,9.868-0.16C178.435,231.972,178.429,232.017,178.429,232.061z
		 M167.414,231.952c0.479,1.942,0.57,3.904,0.546,5.917c-0.006,0.211,0.074,0.364,0.19,0.467c0,0.677,0.006,1.348,0.006,2.019
		c0,0.211,0.117,0.345,0.264,0.402c-1.123-0.064-2.222-0.288-3.296-0.632c-1.963-0.633-3.842-1.681-5.603-2.952v-0.006
		c0.006-0.038,0.012-0.083,0.012-0.128c-0.006-2.28-0.019-4.562-0.031-6.843C162.111,231.007,164.762,231.601,167.414,231.952z
		 M158.49,236.393c-1.037-0.818-2.025-1.7-2.97-2.613c0.031-0.14-0.012-0.294-0.141-0.428c-0.976-0.99-2.013-1.949-3.056-2.901
		c-0.405-0.46-0.804-0.907-1.185-1.349c-0.154-0.172-0.332-0.23-0.497-0.205c-1.62-1.501-3.185-3.066-4.48-4.824
		c3.866,2.409,8.052,4.396,12.36,5.808C158.509,232.055,158.497,234.22,158.49,236.393z M150.095,229.742
		c0.025,0.103,0.067,0.198,0.147,0.294c3.817,4.492,8.451,9.258,13.967,11.252c0.031,0.319,0.252,0.607,0.645,0.607
		c0.227,0,0.393-0.096,0.497-0.236c1.835,0.523,3.756,0.734,5.781,0.523c8.211-0.85,14.931-8.51,20.025-14.529
		c0.189-0.224,0.239-0.486,0.178-0.716c1.227-0.837,2.412-1.783,3.547-2.85c-0.884,2.619-1.804,5.232-2.787,7.82
		c-2.688,7.125-5.087,14.581-9.187,20.989c-0.712,1.112-1.111,1.668-2.197,2.779c-0.172,0.167-0.343,0.333-0.521,0.492
		c-0.006,0.006-0.012,0.013-0.019,0.013c-0.043,0.032-0.11,0.07-0.196,0.134c-0.092,0.064-0.166,0.115-0.208,0.153
		c-0.037-0.045-0.08-0.077-0.117-0.115c0-0.071-0.736-1.074-0.865-1.285c-0.473-0.792-0.866-1.642-1.197-2.505
		c-0.117-0.306-0.258-0.581-0.417-0.83c0.553-0.665,0.448-1.866-0.57-2.134c-3.787-1.003-7.825-0.952-10.243-4.721
		c-0.43-0.678-1.271-0.441-1.516,0.115c-0.123-0.013-0.252,0.032-0.387,0.134c-2.491,1.987-5.314,2.479-8.174,3.591
		c-0.663,0.256-0.933,0.836-0.896,1.386c-0.245,0.281-0.448,0.62-0.607,1.01c-0.423,1.047-1.019,2.69-1.89,3.565
		c-0.055-0.057-0.251-0.185-0.595-0.582c-1.829-2.102-2.829-5.239-3.633-7.89c-1.19-3.93-2.117-8.045-2.927-12.166
		c-0.534-2.671-1.019-5.348-1.504-7.974c-0.221-1.188-0.343-2.357-0.405-3.527c0.172,0.121,0.337,0.237,0.51,0.352
		C145.812,225.518,147.892,227.665,150.095,229.742z M170.752,150.169c20.326,0,38.133,17.85,43.517,42.994
		c-0.255,0.27-0.404,0.624-0.35,1.048c0.633,4.929,1.496,10.029,1.512,15.078c-0.222,1.341-0.507,2.668-0.855,3.981
		c-0.583,0.307-1.067,0.837-1.301,1.527c-2.375,7.06-4.388,14.235-7.235,21.117c-0.117,0.281-0.233,0.562-0.356,0.843
		c-1.951,2.734-4.075,5.335-6.223,7.917c0.19-2.837,0.595-5.693,0.503-8.466c-0.006-0.134-0.019-0.255-0.043-0.376
		c2.32-6.543,4.345-13.91,4.511-20.811c0.135-5.687-4.947-6.453-9.144-5.398c-0.859,0.217-1.706,0.473-2.541,0.753
		c-6.45,2.16-12.256,5.98-18.791,7.814c-1.725,0.479-3.461,0.575-5.235,0.537c-0.798-0.013-1.387,0.262-1.774,0.703
		c0.325-1.374-1.024-3.048-2.651-2.754c-6.131,1.1-10.476-3.13-15.895-5.188c-0.724-0.274-1.455-0.639-2.191-1.009
		c-2.056-1.029-4.161-2.089-6.438-1.438c-3.67,1.048-3.909,5.495-4.02,8.728c-0.153,4.632,0.896,9.246,1.853,13.737
		c0.252,1.163,0.491,2.345,0.73,3.54c-3.845,0.852-8.277-3.409-11.172-8.265c-0.396-2-0.68-4.011-0.88-6.031l0.192-0.031
		c-0.188-1.177-0.352-2.428-0.486-3.717c-0.218-3.726-0.256-7.478-0.344-11.244c0.056-1.37,0.142-2.753,0.275-4.131
		C128.725,172.291,147.999,150.169,170.752,150.169z M117.238,191.661c2.78,2.396,4.179,5.847,4.363,9.699
		c0.017,0.348,0.206,0.568,0.441,0.678c-0.131,1.515-0.229,3.036-0.271,4.533l0.382,0.011c0,0.1-0.002,0.2-0.002,0.299
		c-0.157,0.148-0.29,0.34-0.378,0.587c0,0.006,0,0.006-0.006,0.013C116.986,203.347,115.673,198.722,117.238,191.661z
		 M225.383,198.166c-0.822,5.067-3.615,9.533-5.523,14.191c-0.141,0.345-0.153,0.658-0.085,0.92
		c-0.516,0.741-1.019,1.489-1.498,2.255c-0.03-0.083-0.062-0.166-0.099-0.249c1.185-3.393,1.878-6.958,1.891-10.606
		c0.004-1.118-0.645-1.778-1.429-2.001c-0.001-0.04-0.002-0.081-0.002-0.121l0.871-0.06c-0.032-0.466-0.077-0.932-0.122-1.391
		l-0.798,0.078c-0.051-0.921-0.136-1.841-0.266-2.745c0.558-2.158,1.405-4.278,2.876-5.875c1.32-1.425,3.155-0.083,3.916,1.214
		C225.843,195.016,225.598,196.817,225.383,198.166z"/>
	<path d="M176.404,180.026c6.616-3.271,16.778-7.315,21.007,1.54c0.988,2.07,3.627,0.511,3.327-1.457
		c-2.222-14.242-18.006-6.242-25.536-2.23C173.82,178.614,175.029,180.71,176.404,180.026z"/>
	<path d="M190.985,198.862c-5.204,1.438-10.169-0.856-13.913-4.6c-0.822-0.824-2.056,0.46-1.251,1.297
		c4.154,4.338,9.818,6.984,15.704,5.354C192.802,200.562,192.256,198.511,190.985,198.862z"/>
	<path d="M162.099,209.174c-0.558-0.67-1.46,0.294-0.927,0.965c2.59,3.232,5.867,5.936,10.126,5.584
		c4.025-0.333,7.487-3.495,10.224-6.307c0.736-0.76-0.387-1.917-1.136-1.182c-2.498,2.46-5.173,4.741-8.573,5.629
		C167.825,214.906,164.535,212.095,162.099,209.174z"/>
	<path d="M141.19,183.937c2.848-3.457,5.971-7.379,10.764-6.172c4.155,1.048,8.211,2.153,12.428,2.971
		c2.252,0.441,3.117-2.767,0.945-3.565c-4.627-1.706-9.157-5.265-14.312-4.485c-4.842,0.735-8.623,5.872-11.427,9.584
		C138.711,183.438,140.22,185.106,141.19,183.937z"/>
	<path d="M159.54,194.358c-1.725,3.929-5.652,4.651-9.377,4.153c-1.215-0.166-1.473,1.955-0.288,2.21
		c4.707,1.022,9.322-0.99,11.139-5.718C161.35,194.121,159.914,193.495,159.54,194.358z"/>
	<path d="M134.972,217.405c-2.616-3.556-1.61-7.594,2.163-9.785c0.614-0.356,0.074-1.261-0.552-0.944
		c-4.558,2.302-5.937,7.305-2.948,11.511C134.211,218.998,135.562,218.207,134.972,217.405z"/>
	<path d="M202.168,207.641c3.456,2.334,4.905,7.27,3.007,11.03c-0.464,0.918,0.921,1.728,1.379,0.806
		c2.204-4.438,0.585-10.388-3.81-12.822C202.094,206.294,201.562,207.232,202.168,207.641z"/>
</g>
<path d="M-173.487,94.844c-0.623-1.287-1.247-2.574-1.87-3.861c-0.399-0.825-1.658-0.1-1.234,0.721
	c0.654,1.269,1.309,2.538,1.963,3.807C-174.235,96.273-173.119,95.604-173.487,94.844z"/>
<path d="M-71.528,93.135c1.825-1.192,3.69-2.374,5.274-3.884c0.611-0.583-0.326-1.521-0.926-0.926
	c-1.48,1.466-3.233,2.616-4.949,3.783C-72.757,92.535-72.175,93.558-71.528,93.135z"/>
<path d="M-82.295,68.737c1.082-1.048,2.164-2.096,3.245-3.144c0.585-0.567-0.325-1.478-0.892-0.893
	c-1.047,1.082-2.096,2.164-3.144,3.246C-83.588,68.465-82.813,69.239-82.295,68.737z"/>
<path d="M-164.292,80.11c0.337,0.609,1.187,0.075,0.914-0.534c-1.171-2.609-2.456-5.17-3.699-7.746
	c-0.382-0.791-1.59-0.096-1.183,0.691C-166.948,75.056-165.674,77.613-164.292,80.11z"/>
<path d="M-145.212,65.298c0.243,0.677,1.307,0.404,1.09-0.301c-0.595-1.929-1.19-3.858-1.796-5.784
	c-0.268-0.851-1.627-0.471-1.332,0.367C-146.578,61.489-145.895,63.394-145.212,65.298z"/>
<path d="M-124.069,56.527c1.211-2.563,1.394-5.196,1.414-7.992c0.006-0.891-1.386-0.891-1.381,0
	c0.013,2.537-0.068,4.997-1.142,7.343C-125.521,56.624-124.425,57.279-124.069,56.527z"/>
<path d="M-105.137,63.555c1.154-2.305,2.019-4.674,2.672-7.167c0.228-0.871-1.128-1.242-1.344-0.371
	c-0.59,2.392-1.366,4.668-2.439,6.889C-106.605,63.647-105.51,64.299-105.137,63.555z"/>
<g>
	<path d="M222.03,339.859c-0.943-2.083-3.701-4.332-5.89-2.85c-1.097,0.74-1.931,1.813-2.583,3.044
		C208.249,312.6,189.317,293,167.604,293c-22.803,0-42.232,21.418-46.537,50.499c-0.664-2.799-2.017-5.219-4.211-7.193
		c-0.344-0.312-0.7-0.606-1.086-0.894c-0.593-0.441-1.364,0.032-1.56,0.69c-2.538,8.236-0.129,15.072,5.475,19.845
		c-1.227,4.185-1.755,8.677-1.388,13.041c0.006,0.063,0.013,0.122,0.03,0.179c0.355,14.133,5.481,28.336,13.339,39.479
		c3.731,5.297,8.452,8.741,13.607,12.261c5.148,3.521,11.423,7.45,13.458,14.05c0.451,1.476,1.976,2.23,3.275,1.432
		c0.474-0.294,0.955-0.582,1.44-0.869c7.219-4.288,14.829-7.917,21.525-13.143c6.726-5.252,11.204-12.172,15.587-19.628
		c4.098-6.977,7.937-14.133,10.889-21.769c1.976-5.104,3.921-11.488,2.604-17.084c0.659-1.061,1.37-2.077,2.099-3.086
		c0.392-0.025,0.777-0.281,0.991-0.843c0.143-0.377,0.291-0.754,0.446-1.131c0.017-0.025,0.035-0.051,0.054-0.077
		c0.125-0.179,0.188-0.364,0.188-0.53c1.176-2.875,2.486-5.674,3.483-8.632C222.274,346.748,223.347,342.786,222.03,339.859z
		 M138.792,392.941c-0.139-0.5-0.273-1.002-0.403-1.506c0.102,0.137,0.208,0.277,0.316,0.417
		C138.751,392.212,138.776,392.576,138.792,392.941z M167.604,296.834c19.618,0,36.81,17.862,42.001,43.017
		c-0.243,0.268-0.383,0.615-0.334,1.025c0.598,5.03,1.467,10.219,1.466,15.357c-0.208,1.246-0.463,2.481-0.776,3.702
		c-0.564,0.307-1.033,0.837-1.258,1.527c-2.296,7.06-4.242,14.236-6.993,21.117c-0.112,0.281-0.226,0.563-0.345,0.844
		c-1.205,1.747-2.481,3.437-3.784,5.104c0.177-0.935,0.324-1.866,0.438-2.787c0.995-7.999,0.127-18.368-9.897-18.892
		c-7.528-0.393-14.411,5.012-22.021,3.532c-1.711-0.333-2.437,2.143-0.727,2.634c5.532,1.588,11.579,0.336,17.165-0.304
		c2.12-0.243,4.98-0.613,7.004,0.301c2.449,1.105,2.553,4.275,2.608,6.598c0.117,4.919-1.149,10.913-3.719,15.935
		c-1.397,1.503-3.352,2.192-6.035,2.394c-1.965,0.148-3.941-0.026-5.873-0.384c-0.851-0.158-1.686-0.427-2.524-0.677
		c-0.135-0.282-0.377-0.512-0.744-0.611c-1.365-0.375-2.765-0.602-4.104-0.936c-0.418-0.347-0.827-0.703-1.229-1.067
		c0.075-0.316,0.02-0.659-0.238-0.875c-0.118-0.099-0.239-0.189-0.36-0.28c0.187-0.538,0.004-1.205-0.674-1.327
		c-0.592-0.107-1.117-0.281-1.663-0.545c-0.686-0.331-1.279,0.011-1.472,0.541c-0.053-0.079-0.109-0.15-0.161-0.233
		c-0.414-0.677-1.228-0.44-1.465,0.116c-0.087,0.205-0.094,0.45,0.021,0.711c-0.218,0.293-0.252,0.702,0.061,0.975
		c-1.182,1.355-2.737,2.53-4.393,3.387c0.139,0.185,0.251,0.393,0.339,0.62c-1.225,0.085-2.451,0.192-3.683,0.274
		c-2.067,0.138-3.934-0.037-5.758-0.487c-1.27-1.766-2.486-3.58-3.811-5.301c-0.682-5.94-5.81-11.742-4.373-17.742
		c0.702-2.93,5.042-1.5,7.081-1.23c3.216,0.424,6.562,0.91,9.749,0.038c1.573-0.431,0.9-2.707-0.665-2.411
		c-6.611,1.252-16.944-7.364-20.939,1.591c-1.36,3.047-0.944,6.522-0.094,9.73c-3.481,0.099-7.307-3.823-9.894-8.276
		c-0.389-2.025-0.664-4.061-0.858-6.105l0.204-0.031c-0.183-1.184-0.342-2.447-0.474-3.753l-0.012,0.001
		c-0.204-3.687-0.238-7.396-0.323-11.118c0.054-1.408,0.138-2.829,0.271-4.245C127.05,318.953,145.649,296.834,167.604,296.834z
		 M115.883,338.326c2.688,2.396,4.04,5.847,4.217,9.7c0.015,0.315,0.169,0.521,0.366,0.641c-0.129,1.527-0.224,3.061-0.265,4.572
		l0.374,0.01c0,0.121-0.003,0.241-0.003,0.362c-0.125,0.139-0.231,0.31-0.305,0.523c0,0.006,0,0.006-0.005,0.012
		C115.64,350.012,114.371,345.386,115.883,338.326z M220.404,344.831c-0.795,5.066-3.493,9.533-5.337,14.191
		c-0.137,0.345-0.148,0.657-0.083,0.919c-0.498,0.741-0.985,1.489-1.446,2.256c-0.03-0.083-0.06-0.166-0.095-0.249
		c1.144-3.393,1.814-6.958,1.827-10.607c0.003-1.089-0.592-1.743-1.324-1.982c-0.001-0.047-0.001-0.093-0.003-0.14l0.848-0.057
		c-0.031-0.465-0.074-0.923-0.118-1.388l-0.775,0.074c-0.05-0.97-0.14-1.938-0.278-2.889c0.144-0.564,0.309-1.124,0.499-1.673
		l0.004,0c0-0.002,0-0.004-0.001-0.007c0.52-1.499,1.224-2.91,2.24-4.052c1.275-1.425,3.049-0.083,3.784,1.214
		C220.85,341.68,220.613,343.482,220.404,344.831z"/>
	<path d="M187.769,344.942c-4.823,2.024-9.86,0.315-13.897-2.973c-0.886-0.725-1.918,0.692-1.047,1.431
		c4.501,3.831,10.251,5.808,15.706,3.516C189.714,346.421,188.947,344.447,187.769,344.942z"/>
	<path d="M165.16,353.839c-3.891,0.332-7.236,3.495-9.881,6.306c-0.712,0.76,0.373,1.917,1.097,1.182
		c2.413-2.459,5-4.741,8.286-5.628c3.854-1.042,7.034,1.77,9.389,4.689c0.539,0.671,1.412-0.294,0.895-0.965
		C172.444,356.19,169.276,353.487,165.16,353.839z"/>
	<path d="M163.926,366.094c-0.201,0.23-0.35,0.511-0.438,0.812C163.719,366.663,163.861,366.388,163.926,366.094z"/>
	<path d="M157.43,343.642c0.528-0.778-0.671-1.717-1.228-0.965c-2.556,3.418-6.415,3.215-9.791,1.874
		c-1.101-0.442-1.85,1.559-0.798,2.081C149.787,348.707,154.598,347.815,157.43,343.642z"/>
	<path d="M146.22,380.683c-0.756,0.469-0.075,1.646,0.697,1.194c4.623-2.705,8.707-2.582,13.725-1.35
		c3.361,0.825,6.734,1.372,10.188,0.822c2.67-0.426,5.19-1.715,7.751-2.53c4.219-1.343,5.97,0.497,6.588,4.658
		c0.173,1.167,2.212,0.893,2.064-0.279c-0.366-2.882-1.267-5.944-4.413-6.711c-2.905-0.708-6.291,1.077-8.922,2.051
		c-4.634,1.717-8.872,1.192-13.619,0.111C155.116,377.472,150.792,377.847,146.22,380.683z"/>
	<path d="M177.118,387.421c-3.994-1.795-7.936-1.154-12.036-0.058c-5.318,1.421-10.52,3.097-14.818-1.47
		c-0.628-0.667-1.605,0.325-0.999,0.999c3.023,3.357,6.69,4.34,11.085,3.655c5.228-0.814,10.487-3.723,15.73-1.35
		C177.279,389.739,178.325,387.963,177.118,387.421z"/>
	<path d="M136.005,332.042c9.413,2.042,17.677-2.267,25.015-7.775c2.065-1.55,0.128-5.069-2.067-3.536
		c-6.623,4.624-13.711,10.14-22.267,8.837C135.092,329.325,134.359,331.685,136.005,332.042z"/>
	<path d="M173.232,324.587c5,5.338,12.541,11.762,20.456,9.867c1.966-0.471,1.552-3.61-0.478-3.528
		c-7.154,0.289-13.169-3.28-18.357-7.96C173.758,321.978,172.218,323.503,173.232,324.587z"/>
	<path d="M156.454,316.687c6.63,3.602,14.51,3.356,21.648,1.518c1.059-0.272,0.609-1.909-0.452-1.636
		c-6.693,1.723-14.169,2.103-20.521-1.038C156.363,315.153,155.691,316.272,156.454,316.687z"/>
	<path d="M166.049,316.029c4.609,2.039,11.176-0.299,15.896-0.982c1.123-0.163,0.65-1.883-0.472-1.708
		c-2.372,0.367-4.728,0.826-7.098,1.209c-2.348,0.38-5.493,1.138-7.829,0.3C165.861,314.601,165.38,315.732,166.049,316.029z"/>
	<ellipse transform="matrix(0.5072 -0.8618 0.8618 0.5072 -232.2651 317.8624)" cx="161.824" cy="362.037" rx="1.62" ry="2.566"/>
	<ellipse transform="matrix(-0.3031 -0.953 0.953 -0.3031 -123.2941 632.3379)" cx="169.57" cy="361.252" rx="1.621" ry="2.566"/>
	<path d="M133.193,356.314c0.247,0.756,1.451,0.427,1.193-0.33c-0.434-1.275-0.867-2.551-1.301-3.827
		c-0.245-0.721-1.387-0.417-1.147,0.316C132.357,353.754,132.775,355.034,133.193,356.314z"/>
	<path d="M134.985,355.594c0.328,0.684,1.353,0.086,1.017-0.594c-0.479-0.97-0.815-2.002-1.293-2.973
		c-0.327-0.663-1.302-0.083-0.987,0.577C134.191,353.581,134.517,354.617,134.985,355.594z"/>
	<path d="M136.319,351.49c-0.512-0.522-1.292,0.266-0.799,0.798c0.838,0.906,1.25,2.11,2.092,3.02
		c0.542,0.586,1.436-0.304,0.875-0.875C137.627,353.557,137.183,352.37,136.319,351.49z"/>
	<path d="M192.978,351.298c0.368,0.839,0.321,1.825,0.307,2.721c-0.011,0.729,1.143,0.729,1.13,0
		c-0.018-1.104-0.061-2.229-0.544-3.242C193.581,350.168,192.715,350.7,192.978,351.298z"/>
	<path d="M196.537,354.172c0.359-1.177,0.418-2.338,0.404-3.561c-0.008-0.69-1.062-0.69-1.071,0
		c-0.014,1.127-0.09,2.178-0.447,3.254C195.189,354.572,196.319,354.884,196.537,354.172z"/>
	<path d="M199.029,354.307c0.512-1.104,0.905-2.362,0.379-3.53c-0.24-0.532-1.167-0.144-0.945,0.398
		c0.346,0.847-0.031,1.788-0.42,2.556C197.708,354.391,198.722,354.969,199.029,354.307z"/>
</g>
<path d="M-144.391,186.753c2.301,1.171,4.961,2.066,7.562,2.041c0.061,0,0.114-0.009,0.169-0.017
	c0.221,0.127,0.441,0.255,0.663,0.383c0.992,0.57,1.854-0.921,0.892-1.526c-0.4-0.251-0.794-0.496-1.185-0.731
	c-0.04-0.027-0.08-0.052-0.125-0.074c-2.411-1.438-4.713-2.455-7.723-2.006C-145.049,184.958-145.157,186.363-144.391,186.753z"/>
<path d="M-140.264,200.306c-1.192,0.249-2.392-0.132-3.588,0.078c-1.443,0.253-1.996,1.842-2.242,3.083
	c-0.122,0.613,0.274,1.275,0.958,1.258c1.899-0.049,3.066-1.28,4.734-1.963c0.354-0.145,0.556-0.421,0.63-0.722
	C-138.653,201.759-139.138,200.071-140.264,200.306z"/>
<path d="M-35.917,185.162c0.104-0.104,0.208-0.21,0.311-0.315c0.074-0.017,0.148-0.041,0.224-0.076
	c2.199-1.016,4.587-1.493,6.056-3.574c0.409-0.579-0.137-1.415-0.801-1.396c-1.359,0.036-2.634,0.272-3.779,1.042
	c-0.874,0.587-1.609,1.382-2.329,2.171c-0.045,0.021-0.095,0.039-0.139,0.062c-0.302,0.152-0.452,0.379-0.491,0.622
	c-0.084,0.089-0.167,0.179-0.251,0.266C-37.877,184.748-36.696,185.932-35.917,185.162z"/>
<path d="M-32.273,196.001c-0.497-0.304-0.958-0.018-1.126,0.395c-0.684,0.094-1.236,0.984-0.598,1.621
	c1.203,1.2,2.519,2.536,4.048,3.309c0.534,0.27,1.166,0.043,1.344-0.546c0.395-1.305,0.664-2.816-0.585-3.723
	C-30.074,196.416-31.336,196.574-32.273,196.001z M-30.146,198.499c-0.02-0.012,0.076,0.069,0.077,0.072
	c0.059,0.157,0.064,0.338,0.044,0.524c-0.371-0.28-0.728-0.59-1.075-0.91c0.192,0.051,0.384,0.102,0.576,0.157
	C-30.363,198.388-30.287,198.417-30.146,198.499z"/>
<g>
	<path d="M332.688,486.455c-0.943-2.083-3.701-4.332-5.889-2.849c-1.098,0.74-1.932,1.813-2.584,3.043
		c-5.307-27.454-24.238-47.054-45.952-47.054c-22.805,0-42.235,21.419-46.538,50.5c-0.664-2.8-2.017-5.22-4.212-7.194
		c-0.344-0.312-0.7-0.606-1.085-0.894c-0.593-0.441-1.364,0.031-1.56,0.69c-2.388,7.747-0.396,14.256,4.515,18.974
		c-0.404,3.153-0.669,6.346-0.782,9.553c-2.164,14.629,2.154,33.256,9.389,42.419c0.082,0.104,0.166,0.206,0.248,0.309
		c0.054,0.094,0.105,0.189,0.161,0.283c0.37,0.631,0.757,1.254,1.152,1.875c0.577,1.509,1.193,2.925,1.694,4.126
		c2.651,6.347,6.071,12.357,10.126,17.912c4.529,6.204,12.696,14.886,20.912,14.493c1.128,0.96,2.277,1.895,3.451,2.795
		c0.652,0.969,1.276,1.945,1.869,2.933c0.314-0.287,0.631-0.577,0.947-0.866c0.712,0.485,1.767,0.263,2.347-0.312
		c10.812-10.725,23.946-19.186,31.934-32.475c5.002-8.32,7.715-17.83,9.408-27.322c1.527-8.562,2.324-17.303,2.631-26.057
		c0.703-0.254,1.293-0.847,1.379-1.779c0.049-0.514,0.094-1.031,0.135-1.551c0.143-0.2,0.281-0.402,0.424-0.602
		c0.393-0.026,0.777-0.282,0.992-0.844c0.141-0.377,0.289-0.754,0.445-1.131c0.076-0.204,0.158-0.409,0.242-0.607
		c1.174-2.875,2.484-5.673,3.482-8.632C332.933,493.344,334.005,489.381,332.688,486.455z M272.246,560.37
		c0.053,0.054,0.106,0.107,0.165,0.156c-0.073,0.09-0.146,0.175-0.219,0.263C272.213,560.649,272.231,560.511,272.246,560.37z
		 M277.058,565.555c-0.115-0.243-0.229-0.491-0.343-0.741c0.142,0.261,0.287,0.521,0.437,0.781
		C277.121,565.581,277.089,565.568,277.058,565.555z M278.264,443.429c20.645,0,38.614,19.776,42.725,47.024l0.006-0.001
		c0.016,3.414,0.045,6.9,0.051,10.431c-0.396,0.278-0.674,0.756-0.594,1.35c1.514,11.145-1.803,21.252-7.871,30.514
		c-0.621,0.948-1.27,1.879-1.93,2.799c-3.818,4.154-7.309,8.639-10.85,13.062c0.285-3.239,0.293-6.474-0.15-9.658
		c-0.664-4.774-2.237-9.101-5.221-12.928c-3.078-3.946-5.077-9.5-10.215-10.365c-1.963-2.048-5.346,0.409-4.686,2.971
		c0.258,1.002-0.307,1.995-0.007,3.086c0.322,1.173,1.084,1.974,1.888,2.831c1.559,1.668,4.38,2.464,6.382,3.404
		c4.381,2.057,6.481,6.728,7.424,11.23c1.116,5.333,0.034,10.961-1.271,16.492c-3.488,3.987-7.206,7.729-11.467,10.898
		c-0.006,0.001-0.011,0.001-0.016,0.001c-2.353-2.208-4.255-5.554-5.584-7.871c-0.241-0.42-0.643-0.613-1.06-0.637
		c-0.239-0.839-0.917-1.531-2.049-1.531c-1.288,0-1.993,0.896-2.125,1.885c-0.612-0.22-1.443,0.116-1.514,0.979
		c-0.126,1.551-0.716,2.768-1.572,3.775c-0.688,0.266-1.356,0.542-1.927,0.879c-0.664-0.32-1.309-0.667-1.935-1.039
		c-0.152-0.184-0.308-0.364-0.462-0.546c-2.061-2.557-4.068-5.156-6.08-7.752c-2.786-5.98-3.286-12.633-0.901-19.175
		c1.304-3.579,4.389-6.597,8.16-7.381c3.865-0.804,9.384-2.451,10.267-6.943c0.745-3.784-2.769-6.361-6.195-4.763
		c-3.858,1.801-7.81,3.875-10.663,7.118c-3.009,3.422-5.139,7.949-6.516,12.271c-1.025,3.217-1.465,6.706-1.323,10.183
		c-0.589-0.185-1.183,0.18-1.434,0.726c-0.347-0.399-0.693-0.799-1.037-1.2c-0.079-0.093-0.166-0.159-0.253-0.213
		c-1.089-2.535-2.158-4.955-3.242-7.024c-1.243-2.237-2.291-4.67-3.208-7.206c-0.601-1.793-1.145-3.61-1.625-5.454
		c-2.492-9.566-3.457-19.455-5.312-29.159c0.039-0.538,0.074-1.076,0.125-1.611C237.708,465.548,256.309,443.429,278.264,443.429z
		 M226.542,484.921c2.688,2.396,4.04,5.847,4.218,9.7c0.015,0.314,0.169,0.521,0.366,0.641c-0.065,0.769-0.123,1.539-0.166,2.312
		c-0.509-0.019-1.013,0.233-1.105,0.817c-0.06,0.377-0.115,0.756-0.171,1.135C226.09,495.689,225.176,491.299,226.542,484.921z
		 M331.063,491.427c-0.672,4.276-2.697,8.126-4.422,12.022c0.129-4.692-0.232-9.44-1.785-13.812
		c0.512-1.411,1.199-2.733,2.162-3.815c1.275-1.424,3.049-0.083,3.783,1.214C331.509,488.275,331.271,490.077,331.063,491.427z"/>
	<path d="M266.069,505.988c-0.712,0.76,0.373,1.917,1.097,1.182c2.414-2.459,5.001-4.74,8.287-5.629
		c3.854-1.041,7.034,1.77,9.389,4.689c0.539,0.672,1.412-0.293,0.895-0.965c-2.502-3.233-5.67-5.935-9.786-5.584
		C272.059,500.014,268.713,503.177,266.069,505.988z"/>
	<ellipse transform="matrix(0.5069 -0.862 0.862 0.5069 -303.368 485.4025)" cx="272.614" cy="507.88" rx="1.62" ry="2.566"/>
	<ellipse transform="matrix(-0.3032 -0.9529 0.9529 -0.3032 -117.8686 927.9995)" cx="280.36" cy="507.095" rx="1.62" ry="2.566"/>
	<path d="M270.932,537.553c-0.307-0.323-0.908-0.434-1.286-0.166c-2.312,1.635-5.11,2.037-7.5,3.481
		c-0.808,0.488-0.096,1.689,0.736,1.259c2.263-1.172,4.781-1.384,7.061-2.495c1.805,1.936,4.042,3.108,6.781,2.299
		c3.564-1.053,5.677-3.716,9.445-1.281c1.353,0.875,2.551-1.244,1.249-2.138c-2.321-1.593-4.815-1.966-7.432-0.849
		C276.332,539.225,274.251,541.045,270.932,537.553z"/>
	<path d="M297.237,488.487c-4.823,2.024-9.86,0.316-13.897-2.972c-0.886-0.725-1.918,0.691-1.047,1.431
		c4.501,3.831,10.252,5.808,15.706,3.516C299.183,489.967,298.415,487.992,297.237,488.487z"/>
	<path d="M265.669,486.222c-2.555,3.419-6.413,3.216-9.792,1.874c-1.101-0.441-1.848,1.559-0.797,2.08
		c4.175,2.077,8.986,1.185,11.817-2.988C267.425,486.409,266.227,485.47,265.669,486.222z"/>
	<path d="M282.253,470.966c3.567-0.079,7.119,0.031,10.619,0.764c3.854,0.808,6.75,3.024,9.509,5.735
		c2.078,2.043,5.297-1.177,3.193-3.193c-2.924-2.801-6.26-5.025-10.285-5.824c-4.29-0.853-8.777,0.342-13.037,0.823
		C281.196,469.39,281.137,470.991,282.253,470.966z"/>
	<path d="M248.176,474.676c3.598-1.675,7.145-3.19,11.067-3.889c4.208-0.749,8.225,0.093,12.238,1.327
		c2.575,0.792,3.592-3.12,1.101-3.991c-8.778-3.071-17.545,1.045-25.252,5.105C246.361,473.738,247.21,475.125,248.176,474.676z"/>
	<path d="M283.049,544.637c-3.064,5.551-10.538,4.339-14.898,1.073c-0.947-0.71-2.15,0.868-1.262,1.636
		c5.409,4.67,14.581,5.662,18.538-1.319C286.304,544.479,283.907,543.083,283.049,544.637z"/>
	<path d="M246.914,526.785c1.944-1.061,3.341-3.262,4.627-5.004c2.185-2.963,4.079-6.176,5.723-9.467
		c0.372-0.744-0.733-1.4-1.121-0.655c-2.391,4.599-5.527,10.871-10.096,13.644C245.101,525.877,245.942,527.315,246.914,526.785z"/>
	<path d="M295.764,509.231c-0.177-0.954-1.611-0.544-1.448,0.399c1.389,8.018,4.679,16.184,10.242,22.229
		c0.869,0.945,2.324-0.5,1.41-1.409C300.317,524.827,297.191,516.968,295.764,509.231z"/>
</g>
<g>
	<path d="M221.432,487.633c-0.943-2.083-3.701-4.332-5.89-2.849c-1.097,0.74-1.931,1.813-2.583,3.043
		c-5.309-27.454-24.24-47.054-45.954-47.054c-22.803,0-42.233,21.419-46.537,50.5c-0.664-2.799-2.017-5.219-4.211-7.193
		c-0.344-0.312-0.7-0.606-1.085-0.894c-0.593-0.441-1.364,0.031-1.56,0.69c-2.538,8.235-0.13,15.072,5.475,19.844
		c-1.228,4.186-1.755,8.678-1.388,13.041c0.006,0.063,0.012,0.122,0.029,0.18c0.356,14.133,5.481,28.337,13.34,39.479
		c3.731,5.297,8.452,8.74,13.606,12.261c5.148,3.521,11.424,7.45,13.458,14.05c0.45,1.477,1.975,2.23,3.274,1.432
		c0.474-0.293,0.955-0.582,1.441-0.868c7.219-4.288,14.829-7.917,21.525-13.144c6.727-5.253,11.204-12.172,15.588-19.628
		c4.098-6.978,7.937-14.133,10.889-21.77c1.976-5.104,3.921-11.486,2.604-17.084c0.659-1.061,1.37-2.076,2.099-3.086
		c0.392-0.025,0.777-0.281,0.991-0.844c0.143-0.376,0.291-0.753,0.446-1.13c0.077-0.205,0.16-0.409,0.242-0.608
		c1.176-2.875,2.486-5.673,3.483-8.632C221.675,494.521,222.748,490.56,221.432,487.633z M143.866,529.162
		c-0.131-1.663-0.239-3.333-0.252-5.001c-0.001-0.256,0.007-0.512,0.018-0.767c0.05-0.141,0.112-0.323,0.191-0.574
		c0.385-1.212,1.378-2.157,2.404-2.833c2.367-1.557,5.394-2.152,8.087-2.884c0.759-0.206,1.523-0.451,2.283-0.725
		c-0.661,0.312-1.296,0.666-1.883,1.034c-0.481,0.301-0.047,1.054,0.446,0.763c3.41-2.009,7.349-2.515,10.237,0.659
		c0.216,0.237,0.581,0.198,0.802,0c4.092-3.691,9.415-2.708,13.997-0.53c0.684,0.324,1.283-0.694,0.595-1.02
		c-0.998-0.472-2.021-0.888-3.058-1.225c2.498,0.604,4.861,1.567,6.837,3.158c4.467,3.598,4.547,10.391,3.61,15.572
		c-0.008,0.041-0.017,0.083-0.024,0.124c-2.597,4.651-8.216,7.639-13.76,9.381c-0.132-0.07-0.267-0.143-0.397-0.211
		c-0.739-0.391-1.573-0.462-2.366-0.301c-3.348-0.77-6.755-1.047-8.875-4.468c-0.415-0.678-1.228-0.44-1.465,0.115
		c-0.119-0.013-0.243,0.032-0.374,0.135c-2.408,1.986-5.136,2.479-7.9,3.59c-0.383,0.153-0.616,0.429-0.745,0.738
		c-2.591-1.383-4.955-3.078-7.116-5.051c-0.165-0.61-0.328-1.219-0.483-1.836C144.353,534.4,144.073,531.785,143.866,529.162z
		 M167.005,444.607c19.618,0,36.81,17.863,42.001,43.017c-0.243,0.268-0.383,0.615-0.334,1.024
		c0.598,5.031,1.467,10.22,1.466,15.358c-0.208,1.245-0.463,2.481-0.776,3.701c-0.564,0.308-1.033,0.838-1.258,1.527
		c-2.296,7.06-4.242,14.235-6.994,21.116c-0.112,0.282-0.226,0.562-0.344,0.844c-1.886,2.735-3.937,5.336-6.014,7.917
		c0.065-1.005,0.156-2.012,0.243-3.018c0.123-0.817,0.224-1.64,0.286-2.467c0.221-0.978,0.371-1.992,0.422-3.056
		c0.036-0.755-0.141-1.361-0.457-1.824c-0.408-4.33-1.905-8.469-5.072-11.728c-5.583-5.748-15.084-5.6-22.459-5.335
		c-2.112,0.074-2.106,3.181,0,3.271c1.414,0.062,2.896,0.129,4.394,0.254c-1.759,0.09-3.5,0.562-5.17,1.558
		c-1.267,0.755-0.829,0.755-2.162-0.071c-1.102-0.683-2.063-1.038-3.342-1.243c-1.089-0.176-2.189-0.022-3.25,0.304
		c1.519-0.639,3-1.382,4.369-2.197c1.68-0.998,0.569-3.928-1.362-3.23c-6.267,2.262-13.593,0.82-19.231,4.98
		c-4.448,3.282-4.881,7.738-4.619,12.759c0.011,0.203,0.026,0.407,0.037,0.61c-0.548,0.403-1.118,0.669-1.702,0.804
		c-3.693,0.846-7.944-3.355-10.743-8.173c-0.389-2.025-0.664-4.061-0.858-6.106l0.203-0.031c-0.184-1.192-0.343-2.455-0.474-3.751
		l-0.012,0.001c-0.204-3.688-0.238-7.399-0.323-11.123c0.054-1.41,0.138-2.831,0.271-4.241
		C126.451,466.727,145.051,444.607,167.005,444.607z M115.284,486.1c2.687,2.396,4.04,5.847,4.217,9.7
		c0.015,0.314,0.168,0.52,0.366,0.64c-0.129,1.523-0.224,3.058-0.266,4.571l0.374,0.01c0,0.121-0.003,0.242-0.003,0.363
		c-0.125,0.14-0.231,0.311-0.305,0.522c0,0.007,0,0.007-0.006,0.013C115.041,497.786,113.772,493.16,115.284,486.1z M159.32,579.924
		c0.034,0.071,0.062,0.143,0.098,0.214c-0.086-0.039-0.173-0.076-0.26-0.115C159.211,579.988,159.267,579.957,159.32,579.924z
		 M219.806,492.604c-0.795,5.066-3.493,9.533-5.337,14.19c-0.137,0.346-0.148,0.657-0.083,0.92
		c-0.498,0.741-0.985,1.488-1.446,2.256c-0.03-0.084-0.06-0.166-0.095-0.25c1.145-3.393,1.814-6.958,1.827-10.605
		c0.003-1.088-0.591-1.742-1.324-1.983c0-0.046-0.001-0.092-0.002-0.14l0.848-0.056c-0.031-0.466-0.074-0.923-0.118-1.39
		l-0.775,0.074c-0.05-0.97-0.14-1.937-0.278-2.888c0.144-0.564,0.309-1.124,0.499-1.672l0.004-0.002
		c-0.001-0.002-0.001-0.005-0.001-0.007c0.519-1.499,1.224-2.909,2.24-4.052c1.275-1.424,3.048-0.083,3.784,1.214
		C220.251,489.454,220.014,491.256,219.806,492.604z"/>
	<path d="M163.328,513.868c-0.201,0.229-0.35,0.51-0.439,0.811C163.12,514.438,163.263,514.161,163.328,513.868z"/>
	<path d="M153.979,527.769c1.533-1.132,2.867-2.439,4.502-3.443c2.069-1.269,2.814,1.14,4.716,1.435
		c2.083,0.321,4.14-0.332,6.153-0.767c3.193-0.688,4.796,0.749,6.74,2.884c2.359,2.594,5.146,3.209,8.1,1.062
		c1.132-0.823,0.164-2.593-1.113-1.906c-3.824,2.061-4.94-0.788-7.819-2.79c-3.394-2.361-7.144-0.495-10.823-0.31
		c-1.526,0.077-2.609-2.005-4.078-2.362c-1.197-0.289-2.588,0.463-3.562,1.06c-2.749,1.686-5.335,7.149-8.785,3.484
		c-0.593-0.629-1.477,0.293-0.936,0.936C149.187,529.561,151.355,529.708,153.979,527.769z"/>
	<path d="M168.083,532.938c-3.58,1.554-8.312,0.698-10.921-2.246c-0.55-0.62-1.666,0.225-1.157,0.892
		c2.933,3.847,8.699,5.051,13.048,3.014C170.186,534.066,169.198,532.454,168.083,532.938z"/>
	<path d="M156.775,505.053c-0.712,0.76,0.374,1.917,1.097,1.182c2.414-2.46,5-4.74,8.286-5.629c3.855-1.041,7.035,1.77,9.39,4.689
		c0.539,0.671,1.412-0.293,0.895-0.965c-2.502-3.233-5.67-5.935-9.786-5.584C162.766,499.078,159.42,502.241,156.775,505.053z"/>
	<ellipse transform="matrix(0.5072 -0.8618 0.8618 0.5072 -356.4195 390.5974)" cx="163.32" cy="506.944" rx="1.62" ry="2.567"/>
	<ellipse transform="matrix(-0.3031 -0.953 0.953 -0.3031 -259.4345 822.5909)" cx="171.066" cy="506.159" rx="1.621" ry="2.567"/>
	<path d="M189.364,486.478c-4.823,2.024-9.859,0.315-13.896-2.973c-0.886-0.725-1.918,0.691-1.047,1.432
		c4.501,3.831,10.251,5.808,15.706,3.515C191.31,487.956,190.542,485.982,189.364,486.478z"/>
	<path d="M159.025,485.177c0.527-0.779-0.672-1.717-1.229-0.966c-2.555,3.419-6.414,3.216-9.792,1.874
		c-1.101-0.441-1.849,1.559-0.798,2.081C151.382,490.242,156.194,489.351,159.025,485.177z"/>
	<path d="M174.381,468.956c3.567-0.079,7.119,0.031,10.619,0.764c3.854,0.808,6.75,3.025,9.508,5.735
		c2.079,2.044,5.298-1.177,3.194-3.193c-2.923-2.802-6.259-5.024-10.284-5.824c-4.291-0.853-8.778,0.343-13.037,0.823
		C173.323,467.379,173.265,468.98,174.381,468.956z"/>
	<path d="M140.303,472.666c3.598-1.676,7.145-3.191,11.067-3.889c4.208-0.75,8.226,0.093,12.238,1.327
		c2.575,0.792,3.592-3.12,1.101-3.991c-8.778-3.071-17.545,1.044-25.252,5.105C138.488,471.727,139.337,473.115,140.303,472.666z"/>
	<path d="M128.867,512.808c-1-5.362-0.311-10.49,3.389-14.686c0.494-0.561-0.283-1.355-0.824-0.825
		c-4.466,4.38-5.328,9.996-4.278,15.983C127.35,514.404,129.076,513.931,128.867,512.808z"/>
	<path d="M197.696,498.059c4.268,5.704,7.273,12.832,3.611,19.618c-0.58,1.075,1.039,2.026,1.637,0.957
		c4.158-7.415,0.733-15.305-4.164-21.413C198.292,496.611,197.227,497.432,197.696,498.059z"/>
</g>
<g>
	<path d="M333.511,340.548c-0.92-2.093-3.654-4.371-5.857-2.913c-1.105,0.728-1.952,1.793-2.617,3.017
		c-5.01-27.51-23.729-47.314-45.443-47.548c-22.805-0.24-42.461,20.963-47.078,49.995c-0.634-2.806-1.961-5.239-4.134-7.237
		c-0.34-0.316-0.693-0.613-1.075-0.906c-0.588-0.447-1.365,0.017-1.568,0.674c-2.627,8.208-0.292,15.07,5.261,19.903
		c-1.273,4.171-1.849,8.657-1.529,13.025c0.006,0.063,0.011,0.122,0.028,0.18c-0.024-1.521,0.003-3.036,0.097-4.549
		c0.043-0.741,0.41-1.248,0.894-1.512c-0.019,0.064-0.037,0.134-0.05,0.21c-0.323,1.831-0.992,2.186-0.381,4.46
		c-0.434,0.494-0.396,2.178-0.56,1.39c0.204,14.136,5.175,28.393,12.914,39.621c3.674,5.337,8.358,8.831,13.475,12.407
		c5.109,3.576,11.343,7.573,13.305,14.195c0.435,1.479,1.952,2.25,3.259,1.466c0.478-0.288,0.959-0.571,1.449-0.854
		c7.266-4.209,14.913-7.756,21.666-12.91c6.782-5.179,11.335-12.05,15.798-19.458c4.174-6.933,8.089-14.047,11.124-21.651
		c2.03-5.083,4.045-11.445,2.787-17.055c0.672-1.054,1.394-2.062,2.133-3.063c0.482-0.653,0.97-1.306,1.457-1.959
		c0.08-0.203,0.165-0.407,0.249-0.604c1.207-2.862,2.548-5.646,3.575-8.594C333.681,347.438,334.797,343.489,333.511,340.548z
		 M279.552,296.938c19.634,0.211,36.645,18.288,41.547,43.53c-0.25,0.302-0.393,0.701-0.344,1.182
		c0.512,4.963,1.327,10.081,1.289,15.141c-0.222,1.246-0.49,2.481-0.817,3.701c-0.568,0.3-1.042,0.826-1.274,1.514
		c-2.371,7.035-4.396,14.189-7.221,21.04c-0.116,0.281-0.232,0.561-0.354,0.84c-1.221,1.731-2.512,3.403-3.831,5.053
		c0.277-1.366,0.489-2.719,0.637-4.037c0.849-7.622-0.465-17.508-10.01-17.716c-7.53-0.163-14.506,4.807-22.103,3.239
		c-1.506-0.31-2.211,2.166-0.726,2.61c5.345,1.6,11.242,0.654,16.677,0.023c2.267-0.264,4.917-0.584,7.146,0.115
		c2.297,0.718,2.743,2.944,2.976,5.104c0.583,5.431-0.887,12.095-3.844,17.565c-1.342,1.409-3.183,2.082-5.836,2.337
		c-1.974,0.19-3.954-0.065-5.897-0.402c-0.9-0.157-1.814-0.489-2.726-0.781c-0.137-0.26-0.365-0.473-0.707-0.571
		c-1.357-0.388-2.751-0.63-4.083-0.977c-0.422-0.356-0.834-0.722-1.24-1.097c0.069-0.328-0.014-0.693-0.315-0.952
		c-0.091-0.079-0.178-0.143-0.268-0.213c0.201-0.534-0.02-1.199-0.792-1.347c-0.605-0.117-1.107-0.332-1.646-0.599
		c-0.59-0.292-1.147,0.068-1.358,0.576c-0.048-0.075-0.101-0.142-0.147-0.22c-0.407-0.681-1.224-0.454-1.466,0.1
		c-0.087,0.199-0.098,0.437,0.005,0.692c-0.162,0.29-0.163,0.686,0.081,0.967c-1.2,1.353-2.776,2.521-4.452,3.366
		c0.135,0.187,0.247,0.397,0.332,0.625c-1.15,0.066-2.301,0.152-3.458,0.223c-2.154,0.133-4.078-0.062-5.955-0.544
		c-1.292-1.854-2.533-3.752-3.907-5.535c-0.868-5.661-4.609-10.739-4.25-16.536c0.23-3.72,3.651-2.7,6.266-2.337
		c3.461,0.48,7.156,1.208,10.612,0.303c1.509-0.396,1.308-2.769-0.318-2.48c-6.95,1.238-17.431-7.732-21.366,1.946
		c-1.16,2.854-0.741,6.149,0.046,9.179c-3.488,0.056-7.28-3.923-9.817-8.414c-0.367-2.018-0.621-4.045-0.794-6.081l0.225-0.032
		c-0.172-1.196-0.314-2.425-0.434-3.757l-0.035,0.003c-0.012-0.253-0.021-0.507-0.029-0.759l0.002,0
		c-0.003-0.034-0.003-0.067-0.007-0.102c-0.125-3.323-0.128-6.663-0.16-10.009c0.067-1.489,0.173-2.995,0.331-4.495
		C238.762,318.621,257.595,296.697,279.552,296.938z M227.387,337.871c-0.37-0.336-0.758-0.654-1.176-0.945
		c0.525-0.218,1.05-0.442,1.573-0.667C227.636,336.813,227.499,337.349,227.387,337.871c2.662,2.425,3.976,5.89,4.113,9.745
		c0.012,0.314,0.163,0.522,0.358,0.644c-0.146,1.526-0.257,3.059-0.314,4.569l0.384,0.015c-0.001,0.116-0.006,0.232-0.007,0.348
		c-0.132,0.14-0.243,0.316-0.322,0.534c0,0.006,0,0.006-0.006,0.013C227.019,349.554,225.799,344.915,227.387,337.871z
		 M331.832,345.502c-0.849,5.057-3.596,9.494-5.491,14.132c-0.139,0.343-0.154,0.656-0.093,0.918c-0.505,0.736-1,1.479-1.471,2.24
		c-0.028-0.083-0.058-0.167-0.092-0.25c1.181-3.381,1.89-6.938,1.94-10.586c0.017-1.085-0.568-1.746-1.294-1.994
		c0-0.047-0.001-0.095-0.001-0.142l0.842-0.046c-0.027-0.465-0.064-0.925-0.104-1.39l-0.761,0.063
		c-0.034-0.998-0.11-1.994-0.241-2.971c0.146-0.536,0.309-1.067,0.494-1.587h0.004c0-0.002,0-0.003,0-0.005
		c0.535-1.494,1.255-2.898,2.283-4.029c1.29-1.411,3.049-0.05,3.771,1.255C332.312,342.356,332.054,344.155,331.832,345.502z"/>
	<path d="M276.495,353.915c-3.895,0.29-7.274,3.416-9.95,6.199c-0.719,0.753,0.353,1.922,1.085,1.194
		c2.44-2.434,5.05-4.687,8.346-5.539c3.866-1,7.014,1.845,9.338,4.79c0.533,0.676,1.416-0.278,0.905-0.955
		C283.752,356.344,280.612,353.607,276.495,353.915z"/>
	<path d="M275.129,366.156c-0.203,0.227-0.356,0.506-0.448,0.807C274.916,366.722,275.061,366.448,275.129,366.156z"/>
	<path d="M264.666,378.02c-0.083-0.024-0.174-0.03-0.272-0.013c-0.168,0.031-0.334,0.066-0.5,0.102
		c-2.278,0.319-4.476,1.137-6.708,2.497c-0.666,0.407,0.012,1.576,0.69,1.186c0.004-0.002,0.008-0.004,0.012-0.007
		c-0.481,0.707-0.856,1.518-1.104,2.441c-0.791,2.951,0.456,6.297,2.51,8.434c2.246,2.336,5.438,3.025,8.463,1.919
		c5.209-1.904,8.082-8.156,9.9-13.001c1.135,0.096,2.285,0.12,3.469,0.019c2.8-0.239,5.506-1.592,8.148-2.45
		c1.328-0.432,2.688-0.743,4.083-0.531c2.224,0.338,2.561,3.279,2.799,5.016c0.186,1.344,2.237,1.079,2.084-0.267
		c-0.339-2.996-1.375-5.978-4.61-6.667c-3.115-0.664-6.806,1.378-9.646,2.345c-4.502,1.531-8.861,0.514-13.345-0.535
		C268.54,378.016,266.57,377.848,264.666,378.02z M260.827,391.549c-1.782-1.577-2.655-4.15-2.361-6.479
		c0.343-2.711,2.563-4.359,4.949-5.281c1.485-0.228,2.993-0.225,4.568-0.02c-3.381,1.493-5.42,4.589-5.427,8.615
		c-0.002,0.982,1.667,0.985,1.727,0.012c0.239-3.97,2.311-6.898,6.192-8.072c0.044-0.012,0.073-0.04,0.109-0.061
		c1.702,0.407,3.366,0.804,5.043,1.072C273.33,386.891,267.546,397.49,260.827,391.549z"/>
	<path d="M247.749,331.841c9.429,2.127,17.755-2.286,25.159-7.699c2.143-1.566-0.332-4.728-2.499-3.245
		c-6.733,4.608-13.708,9.784-22.298,8.404C246.455,329.036,246.161,331.482,247.749,331.841z"/>
	<path d="M286.4,323.042c-0.954-0.88-2.486,0.649-1.608,1.607c4.83,5.272,12.381,12.055,20.207,10.233
		c2.261-0.526,1.867-3.629-0.458-3.563C297.454,331.521,291.463,327.714,286.4,323.042z"/>
	<path d="M268.271,316.713c6.503,3.633,14.379,3.472,21.44,1.73c1.049-0.259,0.845-1.945-0.216-1.683
		c-6.796,1.676-14.312,1.977-20.702-1.279C268.014,315.084,267.534,316.301,268.271,316.713z"/>
	<path d="M277.87,316.157c4.511,2.073,11.068-0.21,15.713-0.83c1.132-0.151,0.906-1.92-0.225-1.758
		c-2.534,0.365-5.05,0.832-7.584,1.202c-2.233,0.325-5.212,1.014-7.398,0.194C277.594,314.673,277.112,315.807,277.87,316.157z"/>
	<ellipse transform="matrix(0.5167 -0.8562 0.8562 0.5167 -178.0217 408.791)" cx="273.07" cy="362.076" rx="1.62" ry="2.567"/>
	<ellipse transform="matrix(-0.2927 -0.9562 0.9562 -0.2927 17.4813 735.6791)" cx="280.824" cy="361.374" rx="1.621" ry="2.567"/>
	<path d="M245.673,355.647c-0.42-1.279-0.84-2.559-1.259-3.838c-0.24-0.731-1.327-0.265-1.099,0.459
		c0.405,1.286,0.811,2.571,1.215,3.857C244.769,356.884,245.92,356.404,245.673,355.647z"/>
	<path d="M246.271,355.28c0.32,0.687,1.415,0.23,1.086-0.455c-0.469-0.976-0.794-2.013-1.263-2.988
		c-0.315-0.661-1.366-0.229-1.053,0.441C245.499,353.259,245.813,354.299,246.271,355.28z"/>
	<path d="M248.883,355.033c0.535,0.593,1.529-0.182,0.981-0.756c-0.852-0.892-1.29-2.08-2.141-2.972
		c-0.493-0.517-1.388,0.142-0.895,0.69C247.655,352.912,248.058,354.115,248.883,355.033z"/>
	<path d="M304.309,351.617c0.361,0.847,0.335,1.803,0.312,2.707c-0.022,0.822,1.125,0.828,1.119,0.008
		c-0.006-1.05-0.026-2.143-0.478-3.113C304.983,350.616,304.047,351,304.309,351.617z"/>
	<path d="M307.242,350.949c-0.024,1.119-0.097,2.185-0.464,3.252c-0.242,0.705,0.84,1.155,1.063,0.451
		c0.39-1.227,0.463-2.418,0.462-3.697C308.302,350.354,307.256,350.348,307.242,350.949z"/>
	<path d="M310.392,354.678c0.49-1.029,0.895-2.297,0.408-3.4c-0.27-0.609-1.203-0.221-0.954,0.399
		c0.335,0.836-0.119,1.813-0.506,2.555C309.001,354.882,310.074,355.344,310.392,354.678z"/>
	<path d="M267.747,348.222c-1.363-1.699-2.738-3.412-4.173-5.071c0.949-1.349,1.923-2.678,2.973-3.943
		c0.033,0.227,0.049,0.458,0.041,0.693c0.031-0.071,0.058-0.156,0.079-0.237c0.058-0.226,0.077-0.452,0.062-0.671
		c1.086-1.29,2.255-2.51,3.57-3.606c0.89-0.742-0.187-2.158-1.1-1.429c-2.744,2.191-4.92,4.878-6.994,7.659
		c-1.645-1.793-3.388-3.492-5.314-4.977c-0.987-0.762-2.142,0.741-1.179,1.526c1.912,1.559,3.621,3.326,5.202,5.206
		c-1.203,1.647-2.405,3.298-3.696,4.873c-0.908,1.105,0.872,2.481,1.754,1.354c1.154-1.474,2.224-3.017,3.292-4.561
		c1.203,1.546,2.334,3.149,3.428,4.769C266.623,351.184,268.8,349.537,267.747,348.222z"/>
	<path d="M294.775,338.161c-1.053,1.347-2.073,2.749-3.102,4.15c-1.57-2.721-3.177-5.42-4.792-8.114
		c-0.617-1.029-2.42,0.016-1.823,1.06c1.721,3.008,3.478,6.006,5.121,9.061c-1.568,2.07-3.208,4.076-5.074,5.834
		c-1.309,1.232,0.514,3.061,1.743,1.744c1.601-1.717,3.052-3.56,4.451-5.446c1.048,2.051,2.035,4.131,2.9,6.267
		c0.665,1.634,2.961,0.585,2.477-1.037c-0.757-2.538-2.431-5.03-3.828-7.357c1.179-1.644,2.339-3.298,3.54-4.917
		C297.169,338.351,295.587,337.125,294.775,338.161z"/>
</g>
<path d="M408.641,308.504c3.01,3.506-3.908,7.581-5.765,10.166c-3.107,4.327,0.098,7.448,4.126,9.459
	c0.946,0.473,1.772-0.906,0.834-1.426c-2.089-1.156-5.345-2.95-4.052-5.802c0.765-1.688,2.421-3.027,3.726-4.289
	c1.853-1.791,4.845-4.456,3.91-7.368c-0.924-2.879-4.247-5.053-6.311-7.067c-1.092-1.065-2.636-2.47-2.713-4.102
	c-0.109-2.303,5.061-3.183,6.558-3.588c1.215-0.329,0.698-2.115-0.515-1.868c-3.254,0.663-9.205,2.27-7.879,6.801
	C401.662,303.186,406.203,305.665,408.641,308.504z"/>
<path d="M429.422,319.088c0.776,0.51,1.467-0.714,0.72-1.233c-1.143-0.795-3.812-2.373-3.043-4.19
	c0.343-0.812,1.226-1.443,1.878-1.998c1.522-1.299,3.062-2.521,3.912-4.38c2.141-4.679-2.216-8.337-2.935-12.679
	c-0.18-1.08-1.765-0.603-1.623,0.448c0.41,3.017,2.221,4.887,3.206,7.627c1.248,3.472-1.412,5.841-3.725,7.821
	C423.956,313.805,425.596,316.573,429.422,319.088z"/>
<path d="M457.266,332.788c-1.78-2.33-3.761-4.985-3.666-8.06c0.06-1.924,1.642-3.554,2.812-4.919
	c2.164-2.524,4.651-6.278,3.608-9.832c-0.6-2.044-2.281-3.316-3.655-4.851c-2.495-2.791-0.908-5.115,1.775-6.452
	c3.662-1.825,2.64-4.599,0.553-7.504c-0.688-0.958-2.291-0.037-1.595,0.933c0.676,0.941,1.96,2.389,1.761,3.659
	c-0.111,0.714-1.538,1.158-2.086,1.419c-1.436,0.686-2.663,1.581-3.321,3.07c-2.242,5.066,4.9,7.368,4.799,11.883
	c-0.095,4.186-3.88,6.567-5.619,10c-2.086,4.115,0.986,8.438,3.455,11.565C456.612,334.365,457.782,333.464,457.266,332.788z"/>
<g>
	<g>
		<path d="M110.431,46.859c-0.943-2.083-3.701-4.333-5.89-2.85c-1.097,0.74-1.932,1.813-2.583,3.044C96.651,19.6,77.719,0,56.005,0
			C33.202,0,13.772,21.418,9.468,50.5c-0.664-2.8-2.017-5.219-4.211-7.193c-0.344-0.312-0.7-0.606-1.086-0.894
			c-0.593-0.441-1.364,0.032-1.56,0.69c-2.539,8.235-0.13,15.072,5.475,19.845c-1.228,4.185-1.756,8.677-1.388,13.041
			c0.005,0.064,0.012,0.122,0.029,0.179c0.356,14.133,5.48,28.336,13.34,39.48c3.73,5.296,8.452,8.74,13.606,12.261
			c5.148,3.52,11.423,7.45,13.458,14.05c0.45,1.476,1.975,2.23,3.274,1.431c0.475-0.294,0.955-0.582,1.441-0.869
			c7.218-4.287,14.829-7.916,21.525-13.143c6.726-5.252,11.204-12.171,15.587-19.628c4.099-6.977,7.937-14.133,10.89-21.769
			c1.975-5.104,3.921-11.488,2.604-17.084c0.659-1.061,1.371-2.077,2.1-3.086c0.392-0.025,0.777-0.281,0.991-0.843
			c0.143-0.377,0.291-0.754,0.445-1.131c0.077-0.205,0.16-0.409,0.243-0.607c1.175-2.875,2.486-5.674,3.482-8.632
			C110.674,53.747,111.747,49.786,110.431,46.859z M56.005,3.833c19.618,0,36.81,17.862,42,43.017
			c-0.242,0.268-0.383,0.615-0.334,1.024c0.598,5.029,1.467,10.218,1.466,15.356c-0.208,1.246-0.464,2.482-0.777,3.704
			c-0.564,0.306-1.033,0.836-1.258,1.527c-2.295,7.06-4.241,14.235-6.993,21.116c-0.113,0.282-0.226,0.563-0.345,0.844
			c-1.885,2.735-3.938,5.335-6.014,7.917c0.105-1.632,0.278-3.271,0.39-4.896c0.304-1.153,0.498-2.366,0.561-3.645
			c0.026-0.551-0.068-1.016-0.24-1.411c-0.03-5.086-1.397-10.048-5.595-13.233c-5.58-4.233-15.145-1.961-21.514-1.688
			c-2.106,0.09-2.112,3.194,0,3.272c5.416,0.198,11.237-0.327,16.419,1.565c5.206,1.9,4.283,9.406,3.598,13.66
			c-0.14,0.869-0.306,1.753-0.493,2.644c-2.703,4.382-8.124,7.229-13.479,8.912c-0.133-0.071-0.268-0.143-0.398-0.211
			c-0.74-0.392-1.576-0.461-2.37-0.299c-3.346-0.77-6.753-1.048-8.872-4.467c-0.415-0.677-1.228-0.44-1.465,0.116
			c-0.119-0.013-0.243,0.032-0.374,0.134c-2.408,1.986-5.137,2.479-7.901,3.59c-0.38,0.152-0.613,0.424-0.742,0.731
			c-2.594-1.384-4.959-3.081-7.122-5.058c-0.913-3.375-1.668-6.856-2.332-10.349l-0.581,0.134c-0.211-1.125-1.112-2.052-2.073-2.071
			c-0.016-0.083-0.033-0.165-0.048-0.247c-0.279-1.497-0.523-2.581-0.544-3.942c0.021,0.3,0.123-0.44,0.321-0.798
			c0.188-0.339,0.51-0.546,0.822-0.747c1.058-0.679,2.502-0.755,3.716-0.831c6.211-0.391,12.759,0.675,18.421-2.574
			c1.156-0.663,1.003-2.212,0.188-2.939c0.132-0.188,0.235-0.385,0.283-0.597c-0.141,0.161-0.246,0.352-0.332,0.551
			c-0.385-0.317-0.905-0.454-1.501-0.247c-3.346,1.167-7.063,0.341-10.5-0.033c-3.567-0.388-7.039-0.688-10.583,0.061
			c-3.129,0.661-5.848,2.923-6.881,5.966c-0.657,1.933-0.237,3.952,0.039,5.922c0.162,1.155,0.346,2.311,0.541,3.465
			c-3.28-0.405-6.766-4.094-9.176-8.242c-0.389-2.026-0.664-4.062-0.858-6.106l0.203-0.031c-0.184-1.192-0.343-2.455-0.474-3.752
			l-0.012,0.001c-0.203-3.688-0.238-7.399-0.323-11.123c0.054-1.41,0.139-2.83,0.271-4.241C15.451,25.953,34.05,3.833,56.005,3.833z
			 M4.284,45.326c2.687,2.396,4.04,5.846,4.217,9.699c0.015,0.315,0.169,0.521,0.366,0.641c-0.129,1.523-0.224,3.057-0.265,4.571
			l0.374,0.01c0,0.121-0.003,0.242-0.003,0.362c-0.124,0.14-0.231,0.311-0.305,0.523c0,0.006,0,0.006-0.006,0.013
			C4.041,57.012,2.771,52.386,4.284,45.326z M108.805,51.83c-0.795,5.067-3.494,9.533-5.338,14.191
			c-0.137,0.345-0.148,0.658-0.083,0.919c-0.498,0.742-0.984,1.489-1.447,2.256c-0.03-0.083-0.06-0.166-0.095-0.249
			c1.145-3.393,1.814-6.958,1.827-10.606c0.004-1.089-0.591-1.743-1.323-1.982c0-0.046-0.001-0.092-0.002-0.139l0.847-0.056
			c-0.029-0.444-0.07-0.882-0.112-1.326l-0.779,0.047c-0.05-0.982-0.141-1.964-0.281-2.927c0.145-0.564,0.309-1.124,0.499-1.673
			h0.003c0-0.002,0-0.004-0.001-0.006c0.519-1.499,1.224-2.91,2.241-4.053c1.275-1.424,3.048-0.083,3.784,1.214
			C109.25,48.68,109.013,50.482,108.805,51.83z"/>
		<path d="M76.17,51.941c-4.823,2.024-9.86,0.315-13.897-2.973c-0.886-0.725-1.918,0.692-1.047,1.432
			c4.501,3.831,10.251,5.808,15.706,3.515C78.115,53.421,77.347,51.446,76.17,51.941z"/>
		<path d="M69.532,50.424c1.896-0.227,3.241-2.067,2.997-4.117c-0.245-2.048-1.987-3.526-3.883-3.3
			c-1.902,0.228-3.247,2.074-3.002,4.124C65.888,49.18,67.629,50.651,69.532,50.424z"/>
		<path d="M74.151,40.49c-3.033-1.433-6.657-1.02-9.812-0.571c-1.069,0.153-0.856,1.884,0.214,1.789
			c2.754-0.239,5.525-0.345,8.192,0.623c3.472,1.265,5.384,4.421,6.833,7.844c0.567,1.349,2.488,0.527,1.959-0.845
			C80.05,45.474,77.772,42.207,74.151,40.49z"/>
		<path d="M47.642,62.839c-0.54-0.671-1.412,0.294-0.896,0.964c2.503,3.233,5.67,5.936,9.787,5.584
			c3.891-0.332,7.236-3.495,9.881-6.306c0.712-0.76-0.374-1.917-1.097-1.182c-2.414,2.459-5,4.741-8.287,5.628
			C53.176,68.57,49.997,65.759,47.642,62.839z"/>
		<path d="M44.602,49.676c-2.555,3.418-6.414,3.215-9.792,1.874c-1.101-0.441-1.849,1.56-0.797,2.081
			c4.175,2.077,8.986,1.184,11.817-2.989C46.358,49.863,45.159,48.924,44.602,49.676z"/>
		<path d="M45.378,43.103c1.511,0.785,2.854-1.728,1.332-2.489c-6.854-3.451-13.133-0.09-17.532,6.238
			c-0.632,0.911,0.743,1.952,1.434,1.128C34.644,43.167,39.676,40.131,45.378,43.103z"/>
		<path d="M40.918,43.357c-1.861-0.456-3.769,0.799-4.26,2.803c-0.492,2.005,0.62,3.995,2.48,4.451
			c1.855,0.456,3.762-0.794,4.253-2.799c0.071-0.292,0.108-0.591,0.112-0.88c0.03-0.072,0.057-0.157,0.076-0.238
			c0.219-0.894-0.161-1.783-0.877-2.176C42.257,43.949,41.644,43.535,40.918,43.357z"/>
		<path d="M52.493,85.513c-0.829-0.81-1.889-1.036-3.036-1.527c-0.863-0.369-1.636,0.733-1.012,1.272
			c-4.132,0.164-7.983-0.932-11.827-2.498c0.562-0.322,0.452-1.368-0.349-1.358c-0.647,0.008-1.398,0.166-1.996,0.417
			c-0.44,0.185-1.011,0.701-0.612,1.227c0.334,0.441,0.816,0.456,1.331,0.459c0.303,0.003,0.499-0.153,0.608-0.357
			c-0.132,0.332-0.078,0.736,0.298,0.896c4.41,1.876,8.95,3.311,13.789,2.708c0.391-0.048,0.63-0.322,0.716-0.628
			c0.43,0.219,0.813,0.498,1.063,0.932c0.261,0.454,0.789,0.528,1.23,0.322c1.142-0.532,2.403-0.921,3.468-1.612
			c0.082,0.115,0.197,0.206,0.365,0.232c4.153,0.644,8.389,0.173,12.088-1.903c0.121-0.067,0.208-0.151,0.271-0.244
			c0.384,0.491,1.392,0.341,1.356-0.444c-0.062-1.406-1.26-2.601-2.668-2.616c-0.905-0.009-0.896,1.357,0,1.398
			c0.361,0.016,0.682,0.216,0.859,0.456c0.001,0.001,0.002,0.004,0.003,0.006c-0.187-0.065-0.403-0.056-0.625,0.069
			c-3.301,1.853-7.048,2.379-10.77,1.938c-0.068-0.649-0.962-1.217-1.632-0.636C54.615,84.715,53.502,85.092,52.493,85.513z
			 M35.663,83.018c0.006-0.021,0.006-0.045,0.011-0.067c0.014-0.003,0.028-0.007,0.042-0.01
			C35.698,82.965,35.679,82.991,35.663,83.018z"/>
		<path d="M58.681,91.125c-3.847,3.597-9.833,4.009-13.601,0.085c-0.641-0.667-1.628,0.333-1.01,1.01
			c4.285,4.687,11.292,4.225,15.79,0.085C60.652,91.576,59.466,90.392,58.681,91.125z"/>
		<path d="M61.188,32.502c3.567-0.079,7.118,0.031,10.618,0.765c3.854,0.807,6.751,3.024,9.509,5.735
			c2.078,2.043,5.298-1.177,3.193-3.193c-2.924-2.802-6.259-5.025-10.284-5.824c-4.291-0.852-8.778,0.343-13.037,0.823
			C60.129,30.927,60.07,32.527,61.188,32.502z"/>
		<path d="M27.108,36.213c3.597-1.676,7.145-3.191,11.067-3.889c4.208-0.75,8.226,0.093,12.239,1.327
			c2.575,0.792,3.591-3.12,1.1-3.991c-8.779-3.07-17.546,1.045-25.253,5.105C25.293,35.275,26.143,36.663,27.108,36.213z"/>
	</g>
	
		<ellipse transform="matrix(0.1186 0.9929 -0.9929 0.1186 107.0021 -29.8491)" fill="#FFFFFF" cx="70.315" cy="45.348" rx="1.727" ry="1.602"/>
	
		<ellipse transform="matrix(0.1186 0.9929 -0.9929 0.1186 82.0218 -1.2198)" fill="#FFFFFF" cx="41.698" cy="45.593" rx="1.727" ry="1.602"/>
</g>
<g>
	<path d="M222.189,46.859c-0.944-2.083-3.702-4.332-5.891-2.85c-1.097,0.74-1.932,1.813-2.583,3.043
		C208.409,19.6,189.477,0,167.763,0c-22.803,0-42.233,21.418-46.537,50.499c-0.664-2.799-2.017-5.218-4.211-7.192
		c-0.344-0.312-0.7-0.606-1.085-0.894c-0.593-0.441-1.364,0.032-1.56,0.69c-2.538,8.235-0.13,15.072,5.475,19.845
		c-1.228,4.185-1.755,8.677-1.388,13.041c0.005,0.063,0.012,0.122,0.029,0.179c0.356,14.133,5.481,28.336,13.34,39.479
		c3.73,5.297,8.452,8.74,13.606,12.261c2.924,1.999,6.209,4.132,8.876,6.81c-0.197,0.141-0.321,0.382-0.247,0.69
		c0.627,2.6,1.819,4.772,4.042,6.319c0.219,0.152,0.49,0.155,0.727,0.062c0.019,0.057,0.042,0.111,0.06,0.168
		c0.451,1.476,1.976,2.23,3.274,1.431c0.474-0.294,0.955-0.582,1.441-0.869c7.219-4.287,14.829-7.916,21.525-13.143
		c6.726-5.252,11.204-12.171,15.588-19.628c4.098-6.977,7.937-14.133,10.889-21.769c1.976-5.104,3.921-11.487,2.604-17.084
		c0.659-1.061,1.37-2.077,2.099-3.086c0.392-0.026,0.778-0.281,0.991-0.844c0.142-0.377,0.291-0.754,0.445-1.13
		c0.078-0.205,0.16-0.41,0.242-0.607c1.175-2.875,2.486-5.673,3.483-8.632C222.433,53.747,223.506,49.786,222.189,46.859z
		 M160.708,138.765c0.022,0.05,0.043,0.1,0.066,0.15c-0.009,0.058-0.017,0.115-0.027,0.173c-0.054-0.083-0.106-0.167-0.16-0.249
		C160.628,138.813,160.668,138.789,160.708,138.765z M167.763,3.834c19.618,0,36.809,17.862,42,43.017
		c-0.243,0.268-0.383,0.615-0.334,1.024c0.598,5.03,1.466,10.22,1.466,15.357c-0.208,1.246-0.463,2.481-0.776,3.702
		c-0.564,0.306-1.034,0.837-1.258,1.527c-2.296,7.06-4.242,14.235-6.993,21.117c-0.112,0.281-0.226,0.562-0.344,0.843
		c-1.886,2.735-3.938,5.335-6.014,7.917c0.104-1.632,0.277-3.269,0.389-4.894c0.305-1.154,0.499-2.367,0.562-3.646
		c0.026-0.552-0.069-1.017-0.241-1.412c-0.03-5.085-1.398-10.048-5.595-13.232c-5.579-4.233-15.145-1.962-21.514-1.688
		c-2.106,0.091-2.111,3.195,0,3.273c5.417,0.198,11.238-0.327,16.419,1.565c5.205,1.9,4.283,9.406,3.598,13.66
		c-0.14,0.869-0.305,1.754-0.493,2.645c-2.703,4.382-8.124,7.229-13.479,8.912c-0.132-0.07-0.269-0.143-0.398-0.211
		c-0.74-0.392-1.576-0.461-2.371-0.299c-3.345-0.77-6.752-1.048-8.872-4.467c-0.414-0.677-1.227-0.44-1.465,0.115
		c-0.119-0.013-0.243,0.032-0.373,0.134c-2.409,1.987-5.137,2.479-7.901,3.59c-0.381,0.152-0.613,0.423-0.743,0.73
		c-2.593-1.384-4.959-3.082-7.122-5.058c-0.912-3.375-1.667-6.856-2.331-10.349L143,87.84c-0.211-1.125-1.112-2.052-2.073-2.072
		c-0.016-0.083-0.033-0.165-0.048-0.247c-0.28-1.497-0.523-2.581-0.544-3.942c0.021,0.3,0.123-0.44,0.321-0.798
		c0.187-0.338,0.51-0.546,0.822-0.746c1.058-0.679,2.503-0.755,3.717-0.832c6.211-0.39,12.758,0.675,18.421-2.574
		c1.157-0.663,1.003-2.212,0.189-2.939c0.132-0.188,0.235-0.385,0.282-0.597c-0.141,0.161-0.245,0.351-0.332,0.55
		c-0.385-0.316-0.905-0.454-1.501-0.246c-3.346,1.167-7.063,0.341-10.5-0.033c-3.568-0.389-7.04-0.688-10.584,0.06
		c-3.129,0.661-5.848,2.923-6.881,5.966c-0.657,1.933-0.236,3.953,0.039,5.922c0.162,1.155,0.346,2.311,0.541,3.465
		c-3.28-0.405-6.767-4.094-9.177-8.242c-0.389-2.025-0.664-4.061-0.858-6.105l0.204-0.032c-0.184-1.192-0.343-2.455-0.474-3.752
		l-0.012,0.001c-0.203-3.688-0.238-7.399-0.323-11.123c0.054-1.41,0.139-2.83,0.271-4.241
		C127.208,25.953,145.809,3.834,167.763,3.834z M116.042,45.326c2.687,2.396,4.04,5.847,4.217,9.699
		c0.015,0.315,0.169,0.521,0.366,0.641c-0.129,1.524-0.224,3.057-0.265,4.571l0.374,0.01c0,0.121-0.002,0.242-0.002,0.362
		c-0.125,0.14-0.231,0.311-0.306,0.523c0,0.006,0,0.006-0.005,0.013C115.798,57.012,114.529,52.386,116.042,45.326z M220.563,51.831
		c-0.795,5.066-3.493,9.533-5.337,14.19c-0.138,0.345-0.149,0.658-0.084,0.92c-0.498,0.741-0.984,1.489-1.446,2.255
		c-0.03-0.083-0.06-0.166-0.095-0.249c1.145-3.393,1.814-6.958,1.827-10.606c0.002-1.089-0.592-1.743-1.324-1.982
		c0-0.046-0.001-0.093-0.002-0.14l0.847-0.057c-0.031-0.465-0.074-0.923-0.117-1.389l-0.775,0.074
		c-0.051-0.97-0.141-1.938-0.28-2.889c0.145-0.564,0.31-1.124,0.5-1.673l0.003,0c-0.001-0.002-0.001-0.004-0.001-0.007
		c0.519-1.499,1.223-2.91,2.24-4.052c1.275-1.424,3.049-0.083,3.784,1.214C221.009,48.68,220.771,50.482,220.563,51.831z"/>
	<path d="M187.928,51.941c-4.823,2.024-9.86,0.316-13.897-2.973c-0.886-0.724-1.918,0.692-1.047,1.432
		c4.501,3.831,10.251,5.808,15.707,3.515C189.873,53.421,189.106,51.447,187.928,51.941z"/>
	<path d="M159.4,62.839c-0.54-0.671-1.412,0.294-0.896,0.965c2.503,3.233,5.671,5.936,9.787,5.584
		c3.891-0.332,7.236-3.495,9.882-6.307c0.711-0.76-0.375-1.917-1.097-1.182c-2.415,2.459-5,4.741-8.287,5.629
		C164.933,68.57,161.755,65.759,159.4,62.839z"/>
	<path d="M156.36,49.676c-2.555,3.419-6.414,3.215-9.792,1.874c-1.101-0.442-1.849,1.559-0.798,2.081
		c4.175,2.077,8.986,1.185,11.818-2.989C158.116,49.863,156.917,48.924,156.36,49.676z"/>
	<path d="M164.25,85.513c-0.829-0.809-1.889-1.035-3.036-1.526c-0.863-0.37-1.636,0.733-1.011,1.272
		c-4.132,0.164-7.983-0.932-11.828-2.498c0.563-0.323,0.452-1.369-0.349-1.358c-0.647,0.008-1.398,0.166-1.996,0.417
		c-0.44,0.185-1.011,0.7-0.612,1.227c0.334,0.441,0.816,0.456,1.331,0.46c0.304,0.002,0.499-0.153,0.608-0.357
		c-0.132,0.332-0.078,0.736,0.298,0.896c4.411,1.875,8.95,3.311,13.789,2.708c0.391-0.049,0.63-0.322,0.715-0.628
		c0.431,0.219,0.814,0.498,1.064,0.933c0.261,0.454,0.789,0.528,1.23,0.322c1.142-0.532,2.403-0.922,3.468-1.612
		c0.082,0.115,0.197,0.206,0.365,0.232c4.154,0.644,8.39,0.174,12.088-1.903c0.12-0.068,0.207-0.152,0.271-0.245
		c0.384,0.492,1.392,0.341,1.356-0.443c-0.062-1.405-1.26-2.601-2.668-2.615c-0.905-0.009-0.896,1.357,0,1.397
		c0.361,0.016,0.682,0.216,0.86,0.456c0.001,0.002,0.002,0.004,0.004,0.006c-0.188-0.065-0.404-0.056-0.626,0.069
		c-3.301,1.853-7.047,2.379-10.77,1.938c-0.068-0.649-0.962-1.217-1.631-0.637C166.373,84.715,165.26,85.092,164.25,85.513z
		 M147.421,83.018c0.007-0.021,0.006-0.045,0.011-0.067c0.014-0.003,0.028-0.007,0.042-0.01
		C147.456,82.966,147.437,82.991,147.421,83.018z"/>
	<path d="M170.439,91.125c-3.847,3.597-9.833,4.009-13.601,0.085c-0.641-0.667-1.628,0.333-1.01,1.009
		c4.286,4.687,11.292,4.225,15.79,0.084C172.41,91.576,171.224,90.392,170.439,91.125z"/>
	<path d="M172.945,32.503c3.568-0.079,7.118,0.031,10.619,0.764c3.854,0.808,6.751,3.025,9.509,5.736
		c2.078,2.043,5.297-1.177,3.193-3.193c-2.924-2.802-6.259-5.025-10.284-5.824c-4.291-0.852-8.778,0.343-13.037,0.823
		C171.887,30.927,171.828,32.528,172.945,32.503z"/>
	<path d="M138.866,36.213c3.598-1.675,7.145-3.191,11.067-3.889c4.208-0.749,8.226,0.093,12.239,1.327
		c2.575,0.792,3.591-3.12,1.1-3.991c-8.778-3.07-17.546,1.045-25.253,5.105C137.051,35.275,137.901,36.663,138.866,36.213z"/>
</g>
<path d="M-148.778,235.659c2.302,1.172,4.962,2.066,7.562,2.041c0.06,0,0.114-0.009,0.169-0.018c0.22,0.127,0.441,0.255,0.663,0.383
	c0.992,0.57,1.854-0.921,0.892-1.526c-0.4-0.251-0.794-0.496-1.185-0.731c-0.04-0.027-0.08-0.053-0.125-0.074
	c-2.411-1.438-4.713-2.456-7.723-2.006C-149.436,233.864-149.544,235.269-148.778,235.659z"/>
<path d="M-144.65,249.212c-1.192,0.249-2.392-0.132-3.588,0.078c-1.443,0.253-1.996,1.843-2.243,3.083
	c-0.122,0.613,0.275,1.275,0.958,1.258c1.899-0.049,3.065-1.28,4.734-1.964c0.353-0.145,0.555-0.421,0.63-0.721
	C-143.04,250.665-143.525,248.977-144.65,249.212z"/>
<path d="M-40.305,230.874c0.105-0.104,0.208-0.21,0.312-0.315c0.073-0.017,0.148-0.041,0.224-0.076
	c2.199-1.016,4.588-1.493,6.056-3.574c0.409-0.579-0.137-1.415-0.801-1.396c-1.359,0.036-2.634,0.272-3.778,1.042
	c-0.875,0.587-1.609,1.382-2.329,2.171c-0.045,0.021-0.094,0.039-0.139,0.062c-0.303,0.152-0.452,0.379-0.491,0.622
	c-0.083,0.089-0.167,0.179-0.251,0.266C-42.265,230.459-41.083,231.643-40.305,230.874z"/>
<path d="M-36.661,241.713c-0.497-0.303-0.958-0.018-1.126,0.395c-0.685,0.093-1.236,0.984-0.598,1.621
	c1.203,1.2,2.518,2.536,4.047,3.309c0.533,0.27,1.166,0.043,1.344-0.546c0.395-1.305,0.664-2.816-0.585-3.723
	C-34.461,242.127-35.724,242.285-36.661,241.713z M-34.533,244.21c-0.02-0.012,0.076,0.069,0.077,0.072
	c0.059,0.157,0.064,0.338,0.044,0.523c-0.371-0.28-0.728-0.589-1.074-0.91c0.191,0.051,0.383,0.102,0.576,0.157
	C-34.75,244.099-34.674,244.129-34.533,244.21z"/>
<g>
	<path d="M110.431,339.859c-0.943-2.083-3.702-4.332-5.89-2.85c-1.097,0.74-1.932,1.813-2.583,3.044
		C96.651,312.6,77.719,293,56.004,293c-22.803,0-42.232,21.418-46.537,50.499c-0.664-2.799-2.017-5.219-4.211-7.193
		c-0.344-0.312-0.7-0.606-1.086-0.894c-0.593-0.441-1.364,0.032-1.56,0.69c-2.539,8.236-0.13,15.072,5.475,19.845
		c-1.228,4.185-1.755,8.677-1.388,13.041c0.006,0.063,0.012,0.122,0.03,0.179c0.355,14.133,5.481,28.336,13.339,39.479
		c3.731,5.297,8.452,8.741,13.607,12.261c5.148,3.521,11.423,7.45,13.458,14.05c0.451,1.476,1.975,2.23,3.274,1.432
		c0.474-0.294,0.955-0.582,1.441-0.869c7.219-4.288,14.829-7.917,21.525-13.143c6.727-5.252,11.204-12.172,15.587-19.628
		c4.099-6.977,7.937-14.133,10.89-21.769c1.976-5.104,3.921-11.488,2.604-17.084c0.659-1.061,1.371-2.077,2.1-3.086
		c0.392-0.025,0.777-0.281,0.991-0.843c0.142-0.377,0.291-0.754,0.445-1.131c0.018-0.025,0.036-0.051,0.054-0.077
		c0.125-0.179,0.189-0.364,0.189-0.53c1.175-2.875,2.486-5.674,3.482-8.632C110.674,346.748,111.747,342.786,110.431,339.859z
		 M27.192,392.942c-0.139-0.5-0.273-1.002-0.403-1.507c0.102,0.137,0.208,0.277,0.316,0.417
		C27.152,392.212,27.177,392.577,27.192,392.942z M56.004,296.834c19.619,0,36.81,17.862,42.001,43.017
		c-0.243,0.268-0.383,0.615-0.334,1.025c0.598,5.029,1.467,10.218,1.466,15.355c-0.208,1.247-0.464,2.483-0.777,3.704
		c-0.564,0.307-1.033,0.837-1.258,1.527c-2.295,7.06-4.241,14.236-6.993,21.117c-0.113,0.281-0.226,0.563-0.344,0.844
		c-1.205,1.748-2.481,3.438-3.785,5.105c0.177-0.935,0.324-1.866,0.439-2.788c0.995-7.999,0.127-18.368-9.897-18.892
		c-7.528-0.393-14.412,5.012-22.022,3.532c-1.711-0.333-2.436,2.143-0.726,2.634c5.531,1.588,11.579,0.336,17.165-0.304
		c2.12-0.243,4.979-0.613,7.004,0.301c2.449,1.105,2.553,4.275,2.608,6.598c0.118,4.919-1.149,10.913-3.719,15.936
		c-1.396,1.502-3.352,2.191-6.034,2.394c-1.964,0.148-3.941-0.026-5.873-0.384c-0.85-0.158-1.686-0.427-2.523-0.677
		c-0.134-0.282-0.377-0.512-0.744-0.611c-1.366-0.375-2.766-0.602-4.105-0.937c-0.418-0.346-0.827-0.702-1.228-1.066
		c0.075-0.316,0.02-0.659-0.237-0.875c-0.119-0.1-0.24-0.189-0.36-0.28c0.187-0.539,0.003-1.205-0.675-1.327
		c-0.592-0.107-1.116-0.281-1.663-0.545c-0.686-0.331-1.279,0.011-1.472,0.541c-0.053-0.079-0.109-0.15-0.16-0.233
		c-0.415-0.677-1.228-0.44-1.465,0.116c-0.087,0.205-0.094,0.45,0.021,0.711c-0.218,0.292-0.252,0.702,0.061,0.975
		c-1.182,1.355-2.737,2.53-4.393,3.387c0.138,0.185,0.251,0.393,0.339,0.62c-1.226,0.085-2.452,0.192-3.684,0.274
		c-2.067,0.138-3.934-0.037-5.758-0.487c-1.27-1.766-2.486-3.58-3.811-5.301c-0.682-5.94-5.81-11.742-4.373-17.742
		c0.702-2.93,5.042-1.5,7.081-1.23c3.215,0.424,6.562,0.91,9.749,0.038c1.573-0.431,0.899-2.707-0.665-2.411
		c-6.612,1.252-16.944-7.364-20.939,1.591c-1.36,3.047-0.945,6.522-0.094,9.73c-3.481,0.099-7.308-3.823-9.895-8.276
		c-0.389-2.025-0.664-4.061-0.858-6.105l0.204-0.031c-0.183-1.184-0.342-2.447-0.474-3.753l-0.012,0.001
		c-0.203-3.687-0.238-7.396-0.322-11.118c0.053-1.408,0.138-2.829,0.271-4.245C15.45,318.953,34.05,296.834,56.004,296.834z
		 M4.284,338.326c2.687,2.396,4.039,5.847,4.217,9.7c0.015,0.315,0.168,0.521,0.365,0.641c-0.129,1.527-0.224,3.061-0.265,4.572
		l0.374,0.01c0,0.121-0.003,0.241-0.003,0.362c-0.125,0.139-0.23,0.31-0.305,0.523c0,0.006,0,0.006-0.006,0.012
		C4.041,350.012,2.771,345.386,4.284,338.326z M108.805,344.831c-0.795,5.066-3.494,9.533-5.338,14.191
		c-0.137,0.345-0.149,0.657-0.083,0.919c-0.498,0.741-0.985,1.489-1.447,2.256c-0.03-0.083-0.06-0.166-0.095-0.249
		c1.145-3.393,1.814-6.958,1.827-10.607c0.003-1.089-0.591-1.743-1.323-1.982c0-0.046-0.001-0.093-0.002-0.139l0.847-0.056
		c-0.029-0.444-0.07-0.882-0.111-1.326l-0.779,0.047c-0.05-0.983-0.141-1.964-0.282-2.928c0.145-0.564,0.309-1.124,0.499-1.672
		l0.003,0c0-0.002-0.001-0.004-0.001-0.006c0.519-1.499,1.224-2.91,2.241-4.052c1.274-1.425,3.048-0.083,3.784,1.214
		C109.25,341.68,109.013,343.482,108.805,344.831z"/>
	<path d="M76.169,344.942c-4.823,2.024-9.86,0.315-13.897-2.973c-0.886-0.725-1.917,0.692-1.047,1.431
		c4.502,3.831,10.252,5.808,15.707,3.516C78.114,346.421,77.347,344.447,76.169,344.942z"/>
	<path d="M53.561,353.839c-3.891,0.332-7.236,3.495-9.881,6.306c-0.712,0.76,0.374,1.917,1.097,1.182
		c2.414-2.459,5-4.741,8.287-5.628c3.855-1.042,7.034,1.77,9.389,4.689c0.54,0.671,1.413-0.294,0.896-0.965
		C60.845,356.19,57.677,353.487,53.561,353.839z"/>
	<path d="M52.327,366.094c-0.201,0.23-0.35,0.511-0.439,0.812C52.12,366.663,52.262,366.388,52.327,366.094z"/>
	<path d="M34.013,346.631c4.175,2.076,8.985,1.184,11.817-2.989c0.528-0.778-0.671-1.717-1.228-0.965
		c-2.556,3.418-6.415,3.215-9.792,1.874C33.71,344.108,32.962,346.109,34.013,346.631z"/>
	<path d="M43.392,340.812c0.071-0.292,0.108-0.591,0.112-0.88c0.03-0.072,0.056-0.157,0.076-0.238
		c0.22-0.894-0.161-1.783-0.877-2.176c-0.446-0.57-1.06-0.983-1.785-1.162c-1.861-0.456-3.769,0.799-4.26,2.803
		c-0.492,2.005,0.62,3.995,2.481,4.451C40.993,344.067,42.9,342.817,43.392,340.812z"/>
	<path d="M34.62,380.683c-0.755,0.469-0.075,1.646,0.698,1.194c4.623-2.705,8.706-2.582,13.724-1.35
		c3.361,0.825,6.735,1.372,10.188,0.822c2.67-0.426,5.189-1.715,7.751-2.53c4.219-1.343,5.97,0.497,6.587,4.658
		c0.174,1.167,2.213,0.893,2.064-0.279c-0.366-2.882-1.267-5.944-4.413-6.711c-2.905-0.708-6.292,1.077-8.922,2.051
		c-4.634,1.717-8.872,1.192-13.62,0.111C43.516,377.472,39.193,377.847,34.62,380.683z"/>
	<path d="M65.518,387.421c-3.994-1.795-7.936-1.154-12.036-0.058c-5.319,1.421-10.52,3.097-14.819-1.47
		c-0.627-0.667-1.605,0.325-0.999,0.999c3.023,3.357,6.69,4.34,11.086,3.655c5.228-0.814,10.487-3.723,15.73-1.35
		C65.679,389.739,66.725,387.963,65.518,387.421z"/>
	<path d="M43.947,330.407c-5.028,3.48-10.069,6.399-16.208,7.333c-0.842,0.129-0.646,1.583,0.202,1.491
		c6.213-0.679,12.242-2.925,17.218-6.75C46.352,331.563,45.245,329.509,43.947,330.407z"/>
	<path d="M79.371,338.489c-4.899-1.024-9.669-3.632-12.967-7.422c-1.041-1.197-2.795,0.557-1.74,1.739
		c1.092,1.225,2.365,2.306,3.754,3.242c-1.78,0.342-3.01,2.117-2.776,4.083c0.246,2.049,1.986,3.521,3.889,3.294
		c1.896-0.227,3.242-2.067,2.997-4.117c-0.051-0.428-0.171-0.828-0.34-1.195c2.244,0.981,4.629,1.637,6.971,1.939
		C80.052,340.168,80.241,338.671,79.371,338.489z"/>
	<path d="M24.405,332.042c9.413,2.042,17.677-2.267,25.015-7.775c2.065-1.55,0.128-5.069-2.067-3.536
		c-6.623,4.624-13.711,10.14-22.266,8.837C23.492,329.325,22.76,331.685,24.405,332.042z"/>
	<path d="M61.633,324.587c5,5.338,12.541,11.762,20.456,9.867c1.967-0.471,1.552-3.61-0.477-3.528
		c-7.154,0.289-13.169-3.28-18.357-7.96C62.158,321.978,60.618,323.503,61.633,324.587z"/>
	<path d="M44.854,316.687c6.63,3.602,14.51,3.356,21.648,1.518c1.059-0.272,0.609-1.909-0.451-1.636
		c-6.693,1.723-14.17,2.103-20.521-1.038C44.763,315.153,44.091,316.272,44.854,316.687z"/>
	<path d="M54.45,316.029c4.608,2.039,11.177-0.299,15.896-0.982c1.124-0.163,0.651-1.883-0.471-1.708
		c-2.372,0.367-4.729,0.826-7.099,1.209c-2.349,0.38-5.492,1.138-7.829,0.3C54.262,314.601,53.78,315.732,54.45,316.029z"/>
	<ellipse transform="matrix(0.5072 -0.8618 0.8618 0.5072 -287.2579 221.6847)" cx="50.225" cy="362.037" rx="1.62" ry="2.566"/>
	<ellipse transform="matrix(-0.3031 -0.953 0.953 -0.3031 -268.718 525.9883)" cx="57.971" cy="361.252" rx="1.621" ry="2.567"/>
	<path d="M21.594,356.314c0.247,0.756,1.451,0.427,1.193-0.33c-0.434-1.275-0.867-2.551-1.301-3.827
		c-0.245-0.721-1.387-0.417-1.147,0.316C20.757,353.754,21.176,355.034,21.594,356.314z"/>
	<path d="M23.386,355.594c0.328,0.684,1.353,0.086,1.017-0.594c-0.479-0.97-0.815-2.002-1.293-2.973
		c-0.327-0.663-1.302-0.083-0.986,0.577C22.592,353.581,22.917,354.617,23.386,355.594z"/>
	<path d="M24.72,351.49c-0.512-0.522-1.292,0.266-0.799,0.798c0.837,0.906,1.25,2.11,2.092,3.02
		c0.542,0.586,1.435-0.304,0.875-0.875C26.028,353.557,25.583,352.37,24.72,351.49z"/>
	<path d="M81.378,351.298c0.368,0.839,0.321,1.825,0.307,2.721c-0.011,0.729,1.142,0.729,1.13,0
		c-0.018-1.104-0.061-2.229-0.544-3.242C81.981,350.168,81.115,350.7,81.378,351.298z"/>
	<path d="M84.937,354.172c0.358-1.177,0.418-2.338,0.404-3.561c-0.008-0.69-1.062-0.69-1.07,0c-0.014,1.127-0.09,2.178-0.447,3.254
		C83.59,354.572,84.72,354.884,84.937,354.172z"/>
	<path d="M87.429,354.307c0.512-1.104,0.906-2.362,0.379-3.53c-0.24-0.532-1.167-0.143-0.945,0.398
		c0.348,0.847-0.031,1.788-0.42,2.556C86.108,354.391,87.122,354.969,87.429,354.307z"/>
	<path d="M47.031,348.171c0.571-0.721-0.442-1.749-1.02-1.02c-3.415,4.312-8.017,6.142-13.209,3.766
		c-0.777-0.355-1.458,0.789-0.675,1.155C37.841,354.744,43.186,353.027,47.031,348.171z"/>
	<path d="M73.157,350.771c-3.886,1.229-7.436,1.013-10.944-1.163c-0.777-0.482-1.481,0.735-0.713,1.219
		c3.794,2.393,7.81,2.701,12.057,1.393C74.48,351.935,74.083,350.478,73.157,350.771z"/>
	
		<ellipse transform="matrix(0.1186 0.9929 -0.9929 0.1186 397.0563 229.4804)" fill="#FFFFFF" cx="69.262" cy="338.401" rx="1.727" ry="1.601"/>
	
		<ellipse transform="matrix(0.1186 0.9929 -0.9929 0.1186 372.0786 258.116)" fill="#FFFFFF" cx="40.646" cy="338.645" rx="1.727" ry="1.601"/>
</g>
<g>
	<g>
		<path d="M109.92,486.455c-0.943-2.083-3.701-4.332-5.89-2.85c-1.097,0.74-1.931,1.813-2.583,3.044
			c-5.308-27.455-24.24-47.054-45.953-47.054c-22.804,0-42.234,21.419-46.537,50.499c-0.664-2.799-2.017-5.218-4.212-7.192
			c-0.344-0.312-0.7-0.606-1.085-0.894c-0.593-0.441-1.364,0.032-1.56,0.69c-2.388,7.748-0.396,14.256,4.515,18.974
			c-0.403,3.154-0.669,6.348-0.782,9.555c-2.163,14.628,2.155,33.253,9.389,42.417c0.082,0.104,0.167,0.205,0.249,0.311
			c0.055,0.092,0.105,0.188,0.16,0.281c0.37,0.631,0.757,1.254,1.152,1.873c0.576,1.51,1.192,2.926,1.694,4.129
			c2.651,6.346,6.071,12.355,10.126,17.91c4.529,6.205,12.696,14.887,20.912,14.494c1.128,0.959,2.277,1.895,3.452,2.795
			c0.652,0.969,1.276,1.945,1.869,2.932c0.315-0.287,0.631-0.576,0.947-0.865c0.712,0.484,1.766,0.262,2.346-0.312
			c10.812-10.725,23.947-19.186,31.935-32.475c5.001-8.32,7.715-17.83,9.408-27.322c1.527-8.562,2.324-17.303,2.631-26.057
			c0.703-0.254,1.294-0.847,1.38-1.779c0.047-0.514,0.092-1.031,0.134-1.551c0.142-0.2,0.281-0.402,0.424-0.602
			c0.392-0.025,0.778-0.281,0.991-0.844c0.142-0.377,0.291-0.754,0.445-1.131c0.077-0.204,0.16-0.409,0.242-0.606
			c1.175-2.876,2.486-5.674,3.483-8.632C110.164,493.343,111.237,489.381,109.92,486.455z M49.477,560.371
			c0.053,0.053,0.106,0.107,0.166,0.154c-0.073,0.09-0.146,0.176-0.219,0.264C49.445,560.648,49.462,560.51,49.477,560.371z
			 M54.289,565.555c-0.115-0.244-0.229-0.49-0.342-0.74c0.142,0.262,0.287,0.521,0.436,0.779
			C54.352,565.582,54.32,565.568,54.289,565.555z M55.495,443.429c20.646,0,38.614,19.776,42.725,47.023l0.006-0.001
			c0.016,3.415,0.047,6.901,0.051,10.432c-0.397,0.277-0.674,0.755-0.594,1.35c1.514,11.145-1.803,21.251-7.871,30.513
			c-0.104,0.158-0.213,0.314-0.319,0.473c0.027-0.709,0.027-1.416-0.012-2.121c-0.373-6.654-4.212-10.963-9.254-13.94
			c-2.346-2.526-5.239-4.563-8.402-5.87c-5.092-2.102-10.427-1.478-15.569,0.199c-1.746,0.57-1.019,3.299,0.762,2.765
			c8.085-2.427,17.046,1.812,21.705,8.616c5.237,7.646,4.162,16.928-1.629,23.875c-0.623,0.748-0.682,1.598-0.418,2.311
			c-5.134,6.4-10.405,12.637-16.966,17.518c-0.005,0-0.009,0-0.014,0c-2.353-2.207-4.255-5.555-5.585-7.871
			c-0.241-0.42-0.642-0.613-1.058-0.637c-0.24-0.838-0.918-1.531-2.049-1.531c-1.288,0-1.993,0.896-2.125,1.885
			c-0.612-0.221-1.443,0.115-1.514,0.979c-0.126,1.553-0.716,2.768-1.573,3.775c-0.687,0.266-1.356,0.543-1.927,0.879
			c-0.664-0.318-1.309-0.666-1.934-1.037c-0.153-0.186-0.309-0.367-0.463-0.549c-2.472-3.064-4.864-6.195-7.283-9.303
			c-1.22-1.828-2.553-3.578-4.011-5.236c-0.42-1.332-0.865-2.641-1.247-3.912c-0.85-2.826-1.702-5.686-2.325-8.584
			c0.051-0.164,0.089-0.336,0.11-0.518c0.312-2.623,0.27-5.062,0.996-7.654c0.723-2.578,1.997-4.975,3.503-7.176
			c0.917-1.341,1.985-2.552,3.171-3.562c1.27-0.77,2.585-1.521,3.879-2.307c2.009-0.729,4.214-0.867,6.544-0.143
			c1.564,0.486,2.118-1.825,0.662-2.399c-6.295-2.485-12.977-1.124-17.573,3.9c-0.753,0.823-1.481,1.765-2.168,2.783
			c-2.394,1.999-4.138,4.594-4.579,8.329c-0.208,1.764-0.204,3.518-0.058,5.262c-0.015,1.268,0.104,2.504,0.398,3.674
			c0.054,0.215,0.126,0.404,0.208,0.58c0.117,0.6,0.245,1.195,0.38,1.789c-1.167-2.15-2.164-4.473-3.038-6.889
			c-0.599-1.791-1.142-3.605-1.622-5.447c-2.492-9.567-3.456-19.456-5.312-29.16c0.039-0.538,0.074-1.075,0.125-1.61
			C14.939,465.548,33.539,443.429,55.495,443.429z M3.772,484.921c2.688,2.396,4.04,5.847,4.218,9.699
			c0.015,0.314,0.169,0.521,0.366,0.641c-0.065,0.77-0.123,1.539-0.166,2.312c-0.509-0.019-1.012,0.234-1.105,0.818
			c-0.061,0.377-0.115,0.755-0.171,1.134C3.32,495.688,2.407,491.299,3.772,484.921z M108.294,491.426
			c-0.671,4.276-2.697,8.126-4.421,12.023c0.128-4.692-0.232-9.441-1.784-13.812c0.511-1.411,1.198-2.733,2.161-3.815
			c1.275-1.424,3.049-0.083,3.784,1.214C108.74,488.276,108.502,490.078,108.294,491.426z"/>
		<path d="M43.3,505.988c-0.713,0.76,0.373,1.917,1.097,1.182c2.414-2.459,5-4.74,8.286-5.628c3.855-1.042,7.035,1.77,9.39,4.689
			c0.539,0.671,1.412-0.294,0.895-0.965c-2.502-3.233-5.67-5.936-9.786-5.584C49.29,500.013,45.944,503.176,43.3,505.988z"/>
		<ellipse transform="matrix(0.8619 0.5071 -0.5071 0.8619 264.4411 44.8732)" cx="49.845" cy="507.88" rx="2.567" ry="1.62"/>
		<ellipse transform="matrix(-0.303 -0.953 0.953 -0.303 -408.2258 715.6057)" cx="57.591" cy="507.095" rx="1.621" ry="2.566"/>
		<path d="M43.752,482.717c1.712,0.403,2.443-2.358,0.724-2.735c-7.739-1.719-13.218,3.042-16.079,10.236
			c-0.411,1.034,1.228,1.718,1.718,0.754C32.982,485.336,37.29,481.189,43.752,482.717z"/>
		<path d="M79.758,492.441c0.417,1.406,2.492,0.818,2.117-0.606c-1.056-4.006-2.995-7.52-6.505-9.654
			c-2.939-1.783-6.714-1.802-10.009-1.732c-1.117,0.026-1.111,1.77,0,1.802c2.859,0.09,5.719,0.313,8.34,1.591
			C77.112,485.508,78.69,488.87,79.758,492.441z"/>
		<path d="M46.065,489.93c0.338-0.881-1.098-1.508-1.473-0.646c-1.725,3.93-5.651,4.651-9.376,4.153
			c-1.216-0.166-1.474,1.955-0.289,2.211C39.634,496.671,44.249,494.659,46.065,489.93z"/>
		<path d="M76.039,493.79c-5.205,1.438-10.168-0.855-13.913-4.601c-0.822-0.824-2.056,0.46-1.251,1.298
			c4.154,4.337,9.819,6.983,15.704,5.354C77.855,495.49,77.309,493.438,76.039,493.79z"/>
		<path d="M27.807,481.407c1.982-4.016,4.127-8.549,9.069-8.468c4.284,0.071,8.486,0.22,12.777,0.053
			c2.294-0.086,2.403-3.405,0.105-3.688c-4.894-0.603-10.117-3.034-14.958-1.097c-4.545,1.822-7.052,7.687-8.935,11.941
			C25.28,481.488,27.13,482.766,27.807,481.407z"/>
		<path d="M61.125,472.087c7.217-1.538,18.064-2.95,19.977,6.675c0.446,2.25,3.389,1.39,3.583-0.59
			c1.361-14.35-15.909-10.492-24.197-8.462C58.97,470.081,59.624,472.411,61.125,472.087z"/>
		<path d="M65.814,487.765c0,2.064,1.608,3.731,3.59,3.731c1.976,0,3.584-1.667,3.584-3.731s-1.608-3.738-3.584-3.738
			C67.422,484.027,65.814,485.701,65.814,487.765z"/>
		<path d="M41.43,484.739c-0.59-0.446-1.313-0.712-2.097-0.712c-1.982,0-3.59,1.674-3.59,3.738s1.608,3.731,3.59,3.731
			c1.976,0,3.584-1.667,3.584-3.731c0-0.31-0.04-0.609-0.108-0.897c0.009-0.078,0.022-0.154,0.022-0.234
			C42.832,485.722,42.237,484.962,41.43,484.739z"/>
		<path d="M32.052,525.016c-0.713,2.488,0.454,5.078,1.382,7.33c0.819,1.986,1.514,3.939,1.81,5.975
			c-0.345,0.252-0.578,0.668-0.558,1.268c0.296,8.824,5.562,15.783,14.687,16.191c8.501,0.383,17.384-4.699,23.183-10.555
			c5.645-5.699,8.981-14.18,4.589-21.615c-2.489-4.214-8.285-5.767-12.732-6.603c-5.759-1.085-11.841-1.133-17.635-0.31
			C41.591,517.434,33.704,519.251,32.052,525.016z M41.999,544.773c0-0.203-0.003-0.406-0.007-0.609
			c0.035,0.025,0.073,0.047,0.109,0.07c-0.008,0.225-0.018,0.447-0.024,0.672C42.053,544.861,42.025,544.818,41.999,544.773z
			 M45.508,531.934c-0.103,0.076-0.193,0.168-0.274,0.27c-0.039-0.049-0.071-0.104-0.111-0.152
			c-0.059-0.072-0.131-0.127-0.202-0.182c0.027-0.043,0.052-0.086,0.073-0.131C45.164,531.805,45.337,531.867,45.508,531.934z
			 M61.124,537.844c-0.08-0.145-0.165-0.287-0.256-0.426c0.414,0.031,0.823,0.033,1.224,0.004
			C61.815,537.619,61.49,537.758,61.124,537.844z M51.503,543.178c0.001,0.18,0.002,0.361,0.003,0.541
			c-0.147-0.15-0.304-0.291-0.471-0.422C51.188,543.256,51.345,543.217,51.503,543.178z M41.467,536.893
			c0.002,0.006,0.003,0.01,0.004,0.014c-0.001,0-0.002,0-0.004,0.002C41.467,536.902,41.467,536.898,41.467,536.893z
			 M68.909,540.154c0.009-0.014,0.018-0.027,0.026-0.041c0,0.014,0,0.027,0,0.041C68.927,540.154,68.918,540.154,68.909,540.154z
			 M35.99,531.977c0.359,0.221,0.719,0.438,1.082,0.639c-0.255,0.166-0.511,0.332-0.767,0.5
			C36.199,532.736,36.094,532.357,35.99,531.977z M40.749,535.346c0.053-0.002,0.107-0.004,0.161-0.006
			c0.024,0.131,0.052,0.26,0.085,0.391c-0.15-0.111-0.326-0.207-0.515-0.305C40.57,535.408,40.66,535.383,40.749,535.346z
			 M42.629,527.865c0.073-0.127,0.143-0.254,0.209-0.381c0.062,0.082,0.127,0.16,0.192,0.238
			C42.889,527.75,42.755,527.799,42.629,527.865z M41.466,529.459c-0.008,0.004-0.016,0.006-0.024,0.008
			c0.008-0.008,0.017-0.016,0.025-0.025C41.467,529.447,41.466,529.453,41.466,529.459z M37.927,539.588
			c-0.05-0.428-0.231-0.766-0.48-1.02c-0.079-0.871-0.224-1.727-0.408-2.574c0.098-0.014,0.199-0.039,0.304-0.078
			c0.233-0.084,0.467-0.152,0.701-0.215c0.873,0.119,2.059,0.467,2.045,1.232c-0.014,0.801,0.092,2.133-0.454,2.787
			c-0.502,0.604,0.166,1.432,0.736,1.215c-0.017,0.748-0.093,1.541-0.523,2.115c-0.465-0.064-0.896,0.039-1.296,0.23
			C38.248,542.062,38.068,540.807,37.927,539.588z M53.059,546.773c-0.007-0.033-0.018-0.062-0.025-0.096
			c0.038-0.01,0.076-0.018,0.113-0.027C53.117,546.691,53.088,546.732,53.059,546.773z M64.233,547.264
			c-0.058,0.016-0.109,0.039-0.161,0.066c-0.045-0.094-0.089-0.189-0.136-0.279c-0.04-0.104-0.076-0.209-0.105-0.316
			c-0.011-0.037-0.02-0.076-0.028-0.113c0-0.002,0-0.002,0-0.004c-0.01-0.293-0.176-0.477-0.382-0.568
			c0.019-0.328,0.072-0.645,0.164-0.949c1.165-0.648,2.246-1.465,3.231-2.438c0.274-0.018,0.552-0.008,0.829,0.02
			c0.104,0.15,0.231,0.295,0.412,0.434c0.391,0.299,0.845,0.373,1.262,0.271C67.701,544.871,65.94,546.178,64.233,547.264z
			 M70.417,542.328c0.052-0.262,0.03-0.537-0.014-0.801c-0.04-0.234-0.15-0.436-0.281-0.625c0.017-0.719,0.041-1.443,0.095-2.166
			c0.461-0.234,0.906-0.498,1.336-0.783c0.331,0.701,0.553,1.449,0.751,2.248C71.722,540.939,71.088,541.648,70.417,542.328z
			 M75.341,528.057c-0.049,0.023-0.101,0.035-0.148,0.064c-0.069,0.043-0.141,0.084-0.211,0.127
			c0.101-0.129,0.198-0.262,0.292-0.398C75.297,527.918,75.319,527.988,75.341,528.057z M71.585,529.994
			c-0.007-0.004-0.014-0.01-0.021-0.014c0.017,0,0.032,0.002,0.048,0.004C71.603,529.986,71.594,529.99,71.585,529.994z
			 M41.169,521.17c0.326,1.854,0.265,3.766,0.239,5.639c-0.002,0.148,0.047,0.262,0.115,0.357c-0.621,1.143-1.531,2.113-2.764,2.506
			c-0.7-0.076-1.401-0.166-2.104-0.289c-0.201-0.035-0.389-0.027-0.563,0.01c-0.37-0.246-0.684-0.578-0.942-0.961
			c-0.033-0.184-0.069-0.367-0.098-0.553C34.482,524.264,37.667,522.295,41.169,521.17z M38.805,544.188
			c0.05-0.027,0.101-0.049,0.152-0.07c0.063,0.34,0.433,0.646,0.824,0.422c0.194-0.111,0.36-0.24,0.515-0.379
			c0.203,0.131,0.383,0.318,0.542,0.531c-0.023,0.963-0.092,1.941-0.375,2.846c-0.145-0.195-0.286-0.396-0.421-0.609
			C39.5,546.078,39.106,545.15,38.805,544.188z M41.422,548.66c0.159-0.398,0.28-0.805,0.364-1.219
			c0.33-0.348,0.684-0.67,1.062-0.955c0.306,0.109,0.655,0.111,0.962,0.006c0.07,0.615,0.502,1.178,1.307,1.174
			c0.958-0.004,1.917-0.008,2.875-0.012c0.25-0.002,0.476-0.076,0.67-0.195c0.269-0.029,0.532-0.072,0.798-0.107
			c0.504,0.795,0.841,1.725,1.055,2.594c0.047,0.189,0.17,0.289,0.312,0.332c0.08,0.516,0.132,1.035,0.165,1.557
			C47.399,552.016,43.921,551.189,41.422,548.66z M52.136,551.74c-0.073-0.918-0.203-1.83-0.432-2.723
			c0.066-0.008,0.128-0.027,0.187-0.057c-0.012,0.031-0.025,0.062-0.037,0.094c-0.194,0.541,0.652,0.76,0.852,0.234
			c0.378-0.992,0.914-1.857,1.549-2.566c0.021,0.004,0.039,0.012,0.061,0.014c2.721,0.369,5.256,0.068,7.533-0.816
			c0.213,0.207,0.417,0.439,0.611,0.699c0.033,0.471,0.113,0.943,0.235,1.398c0.014,0.055,0.041,0.094,0.066,0.135
			c-0.367,0.209-0.729,0.412-1.082,0.598C58.964,550.186,55.541,551.375,52.136,551.74z M74.514,526.154
			c-0.555,1.047-1.3,1.994-2.468,2.324c-0.534,0.152-1.061,0.072-1.56-0.137c-0.292-0.467-0.772-0.83-1.432-0.949
			c-0.111-0.098-0.217-0.197-0.321-0.297c0.093-0.236,0.181-0.477,0.261-0.721c0.207-0.633-0.371-1.01-0.878-0.922
			c0.103-1.35,0.114-2.707,0.057-4.057C70.887,522.344,73.153,523.795,74.514,526.154z M65.628,520.664
			c0.491,0.115,0.97,0.244,1.442,0.383c0,0.004-0.003,0.008-0.003,0.012c-0.003,0.055-0.005,0.109-0.007,0.162
			c-0.292-0.062-0.621,0.088-0.602,0.477c0.021,0.43,0.128,1.047,0.522,1.309c-0.063,1.41-0.152,2.805-0.387,4.199
			c-3.294-0.115-6.588,0.234-9.882,0.604c-0.286-0.236-0.565-0.486-0.834-0.746c0.274-0.803,0.399-1.736,0.331-2.809
			c-0.03-0.473-0.41-0.709-0.775-0.705c-0.018-1.387-0.035-2.771-0.052-4.157C58.853,519.472,62.325,519.893,65.628,520.664z
			 M54.292,519.372c-0.022,1.841-0.045,3.681-0.069,5.521c-0.004,0.33,0.211,0.514,0.461,0.568
			c-0.012,0.092-0.026,0.182-0.042,0.271c-0.001,0-0.002-0.002-0.004-0.004c-0.449-0.545-1.405,0.189-0.981,0.758
			c0.17,0.229,0.352,0.459,0.538,0.688c-0.118,0.242-0.256,0.465-0.413,0.674c-0.2,0.07-0.385,0.184-0.545,0.33
			c-2.459,0.238-4.918,0.385-7.38,0.256c-0.999-0.57-1.86-1.348-2.472-2.297c0.013-0.377-0.341-0.611-0.699-0.604
			c-0.028-1.57-0.1-3.152-0.427-4.684c1.719-0.467,3.429-0.754,4.734-0.951C49.377,519.538,51.831,519.369,54.292,519.372z"/>
		<path d="M20.879,523.41c-0.34-5.417,1.336-10.379,7.2-11.755c0.928-0.218,0.522-1.561-0.388-1.405
			c-6.166,1.052-11.301,7.233-9.994,13.592C18.065,525.629,20.994,525.232,20.879,523.41z"/>
		<path d="M78.478,510.718c5.675,1.088,10.968,5.548,10.994,11.735c0.01,2.502,4.026,1.83,3.27-0.443
			c-1.07-3.218-2.238-6.058-4.679-8.497c-2.434-2.431-5.828-3.784-9.186-4.244C77.945,509.141,77.51,510.533,78.478,510.718z"/>
	</g>
	
		<ellipse transform="matrix(0.1186 0.9929 -0.9929 0.1186 547.1617 361.8813)" fill="#FFFFFF" cx="69.734" cy="489.155" rx="1.727" ry="1.602"/>
	
		<ellipse transform="matrix(0.1185 0.993 -0.993 0.1185 521.0701 391.8472)" fill="#FFFFFF" cx="39.84" cy="489.399" rx="1.727" ry="1.601"/>
</g>
</svg>
