<?xml version="1.0" encoding="utf-8"?>
<!-- Generator: Adobe Illustrator 16.0.0, SVG Export Plug-In . SVG Version: 6.00 Build 0)  -->
<!DOCTYPE svg PUBLIC "-//W3C//DTD SVG 1.1//EN" "http://www.w3.org/Graphics/SVG/1.1/DTD/svg11.dtd">
<svg version="1.1" id="Layer_1" xmlns="http://www.w3.org/2000/svg" xmlns:xlink="http://www.w3.org/1999/xlink" x="0px" y="0px"
	 width="378.97px" height="633.882px" viewBox="0 0 378.97 633.882" enable-background="new 0 0 378.97 633.882"
	 xml:space="preserve">
<g>
	<path d="M115.475,212.883c-0.976-2.083-3.83-4.332-6.094-2.85c-1.162,0.758-2.038,1.865-2.718,3.133
		c-5.461-27.501-25.043-47.143-47.5-47.143c-23.603,0-43.71,21.498-48.109,50.662c-0.671-2.869-2.083-5.343-4.398-7.355
		c-0.356-0.313-0.724-0.607-1.123-0.895c-0.614-0.441-1.412,0.032-1.614,0.69c-2.626,8.236-0.135,15.072,5.664,19.845
		c-1.27,4.185-1.816,8.677-1.436,13.041c0.006,0.064,0.013,0.122,0.031,0.179c0.368,14.126,5.671,28.336,13.802,39.479
		c3.86,5.297,8.745,8.741,14.078,12.261c5.327,3.521,11.82,7.45,13.925,14.05c0.466,1.476,2.043,2.23,3.387,1.432
		c0.491-0.294,0.988-0.582,1.492-0.869c7.468-4.288,15.342-7.917,22.271-13.143c6.959-5.252,11.592-12.172,16.127-19.628
		c4.241-6.977,8.211-14.133,11.268-21.769c2.044-5.104,4.057-11.488,2.694-17.084c0.681-1.061,1.417-2.077,2.172-3.086
		c0.405-0.025,0.804-0.281,1.025-0.843c0.147-0.377,0.301-0.754,0.46-1.131c0.018-0.025,0.037-0.051,0.055-0.076
		c0.129-0.179,0.196-0.364,0.196-0.53c1.215-2.875,2.571-5.674,3.602-8.632C115.726,219.771,116.837,215.81,115.475,212.883z
		 M57.13,243.507c6.947,0.85,13.299-1.885,19.645-4.434c2.663-1.074,5.431-1.872,8.193-2.601c0.184-0.051,0.375-0.096,0.558-0.147
		c0.049,0.077,0.092,0.16,0.135,0.243c-0.19,1.118-0.564,2.249-0.97,3.348c-7.573,8.702-17.926,11.36-28.377,10.089
		c-8.236-1.003-16.533-4.434-23.572-9.271c-0.215-0.447-0.405-0.914-0.577-1.393c0-0.518,0.012-1.042,0.019-1.572
		c7.192,2.817,14.729,6.479,22.142,2.594c0.233-0.128,0.43-0.268,0.577-0.434C54.455,241.341,55.24,243.271,57.13,243.507z
		 M66.14,257.557c0-0.096,0.03-0.236,0.08-0.39c0.251,0.224,0.65,0.25,0.816-0.14c0.742-1.706,0.841-3.431,0.816-5.277
		c0-0.116-0.031-0.211-0.074-0.282c2.958-0.523,5.818-1.444,8.524-2.805c-3.044,3.406-6.376,6.824-10.236,9.124
		C66.109,257.729,66.14,257.653,66.14,257.557z M66.839,251.75c-0.012,0.971-0.042,1.917-0.215,2.843
		c-0.178,0.089-0.331,0.306-0.417,0.479c-0.208,0.396-0.38,0.824-0.534,1.246c-0.147,0.39-0.301,0.818-0.307,1.24
		c-0.006,0.281,0.221,0.409,0.429,0.383c-1.816,1.048-3.743,1.847-5.805,2.275c-0.982,0.204-1.952,0.281-2.903,0.243
		c0.172-0.039,0.319-0.179,0.319-0.416c0-0.671,0-1.342,0.006-2.019c0.117-0.102,0.196-0.255,0.19-0.466
		c-0.024-1.962-0.16-3.885-0.62-5.776c3.332,0.357,6.646,0.326,9.868-0.16C66.845,251.66,66.839,251.705,66.839,251.75z
		 M55.823,251.641c0.479,1.942,0.571,3.904,0.546,5.917c-0.006,0.211,0.074,0.364,0.19,0.466c0,0.677,0.006,1.348,0.006,2.019
		c0,0.211,0.117,0.345,0.264,0.402c-1.123-0.063-2.222-0.287-3.295-0.632c-1.964-0.632-3.842-1.68-5.603-2.952v-0.006
		c0.006-0.039,0.012-0.083,0.012-0.128c-0.006-2.281-0.019-4.562-0.031-6.843C50.521,250.695,53.172,251.289,55.823,251.641z
		 M46.9,256.081c-1.037-0.817-2.025-1.699-2.97-2.613c0.031-0.141-0.012-0.294-0.141-0.428c-0.976-0.99-2.013-1.949-3.056-2.901
		c-0.405-0.459-0.804-0.907-1.185-1.348c-0.153-0.173-0.331-0.23-0.497-0.205c-1.62-1.501-3.185-3.067-4.48-4.824
		c3.867,2.408,8.052,4.396,12.36,5.808C46.918,251.743,46.906,253.909,46.9,256.081z M38.505,249.43
		c0.024,0.102,0.067,0.198,0.147,0.294c3.817,4.491,8.451,9.257,13.968,11.251c0.031,0.319,0.251,0.607,0.645,0.607
		c0.227,0,0.393-0.095,0.497-0.236c1.835,0.524,3.756,0.735,5.781,0.524c8.211-0.85,14.931-8.511,20.024-14.53
		c0.19-0.223,0.239-0.485,0.178-0.716c1.228-0.836,2.412-1.782,3.547-2.85c-0.884,2.62-1.805,5.233-2.787,7.821
		c-2.688,7.125-5.087,14.581-9.187,20.989c-0.712,1.112-1.11,1.668-2.197,2.78c-0.172,0.166-0.344,0.332-0.521,0.492
		c-0.006,0.007-0.012,0.013-0.019,0.013c-0.043,0.032-0.11,0.07-0.196,0.134c-0.092,0.064-0.166,0.115-0.209,0.154
		c-0.037-0.045-0.08-0.077-0.116-0.116c0-0.07-0.737-1.073-0.866-1.284c-0.472-0.792-0.865-1.643-1.196-2.505
		c-0.117-0.307-0.258-0.582-0.417-0.831c0.552-0.665,0.448-1.865-0.571-2.134c-3.787-1.003-7.825-0.952-10.243-4.722
		c-0.43-0.677-1.27-0.44-1.516,0.116c-0.123-0.013-0.252,0.032-0.387,0.134c-2.492,1.987-5.315,2.479-8.174,3.59
		c-0.663,0.256-0.933,0.837-0.896,1.387c-0.246,0.281-0.448,0.62-0.608,1.009c-0.423,1.048-1.019,2.69-1.89,3.565
		c-0.055-0.058-0.251-0.186-0.595-0.581c-1.829-2.102-2.829-5.239-3.633-7.891c-1.191-3.929-2.117-8.044-2.927-12.165
		c-0.534-2.671-1.019-5.348-1.504-7.974c-0.221-1.189-0.344-2.358-0.405-3.527c0.172,0.122,0.337,0.236,0.509,0.351
		C34.221,245.207,36.301,247.354,38.505,249.43z M59.162,169.857c20.326,0,38.134,17.85,43.517,42.993
		c-0.255,0.27-0.405,0.625-0.35,1.049c0.633,4.93,1.497,10.031,1.512,15.081c-0.222,1.34-0.507,2.667-0.855,3.979
		c-0.583,0.307-1.068,0.837-1.301,1.527c-2.375,7.06-4.388,14.236-7.235,21.117c-0.117,0.281-0.233,0.563-0.356,0.844
		c-1.952,2.735-4.075,5.335-6.223,7.917c0.19-2.837,0.596-5.693,0.503-8.466c-0.006-0.135-0.019-0.256-0.043-0.377
		c2.32-6.542,4.345-13.909,4.511-20.81c0.135-5.687-4.946-6.453-9.144-5.399c-0.859,0.217-1.706,0.473-2.541,0.753
		c-6.45,2.16-12.256,5.981-18.792,7.814c-1.725,0.479-3.461,0.575-5.235,0.537c-0.798-0.013-1.387,0.262-1.773,0.703
		c0.325-1.373-1.025-3.047-2.651-2.753c-6.13,1.099-10.476-3.131-15.895-5.188c-0.724-0.275-1.455-0.639-2.191-1.01
		c-2.056-1.029-4.161-2.089-6.438-1.438c-3.67,1.048-3.909,5.495-4.02,8.728c-0.153,4.632,0.896,9.245,1.854,13.737
		c0.251,1.163,0.491,2.345,0.73,3.54c-3.846,0.852-8.278-3.41-11.173-8.267c-0.396-1.998-0.679-4.005-0.879-6.022l0.192-0.031
		c-0.189-1.189-0.354-2.446-0.488-3.737c-0.217-3.718-0.255-7.461-0.343-11.218c0.056-1.374,0.142-2.76,0.275-4.143
		C17.135,191.979,36.409,169.857,59.162,169.857z M5.647,211.349c2.78,2.396,4.179,5.847,4.363,9.699
		c0.017,0.348,0.206,0.568,0.442,0.678c-0.132,1.516-0.229,3.037-0.271,4.533l0.381,0.011c0,0.1-0.002,0.2-0.002,0.299
		c-0.157,0.149-0.289,0.341-0.378,0.587c0,0.006,0,0.006-0.006,0.013C5.396,223.036,4.083,218.41,5.647,211.349z M113.793,217.854
		c-0.822,5.067-3.615,9.533-5.523,14.191c-0.141,0.345-0.153,0.658-0.086,0.92c-0.516,0.741-1.019,1.489-1.497,2.256
		c-0.031-0.083-0.062-0.166-0.099-0.249c1.185-3.393,1.878-6.958,1.891-10.607c0.004-1.118-0.645-1.778-1.43-2.001
		c0-0.04-0.001-0.081-0.002-0.121l0.872-0.06c-0.032-0.466-0.077-0.932-0.122-1.391l-0.799,0.078c-0.05-0.92-0.135-1.84-0.265-2.744
		c0.557-2.158,1.405-4.278,2.876-5.875c1.319-1.425,3.154-0.083,3.916,1.214C114.253,214.704,114.008,216.506,113.793,217.854z"/>
	<path d="M64.814,199.714c6.615-3.271,16.778-7.315,21.007,1.54c0.988,2.07,3.627,0.511,3.326-1.457
		c-2.222-14.242-18.006-6.243-25.536-2.23C62.23,198.302,63.439,200.398,64.814,199.714z"/>
	<path d="M78.726,206.941c-2.939-1.783-6.713-1.802-10.009-1.731c-1.117,0.025-1.111,1.77,0,1.802c2.86,0.089,5.72,0.313,8.34,1.591
		c3.412,1.667,4.989,5.028,6.057,8.6c0.417,1.406,2.492,0.818,2.117-0.607C84.176,212.589,82.237,209.075,78.726,206.941z"/>
	<path d="M79.395,218.55c-5.204,1.438-10.169-0.856-13.912-4.6c-0.823-0.824-2.056,0.459-1.252,1.297
		c4.155,4.338,9.819,6.983,15.704,5.354C81.212,220.25,80.666,218.199,79.395,218.55z"/>
	<path d="M76.345,212.525c0-2.064-1.608-3.738-3.584-3.738c-1.982,0-3.59,1.674-3.59,3.738c0,2.063,1.608,3.731,3.59,3.731
		C74.737,216.256,76.345,214.589,76.345,212.525z M72.074,211.394c0-1.086,0.847-1.968,1.891-1.968c1.037,0,1.884,0.882,1.884,1.968
		c0,1.086-0.847,1.961-1.884,1.961C72.92,213.355,72.074,212.48,72.074,211.394z"/>
	<path d="M50.509,228.862c-0.559-0.67-1.461,0.294-0.927,0.965c2.59,3.233,5.867,5.935,10.126,5.584
		c4.026-0.332,7.487-3.495,10.224-6.306c0.736-0.76-0.387-1.917-1.135-1.182c-2.498,2.46-5.173,4.741-8.573,5.629
		C56.234,234.594,52.945,231.783,50.509,228.862z"/>
	<path d="M29.6,203.625c2.848-3.457,5.971-7.379,10.764-6.172c4.155,1.048,8.211,2.153,12.427,2.971
		c2.252,0.441,3.118-2.767,0.945-3.565c-4.627-1.706-9.156-5.265-14.312-4.485c-4.842,0.735-8.623,5.872-11.427,9.584
		C27.121,203.126,28.63,204.794,29.6,203.625z"/>
	<path d="M47.95,214.046c-1.725,3.929-5.652,4.651-9.377,4.153c-1.215-0.166-1.473,1.955-0.289,2.211
		c4.707,1.022,9.322-0.99,11.139-5.718C49.76,213.809,48.324,213.183,47.95,214.046z"/>
	<path d="M47.109,207.478c1.712,0.402,2.442-2.358,0.724-2.735c-7.739-1.718-13.219,3.042-16.079,10.236
		c-0.411,1.035,1.228,1.719,1.719,0.754C36.338,210.097,40.646,205.951,47.109,207.478z"/>
	<path d="M44.304,213.355c-1.043,0-1.884-0.875-1.884-1.961c0-1.086,0.841-1.968,1.884-1.968c0.16,0,0.319,0.019,0.466,0.064
		c-0.589-0.441-1.307-0.703-2.08-0.703c-1.982,0-3.59,1.674-3.59,3.738c0,2.063,1.608,3.731,3.59,3.731
		c1.976,0,3.584-1.667,3.584-3.731c0-0.301-0.037-0.601-0.104-0.882C46.053,212.615,45.268,213.355,44.304,213.355z"/>
	<path d="M44.771,209.49c0.687,0.505,1.197,1.265,1.399,2.153c0.012-0.077,0.018-0.167,0.018-0.25
		C46.188,210.474,45.587,209.701,44.771,209.49z"/>
	<path d="M23.381,237.094c-2.616-3.556-1.61-7.594,2.163-9.786c0.614-0.356,0.074-1.261-0.552-0.944
		c-4.559,2.302-5.937,7.306-2.948,11.512C22.62,238.686,23.972,237.896,23.381,237.094z"/>
	<path d="M90.577,227.329c3.456,2.334,4.905,7.27,3.007,11.03c-0.464,0.918,0.921,1.728,1.379,0.806
		c2.204-4.438,0.586-10.388-3.809-12.823C90.503,225.983,89.972,226.92,90.577,227.329z"/>
	<path d="M4.966,196.471c-0.623-1.287-1.247-2.574-1.87-3.861c-0.399-0.825-1.658-0.1-1.234,0.722
		c0.654,1.269,1.309,2.538,1.963,3.806C4.218,197.9,5.334,197.231,4.966,196.471z"/>
	<path d="M106.925,194.762c1.824-1.192,3.691-2.374,5.274-3.884c0.611-0.583-0.325-1.521-0.926-0.926
		c-1.48,1.465-3.233,2.615-4.948,3.783C105.695,194.163,106.278,195.185,106.925,194.762z"/>
	<path d="M96.158,170.364c1.082-1.048,2.164-2.096,3.245-3.144c0.585-0.567-0.326-1.478-0.892-0.893
		c-1.048,1.082-2.096,2.164-3.144,3.246C94.866,170.092,95.64,170.866,96.158,170.364z"/>
	<path d="M14.162,181.737c0.337,0.609,1.187,0.075,0.914-0.534c-1.171-2.609-2.456-5.169-3.699-7.746
		c-0.382-0.791-1.59-0.096-1.183,0.691C11.505,176.683,12.78,179.24,14.162,181.737z"/>
	<path d="M33.242,166.925c0.243,0.677,1.307,0.404,1.089-0.301c-0.595-1.929-1.189-3.858-1.795-5.784
		c-0.268-0.851-1.628-0.471-1.333,0.368C31.876,163.116,32.559,165.021,33.242,166.925z"/>
	<path d="M54.384,158.154c1.211-2.563,1.394-5.196,1.413-7.992c0.006-0.891-1.386-0.891-1.381,0
		c0.013,2.537-0.068,4.997-1.143,7.343C52.932,158.251,54.028,158.906,54.384,158.154z"/>
	<path d="M73.316,165.182c1.155-2.305,2.02-4.674,2.672-7.167c0.228-0.871-1.129-1.242-1.344-0.371
		c-0.59,2.392-1.366,4.668-2.439,6.889C71.848,165.274,72.943,165.926,73.316,165.182z"/>
</g>
<g>
	<path d="M242.698,215.093c-0.976-2.083-3.829-4.332-6.094-2.85c-1.162,0.758-2.039,1.865-2.718,3.133
		c-5.462-27.501-25.044-47.143-47.5-47.143c-23.603,0-43.71,21.498-48.109,50.662c-0.672-2.869-2.083-5.342-4.398-7.354
		c-0.356-0.313-0.724-0.607-1.123-0.895c-0.614-0.441-1.412,0.032-1.614,0.69c-2.626,8.236-0.135,15.072,5.665,19.845
		c-1.271,4.185-1.816,8.677-1.436,13.04c0.006,0.064,0.012,0.122,0.031,0.179c0.368,14.127,5.67,28.337,13.802,39.48
		c3.86,5.296,8.745,8.74,14.078,12.261c5.327,3.521,11.82,7.45,13.925,14.049c0.467,1.477,2.043,2.23,3.388,1.432
		c0.491-0.294,0.988-0.582,1.491-0.869c7.469-4.287,15.343-7.917,22.271-13.143c6.959-5.252,11.593-12.171,16.128-19.628
		c4.24-6.977,8.211-14.133,11.267-21.769c2.043-5.105,4.057-11.488,2.694-17.085c0.681-1.061,1.417-2.077,2.172-3.086
		c0.405-0.025,0.805-0.281,1.025-0.843c0.147-0.377,0.301-0.754,0.46-1.131c0.019-0.025,0.037-0.051,0.056-0.076
		c0.128-0.179,0.196-0.365,0.196-0.53c1.215-2.875,2.571-5.674,3.602-8.632C242.95,221.981,244.061,218.02,242.698,215.093z
		 M184.354,245.717c6.947,0.85,13.298-1.885,19.644-4.434c2.664-1.073,5.432-1.872,8.193-2.601c0.184-0.051,0.375-0.096,0.559-0.147
		c0.049,0.077,0.092,0.16,0.135,0.243c-0.19,1.118-0.564,2.249-0.97,3.348c-7.573,8.703-17.925,11.36-28.377,10.089
		c-8.236-1.003-16.533-4.435-23.572-9.271c-0.215-0.447-0.405-0.913-0.577-1.393c0-0.517,0.012-1.042,0.019-1.572
		c7.192,2.818,14.729,6.479,22.142,2.595c0.233-0.128,0.43-0.269,0.577-0.435C181.679,243.551,182.464,245.481,184.354,245.717z
		 M193.363,259.767c0-0.095,0.031-0.236,0.08-0.389c0.252,0.223,0.651,0.249,0.816-0.141c0.742-1.706,0.841-3.431,0.816-5.277
		c0-0.115-0.031-0.211-0.074-0.281c2.958-0.524,5.818-1.445,8.524-2.806c-3.043,3.406-6.376,6.824-10.236,9.125
		C193.333,259.94,193.363,259.863,193.363,259.767z M194.063,253.959c-0.012,0.971-0.043,1.917-0.215,2.843
		c-0.178,0.089-0.331,0.307-0.417,0.479c-0.209,0.396-0.381,0.824-0.534,1.246c-0.147,0.39-0.301,0.818-0.307,1.239
		c-0.006,0.281,0.221,0.409,0.43,0.384c-1.817,1.048-3.744,1.846-5.806,2.274c-0.981,0.205-1.951,0.281-2.902,0.243
		c0.172-0.038,0.319-0.179,0.319-0.415c0-0.671,0-1.342,0.006-2.019c0.116-0.103,0.196-0.256,0.19-0.467
		c-0.024-1.961-0.159-3.885-0.62-5.776c3.333,0.358,6.646,0.326,9.868-0.16C194.069,253.87,194.063,253.915,194.063,253.959z
		 M183.047,253.851c0.479,1.942,0.57,3.904,0.546,5.917c-0.006,0.211,0.074,0.364,0.19,0.467c0,0.677,0.006,1.348,0.006,2.019
		c0,0.211,0.117,0.345,0.264,0.402c-1.123-0.064-2.222-0.288-3.296-0.632c-1.963-0.633-3.842-1.681-5.603-2.952v-0.006
		c0.006-0.038,0.012-0.083,0.012-0.128c-0.006-2.28-0.019-4.562-0.031-6.843C177.745,252.905,180.396,253.5,183.047,253.851z
		 M174.124,258.292c-1.037-0.818-2.025-1.7-2.97-2.613c0.031-0.14-0.012-0.294-0.141-0.428c-0.976-0.99-2.013-1.949-3.056-2.901
		c-0.405-0.46-0.804-0.907-1.185-1.349c-0.154-0.172-0.332-0.23-0.497-0.205c-1.62-1.501-3.185-3.066-4.48-4.824
		c3.866,2.409,8.052,4.396,12.36,5.808C174.143,253.953,174.13,256.119,174.124,258.292z M165.729,251.64
		c0.025,0.103,0.067,0.198,0.147,0.294c3.817,4.492,8.451,9.258,13.967,11.252c0.031,0.319,0.252,0.607,0.645,0.607
		c0.227,0,0.393-0.096,0.497-0.236c1.835,0.523,3.756,0.734,5.781,0.523c8.211-0.85,14.931-8.51,20.025-14.529
		c0.189-0.224,0.239-0.486,0.178-0.716c1.227-0.837,2.412-1.783,3.547-2.85c-0.884,2.619-1.804,5.232-2.787,7.82
		c-2.688,7.125-5.087,14.581-9.187,20.989c-0.712,1.112-1.111,1.668-2.197,2.779c-0.172,0.167-0.343,0.333-0.521,0.492
		c-0.006,0.006-0.012,0.013-0.019,0.013c-0.043,0.032-0.11,0.07-0.196,0.134c-0.092,0.064-0.166,0.115-0.208,0.153
		c-0.037-0.045-0.08-0.077-0.117-0.115c0-0.071-0.736-1.074-0.865-1.285c-0.473-0.792-0.866-1.642-1.197-2.505
		c-0.117-0.306-0.258-0.581-0.417-0.83c0.553-0.665,0.448-1.866-0.57-2.134c-3.787-1.003-7.825-0.952-10.243-4.721
		c-0.43-0.678-1.271-0.441-1.516,0.115c-0.123-0.013-0.252,0.032-0.387,0.134c-2.491,1.987-5.314,2.479-8.174,3.591
		c-0.663,0.256-0.933,0.836-0.896,1.386c-0.245,0.281-0.448,0.62-0.607,1.01c-0.423,1.047-1.019,2.69-1.89,3.565
		c-0.055-0.057-0.251-0.185-0.595-0.582c-1.829-2.102-2.829-5.239-3.633-7.89c-1.19-3.93-2.117-8.045-2.927-12.166
		c-0.534-2.671-1.019-5.348-1.504-7.974c-0.221-1.188-0.343-2.357-0.405-3.527c0.172,0.121,0.337,0.237,0.51,0.352
		C161.445,247.417,163.525,249.563,165.729,251.64z M186.386,172.067c20.326,0,38.133,17.85,43.517,42.994
		c-0.255,0.27-0.404,0.624-0.35,1.048c0.633,4.929,1.496,10.029,1.512,15.078c-0.222,1.341-0.507,2.668-0.855,3.981
		c-0.583,0.307-1.067,0.837-1.301,1.527c-2.375,7.06-4.388,14.235-7.235,21.117c-0.117,0.281-0.233,0.562-0.356,0.843
		c-1.951,2.734-4.075,5.335-6.223,7.917c0.19-2.837,0.595-5.693,0.503-8.466c-0.006-0.134-0.019-0.255-0.043-0.376
		c2.32-6.543,4.345-13.91,4.511-20.811c0.135-5.687-4.947-6.453-9.144-5.398c-0.859,0.217-1.706,0.473-2.541,0.753
		c-6.45,2.16-12.256,5.98-18.791,7.814c-1.725,0.479-3.461,0.575-5.235,0.537c-0.798-0.013-1.387,0.262-1.774,0.703
		c0.325-1.374-1.024-3.048-2.651-2.754c-6.131,1.1-10.476-3.13-15.895-5.188c-0.724-0.274-1.455-0.639-2.191-1.009
		c-2.056-1.029-4.161-2.089-6.438-1.438c-3.67,1.048-3.909,5.495-4.02,8.728c-0.153,4.632,0.896,9.246,1.853,13.737
		c0.252,1.163,0.491,2.345,0.73,3.54c-3.845,0.852-8.277-3.409-11.172-8.265c-0.396-2-0.68-4.011-0.88-6.031l0.192-0.031
		c-0.188-1.177-0.352-2.428-0.486-3.717c-0.218-3.726-0.256-7.478-0.344-11.244c0.056-1.37,0.142-2.753,0.275-4.131
		C144.359,194.189,163.632,172.067,186.386,172.067z M132.872,213.56c2.78,2.396,4.179,5.847,4.363,9.699
		c0.017,0.348,0.206,0.568,0.441,0.678c-0.131,1.515-0.229,3.036-0.271,4.533l0.382,0.011c0,0.1-0.002,0.2-0.002,0.299
		c-0.157,0.148-0.29,0.34-0.378,0.587c0,0.006,0,0.006-0.006,0.013C132.62,225.246,131.307,220.62,132.872,213.56z M241.017,220.064
		c-0.822,5.067-3.615,9.533-5.523,14.191c-0.141,0.345-0.153,0.658-0.085,0.92c-0.516,0.741-1.019,1.489-1.498,2.255
		c-0.03-0.083-0.062-0.166-0.099-0.249c1.185-3.393,1.878-6.958,1.891-10.606c0.004-1.118-0.645-1.778-1.429-2.001
		c-0.001-0.04-0.002-0.081-0.002-0.121l0.871-0.06c-0.032-0.466-0.077-0.932-0.122-1.391l-0.798,0.078
		c-0.051-0.921-0.136-1.841-0.266-2.745c0.558-2.158,1.405-4.278,2.876-5.875c1.32-1.425,3.155-0.083,3.916,1.214
		C241.477,216.914,241.232,218.716,241.017,220.064z"/>
	<path d="M192.038,201.925c6.616-3.271,16.778-7.315,21.007,1.54c0.988,2.07,3.627,0.511,3.327-1.457
		c-2.222-14.242-18.006-6.242-25.536-2.23C189.454,200.513,190.663,202.608,192.038,201.925z"/>
	<path d="M206.619,220.76c-5.204,1.438-10.169-0.856-13.913-4.6c-0.822-0.824-2.056,0.46-1.251,1.297
		c4.154,4.338,9.818,6.984,15.704,5.354C208.436,222.46,207.89,220.409,206.619,220.76z"/>
	<path d="M177.732,231.073c-0.558-0.67-1.46,0.294-0.927,0.965c2.59,3.232,5.867,5.936,10.126,5.584
		c4.025-0.333,7.487-3.495,10.224-6.307c0.736-0.76-0.387-1.917-1.136-1.182c-2.498,2.46-5.173,4.741-8.573,5.629
		C183.458,236.804,180.169,233.993,177.732,231.073z"/>
	<path d="M156.824,205.835c2.848-3.457,5.971-7.379,10.764-6.172c4.155,1.048,8.211,2.153,12.428,2.971
		c2.252,0.441,3.117-2.767,0.945-3.565c-4.627-1.706-9.157-5.265-14.312-4.485c-4.842,0.735-8.623,5.872-11.427,9.584
		C154.345,205.337,155.854,207.004,156.824,205.835z"/>
	<path d="M175.173,216.256c-1.725,3.929-5.652,4.651-9.377,4.153c-1.215-0.166-1.473,1.955-0.288,2.21
		c4.707,1.022,9.322-0.99,11.139-5.718C176.984,216.02,175.548,215.394,175.173,216.256z"/>
	<path d="M150.606,239.304c-2.616-3.556-1.61-7.594,2.163-9.785c0.614-0.356,0.074-1.261-0.552-0.944
		c-4.558,2.302-5.937,7.305-2.948,11.511C149.845,240.896,151.196,240.105,150.606,239.304z"/>
	<path d="M217.802,229.539c3.456,2.334,4.905,7.27,3.007,11.03c-0.464,0.918,0.921,1.728,1.379,0.806
		c2.204-4.438,0.585-10.388-3.81-12.822C217.728,228.193,217.196,229.13,217.802,229.539z"/>
	<path d="M132.19,198.681c-0.623-1.287-1.247-2.574-1.87-3.861c-0.399-0.825-1.658-0.1-1.234,0.721
		c0.654,1.269,1.309,2.538,1.963,3.807C131.442,200.11,132.559,199.441,132.19,198.681z"/>
	<path d="M234.15,196.973c1.825-1.192,3.69-2.374,5.274-3.884c0.611-0.583-0.326-1.521-0.926-0.926
		c-1.48,1.466-3.233,2.616-4.949,3.783C232.921,196.373,233.502,197.396,234.15,196.973z"/>
	<path d="M223.383,172.575c1.082-1.048,2.164-2.096,3.245-3.144c0.585-0.567-0.325-1.478-0.892-0.893
		c-1.047,1.082-2.096,2.164-3.144,3.246C222.09,172.302,222.864,173.077,223.383,172.575z"/>
	<path d="M141.386,183.947c0.337,0.609,1.187,0.075,0.914-0.534c-1.171-2.609-2.456-5.17-3.699-7.746
		c-0.382-0.791-1.59-0.096-1.183,0.691C138.729,178.893,140.004,181.451,141.386,183.947z"/>
	<path d="M160.466,169.135c0.243,0.677,1.307,0.404,1.09-0.301c-0.595-1.929-1.19-3.858-1.796-5.784
		c-0.268-0.851-1.627-0.471-1.332,0.367C159.1,165.326,159.783,167.231,160.466,169.135z"/>
	<path d="M181.608,160.364c1.211-2.563,1.394-5.196,1.414-7.992c0.006-0.891-1.386-0.891-1.381,0
		c0.013,2.537-0.068,4.997-1.142,7.343C180.157,160.461,181.253,161.116,181.608,160.364z"/>
	<path d="M200.541,167.393c1.154-2.305,2.019-4.674,2.672-7.167c0.228-0.871-1.128-1.242-1.344-0.371
		c-0.59,2.392-1.366,4.668-2.439,6.889C199.072,167.484,200.168,168.137,200.541,167.393z"/>
</g>
<g>
	<path d="M250.715,367.944c-0.943-2.083-3.701-4.332-5.89-2.85c-1.097,0.74-1.931,1.813-2.583,3.044
		c-5.309-27.454-24.24-47.053-45.954-47.053c-22.803,0-42.232,21.418-46.537,50.499c-0.664-2.799-2.017-5.219-4.211-7.193
		c-0.344-0.312-0.7-0.606-1.086-0.894c-0.593-0.441-1.364,0.032-1.56,0.69c-2.538,8.236-0.129,15.072,5.475,19.845
		c-1.227,4.185-1.755,8.677-1.388,13.041c0.006,0.063,0.013,0.122,0.03,0.179c0.355,14.133,5.481,28.336,13.339,39.479
		c3.731,5.297,8.452,8.741,13.607,12.261c5.148,3.521,11.423,7.45,13.458,14.05c0.451,1.476,1.976,2.23,3.275,1.432
		c0.474-0.294,0.955-0.582,1.44-0.869c7.219-4.288,14.829-7.917,21.525-13.143c6.726-5.252,11.204-12.172,15.587-19.628
		c4.098-6.977,7.937-14.133,10.889-21.769c1.976-5.104,3.921-11.488,2.604-17.084c0.659-1.061,1.37-2.077,2.099-3.086
		c0.392-0.025,0.777-0.281,0.991-0.843c0.143-0.377,0.291-0.754,0.446-1.131c0.017-0.025,0.035-0.051,0.054-0.077
		c0.125-0.179,0.188-0.364,0.188-0.53c1.176-2.875,2.486-5.674,3.483-8.632C250.959,374.833,252.032,370.871,250.715,367.944z
		 M167.477,421.026c-0.139-0.5-0.273-1.002-0.403-1.506c0.102,0.137,0.208,0.277,0.316,0.417
		C167.437,420.297,167.461,420.661,167.477,421.026z M196.289,324.919c19.618,0,36.81,17.862,42.001,43.017
		c-0.243,0.268-0.383,0.615-0.334,1.025c0.598,5.03,1.467,10.219,1.466,15.357c-0.208,1.246-0.463,2.481-0.776,3.702
		c-0.564,0.307-1.033,0.837-1.258,1.527c-2.296,7.06-4.242,14.236-6.993,21.117c-0.112,0.281-0.226,0.563-0.345,0.844
		c-1.205,1.747-2.481,3.437-3.784,5.104c0.177-0.935,0.324-1.866,0.438-2.787c0.995-7.999,0.127-18.368-9.897-18.892
		c-7.528-0.393-14.411,5.012-22.021,3.532c-1.711-0.333-2.437,2.143-0.727,2.634c5.532,1.588,11.579,0.336,17.165-0.304
		c2.12-0.243,4.98-0.613,7.004,0.301c2.449,1.105,2.553,4.275,2.608,6.598c0.117,4.919-1.149,10.913-3.719,15.935
		c-1.397,1.503-3.352,2.192-6.035,2.394c-1.965,0.148-3.941-0.026-5.873-0.384c-0.851-0.158-1.686-0.427-2.524-0.677
		c-0.135-0.282-0.377-0.512-0.744-0.611c-1.365-0.375-2.765-0.602-4.104-0.936c-0.418-0.347-0.827-0.703-1.229-1.067
		c0.075-0.316,0.02-0.659-0.238-0.875c-0.118-0.099-0.239-0.189-0.36-0.28c0.187-0.538,0.004-1.205-0.674-1.327
		c-0.592-0.107-1.117-0.281-1.663-0.545c-0.686-0.331-1.279,0.011-1.472,0.541c-0.053-0.079-0.109-0.15-0.161-0.233
		c-0.414-0.677-1.228-0.44-1.465,0.116c-0.087,0.205-0.094,0.45,0.021,0.711c-0.218,0.293-0.252,0.702,0.061,0.975
		c-1.182,1.355-2.737,2.53-4.393,3.387c0.139,0.185,0.251,0.393,0.339,0.62c-1.225,0.085-2.451,0.192-3.683,0.274
		c-2.067,0.138-3.934-0.037-5.758-0.487c-1.27-1.766-2.486-3.58-3.811-5.301c-0.682-5.94-5.81-11.742-4.373-17.742
		c0.702-2.93,5.042-1.5,7.081-1.23c3.216,0.424,6.562,0.91,9.749,0.038c1.573-0.431,0.9-2.707-0.665-2.411
		c-6.611,1.252-16.944-7.364-20.939,1.591c-1.36,3.047-0.944,6.522-0.094,9.73c-3.481,0.099-7.307-3.823-9.894-8.276
		c-0.389-2.025-0.664-4.061-0.858-6.105l0.204-0.031c-0.183-1.184-0.342-2.447-0.474-3.753l-0.012,0.001
		c-0.204-3.687-0.238-7.396-0.323-11.118c0.054-1.408,0.138-2.829,0.271-4.245C155.735,347.038,174.334,324.919,196.289,324.919z
		 M144.568,366.411c2.688,2.396,4.04,5.847,4.217,9.7c0.015,0.315,0.169,0.521,0.366,0.641c-0.129,1.527-0.224,3.061-0.265,4.572
		l0.374,0.01c0,0.121-0.003,0.241-0.003,0.362c-0.125,0.139-0.231,0.31-0.305,0.523c0,0.006,0,0.006-0.005,0.012
		C144.325,378.097,143.056,373.471,144.568,366.411z M249.089,372.916c-0.795,5.066-3.493,9.533-5.337,14.191
		c-0.137,0.345-0.148,0.657-0.083,0.919c-0.498,0.741-0.985,1.489-1.446,2.256c-0.03-0.083-0.06-0.166-0.095-0.249
		c1.144-3.393,1.814-6.958,1.827-10.607c0.003-1.089-0.592-1.743-1.324-1.982c-0.001-0.047-0.001-0.093-0.003-0.14l0.848-0.057
		c-0.031-0.465-0.074-0.923-0.118-1.388l-0.775,0.074c-0.05-0.97-0.14-1.938-0.278-2.889c0.144-0.564,0.309-1.124,0.499-1.673
		l0.004,0c0-0.002,0-0.004-0.001-0.007c0.52-1.499,1.224-2.91,2.24-4.052c1.275-1.425,3.049-0.083,3.784,1.214
		C249.535,369.765,249.298,371.567,249.089,372.916z"/>
	<path d="M216.454,373.027c-4.823,2.024-9.86,0.315-13.897-2.973c-0.886-0.725-1.918,0.692-1.047,1.431
		c4.501,3.831,10.251,5.808,15.706,3.516C218.399,374.506,217.632,372.532,216.454,373.027z"/>
	<path d="M193.845,381.924c-3.891,0.332-7.236,3.495-9.881,6.306c-0.712,0.76,0.373,1.917,1.097,1.182
		c2.413-2.459,5-4.741,8.286-5.628c3.854-1.042,7.034,1.77,9.389,4.689c0.539,0.671,1.412-0.294,0.895-0.965
		C201.129,384.275,197.961,381.572,193.845,381.924z"/>
	<path d="M192.611,394.179c-0.201,0.23-0.35,0.511-0.438,0.812C192.404,394.748,192.546,394.473,192.611,394.179z"/>
	<path d="M186.115,371.727c0.528-0.778-0.671-1.717-1.228-0.965c-2.556,3.418-6.415,3.215-9.791,1.874
		c-1.101-0.442-1.85,1.559-0.798,2.081C178.472,376.792,183.283,375.9,186.115,371.727z"/>
	<path d="M174.905,408.768c-0.756,0.469-0.075,1.646,0.697,1.194c4.623-2.705,8.707-2.582,13.725-1.35
		c3.361,0.825,6.734,1.372,10.188,0.822c2.67-0.426,5.19-1.715,7.751-2.53c4.219-1.343,5.97,0.497,6.588,4.658
		c0.173,1.167,2.212,0.893,2.064-0.279c-0.366-2.882-1.267-5.944-4.413-6.711c-2.905-0.708-6.291,1.077-8.922,2.051
		c-4.634,1.717-8.872,1.192-13.619,0.111C183.801,405.557,179.478,405.932,174.905,408.768z"/>
	<path d="M205.803,415.506c-3.994-1.795-7.936-1.154-12.036-0.058c-5.318,1.421-10.52,3.097-14.818-1.47
		c-0.628-0.667-1.605,0.325-0.999,0.999c3.023,3.357,6.69,4.34,11.085,3.655c5.228-0.814,10.487-3.723,15.73-1.35
		C205.964,417.824,207.01,416.048,205.803,415.506z"/>
	<path d="M164.69,360.126c9.413,2.042,17.677-2.267,25.015-7.775c2.065-1.55,0.128-5.069-2.067-3.536
		c-6.623,4.624-13.711,10.14-22.267,8.837C163.777,357.41,163.044,359.77,164.69,360.126z"/>
	<path d="M201.917,352.672c5,5.338,12.541,11.762,20.456,9.867c1.966-0.471,1.552-3.61-0.478-3.528
		c-7.154,0.289-13.169-3.28-18.357-7.96C202.443,350.063,200.903,351.588,201.917,352.672z"/>
	<path d="M185.139,344.772c6.63,3.602,14.51,3.356,21.648,1.518c1.059-0.272,0.609-1.909-0.452-1.636
		c-6.693,1.723-14.169,2.103-20.521-1.038C185.048,343.238,184.376,344.357,185.139,344.772z"/>
	<path d="M194.734,344.114c4.609,2.039,11.176-0.299,15.896-0.982c1.123-0.163,0.65-1.883-0.472-1.708
		c-2.372,0.367-4.728,0.826-7.098,1.209c-2.348,0.38-5.493,1.138-7.829,0.3C194.546,342.686,194.065,343.817,194.734,344.114z"/>
	<ellipse transform="matrix(0.5072 -0.8618 0.8618 0.5072 -242.3339 356.4229)" cx="190.509" cy="390.122" rx="1.62" ry="2.566"/>
	<ellipse transform="matrix(-0.3031 -0.953 0.953 -0.3031 -112.6787 696.2709)" cx="198.255" cy="389.337" rx="1.621" ry="2.566"/>
	<path d="M161.878,384.399c0.247,0.756,1.451,0.427,1.193-0.33c-0.434-1.275-0.867-2.551-1.301-3.827
		c-0.245-0.721-1.387-0.417-1.147,0.316C161.042,381.839,161.46,383.119,161.878,384.399z"/>
	<path d="M163.67,383.679c0.328,0.684,1.353,0.086,1.017-0.594c-0.479-0.97-0.815-2.002-1.293-2.973
		c-0.327-0.663-1.302-0.083-0.987,0.577C162.876,381.666,163.202,382.702,163.67,383.679z"/>
	<path d="M165.004,379.575c-0.512-0.522-1.292,0.266-0.799,0.798c0.838,0.906,1.25,2.11,2.092,3.02
		c0.542,0.586,1.436-0.304,0.875-0.875C166.312,381.642,165.868,380.455,165.004,379.575z"/>
	<path d="M221.663,379.383c0.368,0.839,0.321,1.825,0.307,2.721c-0.011,0.729,1.143,0.729,1.13,0
		c-0.018-1.104-0.061-2.229-0.544-3.242C222.266,378.253,221.4,378.785,221.663,379.383z"/>
	<path d="M225.222,382.257c0.359-1.177,0.418-2.338,0.404-3.561c-0.008-0.69-1.062-0.69-1.071,0
		c-0.014,1.127-0.09,2.178-0.447,3.254C223.875,382.657,225.004,382.969,225.222,382.257z"/>
	<path d="M227.714,382.392c0.512-1.104,0.905-2.362,0.379-3.53c-0.24-0.532-1.167-0.144-0.945,0.398
		c0.346,0.847-0.031,1.788-0.42,2.556C226.394,382.476,227.407,383.054,227.714,382.392z"/>
	<path d="M135.106,338.717c2.301,1.171,4.961,2.066,7.562,2.041c0.061,0,0.114-0.009,0.169-0.017
		c0.221,0.127,0.441,0.255,0.663,0.383c0.992,0.57,1.854-0.921,0.892-1.526c-0.4-0.251-0.794-0.496-1.185-0.731
		c-0.04-0.027-0.08-0.052-0.125-0.074c-2.411-1.438-4.713-2.455-7.723-2.006C134.449,336.922,134.34,338.327,135.106,338.717z"/>
	<path d="M139.234,352.27c-1.192,0.249-2.392-0.132-3.588,0.078c-1.443,0.253-1.996,1.842-2.242,3.083
		c-0.122,0.613,0.274,1.275,0.958,1.258c1.899-0.049,3.066-1.28,4.734-1.963c0.354-0.145,0.556-0.421,0.63-0.722
		C140.845,353.723,140.36,352.036,139.234,352.27z"/>
	<path d="M243.581,337.126c0.104-0.104,0.208-0.21,0.311-0.315c0.074-0.017,0.148-0.041,0.224-0.076
		c2.199-1.016,4.587-1.493,6.056-3.574c0.409-0.579-0.137-1.415-0.801-1.396c-1.359,0.036-2.634,0.272-3.779,1.042
		c-0.874,0.587-1.609,1.382-2.329,2.171c-0.045,0.021-0.095,0.039-0.139,0.062c-0.302,0.152-0.452,0.379-0.491,0.622
		c-0.084,0.089-0.167,0.179-0.251,0.266C241.62,336.712,242.802,337.896,243.581,337.126z"/>
	<path d="M247.224,347.966c-0.497-0.304-0.958-0.018-1.126,0.395c-0.684,0.094-1.236,0.984-0.598,1.621
		c1.203,1.2,2.519,2.536,4.048,3.309c0.534,0.27,1.166,0.043,1.344-0.546c0.395-1.305,0.664-2.816-0.585-3.723
		C249.423,348.38,248.162,348.538,247.224,347.966z M249.352,350.463c-0.02-0.012,0.076,0.069,0.077,0.072
		c0.059,0.157,0.064,0.338,0.044,0.524c-0.371-0.28-0.728-0.59-1.075-0.91c0.192,0.051,0.384,0.102,0.576,0.157
		C249.134,350.352,249.21,350.382,249.352,350.463z"/>
</g>
<g>
	<path d="M367.189,521.966c-0.943-2.083-3.701-4.332-5.89-2.849c-1.098,0.74-1.932,1.813-2.583,3.043
		c-5.308-27.454-24.239-47.054-45.952-47.054c-22.805,0-42.235,21.419-46.538,50.5c-0.664-2.8-2.017-5.22-4.212-7.194
		c-0.344-0.312-0.7-0.606-1.085-0.894c-0.593-0.441-1.364,0.031-1.56,0.69c-2.388,7.747-0.396,14.256,4.515,18.974
		c-0.404,3.153-0.669,6.346-0.782,9.553c-2.164,14.629,2.154,33.256,9.389,42.419c0.082,0.104,0.166,0.206,0.248,0.309
		c0.054,0.094,0.105,0.189,0.161,0.283c0.37,0.631,0.757,1.254,1.152,1.875c0.577,1.509,1.193,2.925,1.694,4.126
		c2.651,6.347,6.071,12.357,10.126,17.912c4.529,6.204,12.696,14.886,20.912,14.493c1.128,0.96,2.277,1.895,3.451,2.795
		c0.652,0.969,1.276,1.945,1.869,2.933c0.314-0.287,0.631-0.577,0.947-0.866c0.712,0.485,1.767,0.263,2.347-0.312
		c10.812-10.725,23.946-19.186,31.935-32.475c5.001-8.32,7.715-17.83,9.407-27.322c1.527-8.562,2.325-17.303,2.632-26.057
		c0.702-0.254,1.293-0.847,1.379-1.779c0.048-0.514,0.093-1.031,0.135-1.551c0.142-0.2,0.28-0.402,0.424-0.602
		c0.392-0.026,0.777-0.282,0.991-0.844c0.142-0.377,0.29-0.754,0.445-1.131c0.077-0.204,0.159-0.409,0.242-0.607
		c1.175-2.875,2.485-5.673,3.482-8.632C367.433,528.855,368.506,524.893,367.189,521.966z M306.746,595.882
		c0.053,0.054,0.106,0.107,0.165,0.156c-0.073,0.09-0.146,0.175-0.219,0.263C306.714,596.161,306.731,596.022,306.746,595.882z
		 M311.559,601.066c-0.115-0.243-0.229-0.491-0.343-0.741c0.142,0.261,0.287,0.521,0.437,0.781
		C311.621,601.093,311.59,601.08,311.559,601.066z M312.765,478.941c20.645,0,38.613,19.776,42.725,47.024l0.006-0.001
		c0.017,3.414,0.046,6.9,0.052,10.431c-0.397,0.278-0.675,0.756-0.595,1.35c1.514,11.145-1.803,21.252-7.871,30.514
		c-0.621,0.948-1.269,1.879-1.929,2.799c-3.818,4.154-7.309,8.639-10.85,13.062c0.284-3.239,0.293-6.474-0.15-9.658
		c-0.664-4.774-2.237-9.101-5.222-12.928c-3.078-3.946-5.077-9.5-10.215-10.365c-1.963-2.048-5.346,0.409-4.686,2.971
		c0.258,1.002-0.307,1.995-0.007,3.086c0.322,1.173,1.084,1.974,1.888,2.831c1.559,1.668,4.38,2.464,6.382,3.404
		c4.381,2.057,6.481,6.728,7.424,11.23c1.116,5.333,0.034,10.961-1.271,16.492c-3.488,3.987-7.206,7.729-11.467,10.898
		c-0.006,0.001-0.011,0.001-0.016,0.001c-2.353-2.208-4.255-5.554-5.584-7.871c-0.241-0.42-0.643-0.613-1.06-0.637
		c-0.239-0.839-0.917-1.531-2.049-1.531c-1.288,0-1.993,0.896-2.125,1.885c-0.612-0.22-1.443,0.116-1.514,0.979
		c-0.126,1.551-0.716,2.768-1.572,3.775c-0.688,0.266-1.356,0.542-1.927,0.879c-0.664-0.32-1.309-0.667-1.935-1.039
		c-0.152-0.184-0.308-0.364-0.462-0.546c-2.061-2.557-4.068-5.156-6.08-7.752c-2.786-5.98-3.286-12.633-0.901-19.175
		c1.304-3.579,4.389-6.597,8.16-7.381c3.865-0.804,9.384-2.451,10.267-6.943c0.745-3.784-2.769-6.361-6.195-4.763
		c-3.858,1.801-7.81,3.875-10.663,7.118c-3.009,3.422-5.139,7.949-6.516,12.271c-1.025,3.217-1.465,6.706-1.323,10.183
		c-0.589-0.185-1.183,0.18-1.434,0.726c-0.347-0.399-0.693-0.799-1.037-1.2c-0.079-0.093-0.166-0.159-0.253-0.213
		c-1.089-2.535-2.158-4.955-3.242-7.024c-1.243-2.237-2.291-4.67-3.208-7.206c-0.601-1.793-1.145-3.61-1.625-5.454
		c-2.492-9.566-3.457-19.455-5.312-29.159c0.039-0.538,0.074-1.076,0.125-1.611C272.209,501.06,290.809,478.941,312.765,478.941z
		 M261.042,520.433c2.688,2.396,4.04,5.847,4.218,9.7c0.015,0.314,0.169,0.521,0.366,0.641c-0.065,0.769-0.123,1.539-0.166,2.312
		c-0.509-0.019-1.013,0.233-1.105,0.817c-0.06,0.377-0.115,0.756-0.171,1.135C260.59,531.201,259.677,526.811,261.042,520.433z
		 M365.563,526.938c-0.671,4.276-2.696,8.126-4.422,12.022c0.129-4.692-0.232-9.44-1.784-13.812
		c0.511-1.411,1.199-2.733,2.161-3.815c1.275-1.424,3.049-0.083,3.784,1.214C366.009,523.787,365.771,525.589,365.563,526.938z"/>
	<path d="M300.569,541.5c-0.712,0.76,0.373,1.917,1.097,1.182c2.414-2.459,5.001-4.74,8.287-5.629
		c3.854-1.041,7.034,1.77,9.389,4.689c0.539,0.672,1.412-0.293,0.895-0.965c-2.502-3.233-5.67-5.935-9.786-5.584
		C306.56,535.525,303.214,538.688,300.569,541.5z"/>
	<ellipse transform="matrix(0.5069 -0.862 0.862 0.5069 -316.9677 532.6506)" cx="307.114" cy="543.392" rx="1.62" ry="2.566"/>
	<ellipse transform="matrix(-0.3032 -0.9529 0.9529 -0.3032 -106.7486 1007.1542)" cx="314.86" cy="542.606" rx="1.62" ry="2.566"/>
	<path d="M305.433,573.064c-0.307-0.323-0.908-0.434-1.286-0.166c-2.312,1.635-5.11,2.037-7.5,3.481
		c-0.808,0.488-0.096,1.689,0.736,1.259c2.263-1.172,4.781-1.384,7.061-2.495c1.805,1.936,4.042,3.108,6.781,2.299
		c3.564-1.053,5.677-3.716,9.445-1.281c1.353,0.875,2.551-1.244,1.249-2.138c-2.321-1.593-4.815-1.966-7.432-0.849
		C310.832,574.736,308.752,576.557,305.433,573.064z"/>
	<path d="M331.737,523.999c-4.823,2.024-9.86,0.316-13.897-2.972c-0.886-0.725-1.918,0.691-1.047,1.431
		c4.501,3.831,10.252,5.808,15.706,3.516C333.683,525.479,332.915,523.504,331.737,523.999z"/>
	<path d="M300.17,521.733c-2.555,3.419-6.413,3.216-9.792,1.874c-1.101-0.441-1.848,1.559-0.797,2.08
		c4.175,2.077,8.986,1.185,11.817-2.988C301.926,521.92,300.728,520.982,300.17,521.733z"/>
	<path d="M316.754,506.478c3.567-0.079,7.119,0.031,10.619,0.764c3.854,0.808,6.75,3.024,9.509,5.735
		c2.078,2.043,5.298-1.177,3.193-3.193c-2.924-2.801-6.26-5.025-10.284-5.824c-4.29-0.853-8.777,0.342-13.037,0.823
		C315.696,504.902,315.638,506.502,316.754,506.478z"/>
	<path d="M282.676,510.188c3.598-1.675,7.145-3.19,11.067-3.889c4.208-0.749,8.225,0.093,12.238,1.327
		c2.575,0.792,3.592-3.12,1.101-3.991c-8.778-3.071-17.545,1.045-25.252,5.105C280.862,509.25,281.711,510.637,282.676,510.188z"/>
	<path d="M317.55,580.148c-3.064,5.551-10.538,4.339-14.898,1.073c-0.947-0.71-2.15,0.868-1.262,1.636
		c5.409,4.67,14.581,5.662,18.538-1.319C320.805,579.99,318.407,578.595,317.55,580.148z"/>
	<path d="M281.415,562.297c1.944-1.061,3.341-3.262,4.627-5.004c2.185-2.963,4.079-6.176,5.723-9.467
		c0.372-0.744-0.733-1.4-1.121-0.655c-2.391,4.599-5.527,10.871-10.096,13.644C279.601,561.389,280.442,562.827,281.415,562.297z"/>
	<path d="M330.265,544.743c-0.177-0.954-1.611-0.544-1.448,0.399c1.389,8.018,4.68,16.184,10.242,22.229
		c0.869,0.945,2.323-0.5,1.409-1.409C334.817,560.339,331.691,552.479,330.265,544.743z"/>
</g>
<g>
	<path d="M242.299,521.399c-0.943-2.083-3.701-4.332-5.89-2.849c-1.097,0.74-1.931,1.813-2.583,3.043
		c-5.309-27.454-24.24-47.054-45.954-47.054c-22.803,0-42.233,21.419-46.537,50.5c-0.664-2.799-2.017-5.219-4.211-7.193
		c-0.344-0.312-0.7-0.606-1.085-0.894c-0.593-0.441-1.364,0.031-1.56,0.69c-2.538,8.235-0.13,15.072,5.475,19.844
		c-1.228,4.186-1.755,8.678-1.388,13.041c0.006,0.063,0.012,0.122,0.029,0.18c0.356,14.133,5.481,28.337,13.34,39.479
		c3.731,5.297,8.452,8.74,13.606,12.261c5.148,3.521,11.424,7.45,13.458,14.05c0.45,1.477,1.975,2.23,3.274,1.432
		c0.474-0.293,0.955-0.582,1.441-0.868c7.219-4.288,14.829-7.917,21.525-13.144c6.727-5.253,11.204-12.172,15.588-19.628
		c4.098-6.978,7.937-14.133,10.889-21.77c1.976-5.104,3.921-11.486,2.604-17.084c0.659-1.061,1.37-2.076,2.099-3.086
		c0.392-0.025,0.777-0.281,0.991-0.844c0.143-0.376,0.291-0.753,0.446-1.13c0.077-0.205,0.16-0.409,0.242-0.608
		c1.176-2.875,2.486-5.673,3.483-8.632C242.542,528.287,243.615,524.325,242.299,521.399z M164.733,562.928
		c-0.131-1.663-0.239-3.333-0.252-5.001c-0.001-0.256,0.007-0.512,0.018-0.767c0.05-0.141,0.112-0.323,0.191-0.574
		c0.385-1.212,1.378-2.157,2.404-2.833c2.367-1.557,5.394-2.152,8.087-2.884c0.759-0.206,1.523-0.451,2.283-0.725
		c-0.661,0.312-1.296,0.666-1.883,1.034c-0.481,0.301-0.047,1.054,0.446,0.763c3.41-2.009,7.349-2.515,10.237,0.659
		c0.216,0.237,0.581,0.198,0.802,0c4.092-3.691,9.415-2.708,13.997-0.53c0.684,0.324,1.283-0.694,0.595-1.02
		c-0.998-0.472-2.021-0.888-3.058-1.225c2.498,0.604,4.861,1.567,6.837,3.158c4.467,3.598,4.547,10.391,3.61,15.572
		c-0.008,0.041-0.017,0.083-0.024,0.124c-2.597,4.651-8.216,7.639-13.76,9.381c-0.132-0.07-0.267-0.143-0.397-0.211
		c-0.739-0.391-1.573-0.462-2.366-0.301c-3.348-0.77-6.755-1.047-8.875-4.468c-0.415-0.678-1.228-0.44-1.465,0.115
		c-0.119-0.013-0.243,0.032-0.374,0.135c-2.408,1.986-5.136,2.479-7.9,3.59c-0.383,0.153-0.616,0.429-0.745,0.738
		c-2.591-1.383-4.955-3.078-7.116-5.051c-0.165-0.61-0.328-1.219-0.483-1.836C165.22,568.166,164.94,565.551,164.733,562.928z
		 M187.873,478.373c19.618,0,36.81,17.863,42.001,43.017c-0.243,0.268-0.383,0.615-0.334,1.024
		c0.598,5.031,1.467,10.22,1.466,15.358c-0.208,1.245-0.463,2.481-0.776,3.701c-0.564,0.308-1.033,0.838-1.258,1.527
		c-2.296,7.06-4.242,14.235-6.994,21.116c-0.112,0.282-0.226,0.562-0.344,0.844c-1.886,2.735-3.937,5.336-6.014,7.917
		c0.065-1.005,0.156-2.012,0.243-3.018c0.123-0.817,0.224-1.64,0.286-2.467c0.221-0.978,0.371-1.992,0.422-3.056
		c0.036-0.755-0.141-1.361-0.457-1.824c-0.408-4.33-1.905-8.469-5.072-11.728c-5.583-5.748-15.084-5.6-22.459-5.335
		c-2.112,0.074-2.106,3.181,0,3.271c1.414,0.062,2.896,0.129,4.394,0.254c-1.759,0.09-3.5,0.562-5.17,1.558
		c-1.267,0.755-0.829,0.755-2.162-0.071c-1.102-0.683-2.063-1.038-3.342-1.243c-1.089-0.176-2.189-0.022-3.25,0.304
		c1.519-0.639,3-1.382,4.369-2.197c1.68-0.998,0.569-3.928-1.362-3.23c-6.267,2.262-13.593,0.82-19.231,4.98
		c-4.448,3.282-4.881,7.738-4.619,12.759c0.011,0.203,0.026,0.407,0.037,0.61c-0.548,0.403-1.118,0.669-1.702,0.804
		c-3.693,0.846-7.944-3.355-10.743-8.173c-0.389-2.025-0.664-4.061-0.858-6.106l0.203-0.031c-0.184-1.192-0.343-2.455-0.474-3.751
		l-0.012,0.001c-0.204-3.688-0.238-7.399-0.323-11.123c0.054-1.41,0.138-2.831,0.271-4.241
		C147.318,500.492,165.918,478.373,187.873,478.373z M136.151,519.865c2.687,2.396,4.04,5.847,4.217,9.7
		c0.015,0.314,0.168,0.52,0.366,0.64c-0.129,1.523-0.224,3.058-0.266,4.571l0.374,0.01c0,0.121-0.003,0.242-0.003,0.363
		c-0.125,0.14-0.231,0.311-0.305,0.522c0,0.007,0,0.007-0.006,0.013C135.908,531.552,134.639,526.926,136.151,519.865z
		 M180.188,613.689c0.034,0.071,0.062,0.143,0.098,0.214c-0.086-0.039-0.173-0.076-0.26-0.115
		C180.079,613.754,180.134,613.723,180.188,613.689z M240.673,526.37c-0.795,5.066-3.493,9.533-5.337,14.19
		c-0.137,0.346-0.148,0.657-0.083,0.92c-0.498,0.741-0.985,1.488-1.446,2.256c-0.03-0.084-0.06-0.166-0.095-0.25
		c1.145-3.393,1.814-6.958,1.827-10.605c0.003-1.088-0.591-1.742-1.324-1.983c0-0.046-0.001-0.092-0.002-0.14l0.848-0.056
		c-0.031-0.466-0.074-0.923-0.118-1.39l-0.775,0.074c-0.05-0.97-0.14-1.937-0.278-2.888c0.144-0.564,0.309-1.124,0.499-1.672
		l0.004-0.002c-0.001-0.002-0.001-0.005-0.001-0.007c0.519-1.499,1.224-2.909,2.24-4.052c1.275-1.424,3.048-0.083,3.784,1.214
		C241.118,523.22,240.881,525.021,240.673,526.37z"/>
	<path d="M184.195,547.634c-0.201,0.229-0.35,0.51-0.439,0.811C183.987,548.203,184.13,547.927,184.195,547.634z"/>
	<path d="M174.847,561.534c1.533-1.132,2.867-2.439,4.502-3.443c2.069-1.269,2.814,1.14,4.716,1.435
		c2.083,0.321,4.14-0.332,6.153-0.767c3.193-0.688,4.796,0.749,6.74,2.884c2.359,2.594,5.146,3.209,8.1,1.062
		c1.132-0.823,0.164-2.593-1.113-1.906c-3.824,2.061-4.94-0.788-7.819-2.79c-3.394-2.361-7.144-0.495-10.823-0.31
		c-1.526,0.077-2.609-2.005-4.078-2.362c-1.197-0.289-2.588,0.463-3.562,1.06c-2.749,1.686-5.335,7.149-8.785,3.484
		c-0.593-0.629-1.477,0.293-0.936,0.936C170.054,563.326,172.222,563.474,174.847,561.534z"/>
	<path d="M188.95,566.703c-3.58,1.554-8.312,0.698-10.921-2.246c-0.55-0.62-1.666,0.225-1.157,0.892
		c2.933,3.847,8.699,5.051,13.048,3.014C191.053,567.832,190.065,566.22,188.95,566.703z"/>
	<path d="M177.643,538.818c-0.712,0.76,0.374,1.917,1.097,1.182c2.414-2.46,5-4.74,8.286-5.629c3.855-1.041,7.035,1.77,9.39,4.689
		c0.539,0.671,1.412-0.293,0.895-0.965c-2.502-3.233-5.67-5.935-9.786-5.584C183.633,532.844,180.287,536.007,177.643,538.818z"/>
	<ellipse transform="matrix(0.5072 -0.8618 0.8618 0.5072 -375.2363 425.2226)" cx="184.188" cy="540.71" rx="1.62" ry="2.567"/>
	<ellipse transform="matrix(-0.3031 -0.953 0.953 -0.3031 -264.42 886.4762)" cx="191.934" cy="539.924" rx="1.621" ry="2.567"/>
	<path d="M210.231,520.243c-4.823,2.024-9.859,0.315-13.896-2.973c-0.886-0.725-1.918,0.691-1.047,1.432
		c4.501,3.831,10.251,5.808,15.706,3.515C212.177,521.722,211.409,519.748,210.231,520.243z"/>
	<path d="M179.893,518.943c0.527-0.779-0.672-1.717-1.229-0.966c-2.555,3.419-6.414,3.216-9.792,1.874
		c-1.101-0.441-1.849,1.559-0.798,2.081C172.25,524.008,177.061,523.116,179.893,518.943z"/>
	<path d="M195.249,502.721c3.567-0.079,7.119,0.031,10.619,0.764c3.854,0.808,6.75,3.025,9.508,5.735
		c2.079,2.044,5.298-1.177,3.194-3.193c-2.923-2.802-6.259-5.024-10.284-5.824c-4.291-0.853-8.778,0.343-13.037,0.823
		C194.19,501.145,194.132,502.746,195.249,502.721z"/>
	<path d="M161.17,506.431c3.598-1.676,7.145-3.191,11.067-3.889c4.208-0.75,8.226,0.093,12.238,1.327
		c2.575,0.792,3.592-3.12,1.101-3.991c-8.778-3.071-17.545,1.044-25.252,5.105C159.355,505.493,160.205,506.88,161.17,506.431z"/>
	<path d="M149.734,546.573c-1-5.362-0.311-10.49,3.389-14.686c0.494-0.561-0.283-1.355-0.824-0.825
		c-4.466,4.38-5.328,9.996-4.278,15.983C148.217,548.17,149.943,547.696,149.734,546.573z"/>
	<path d="M218.563,531.824c4.268,5.704,7.273,12.832,3.611,19.618c-0.58,1.075,1.039,2.026,1.637,0.957
		c4.158-7.415,0.733-15.305-4.164-21.413C219.159,530.377,218.094,531.197,218.563,531.824z"/>
</g>
<g>
	<path d="M378.708,377.105c-0.646-2.193-3.068-4.801-5.439-3.635c-1.189,0.582-2.164,1.53-2.979,2.659
		c-1.466-27.924-17.512-49.95-39.019-52.947c-22.589-3.143-44.785,15.385-53.062,43.592c-0.271-2.864-1.277-5.446-3.179-7.704
		c-0.297-0.357-0.609-0.697-0.951-1.035c-0.526-0.519-1.355-0.157-1.641,0.468c-3.651,7.806-2.209,14.91,2.684,20.411
		c-1.794,3.975-2.937,8.351-3.175,12.725c-0.002,0.063-0.004,0.122,0.005,0.182c0.169-1.512,0.39-3.01,0.675-4.5
		c0.137-0.729,0.566-1.186,1.079-1.385c-0.027,0.061-0.053,0.128-0.076,0.202c-0.553,1.775-1.262,2.042-0.946,4.375
		c-0.493,0.435-0.67,2.109-0.732,1.308c-1.598,14.047,1.518,28.821,7.763,40.943c2.965,5.761,7.166,9.823,11.785,14.021
		c4.613,4.197,10.287,8.955,11.39,15.773c0.242,1.523,1.648,2.481,3.045,1.869c0.511-0.225,1.025-0.444,1.547-0.662
		c7.742-3.25,15.779-5.793,23.134-10.046c7.386-4.273,12.776-10.508,18.146-17.288c5.022-6.345,9.812-12.903,13.79-20.058
		c2.662-4.784,5.47-10.837,4.937-16.562c0.8-0.959,1.645-1.867,2.506-2.767c0.562-0.586,1.128-1.172,1.694-1.758
		c0.105-0.191,0.216-0.382,0.324-0.567c1.562-2.685,3.245-5.276,4.641-8.069C377.998,383.96,379.608,380.186,378.708,377.105z
		 M330.741,326.979c19.447,2.71,34.017,22.805,35.665,48.466c-0.285,0.268-0.479,0.646-0.491,1.128
		c-0.124,4.988,0.032,10.167-0.649,15.182c-0.379,1.208-0.803,2.399-1.282,3.567c-0.602,0.226-1.139,0.686-1.457,1.339
		c-3.248,6.675-6.166,13.514-9.84,19.949c-0.151,0.264-0.302,0.527-0.458,0.788c-1.432,1.562-2.926,3.055-4.443,4.524
		c0.449-1.32,0.832-2.635,1.146-3.923c1.812-7.452,1.769-17.425-7.673-18.846c-7.448-1.121-14.999,2.92-22.335,0.398
		c-1.454-0.5-2.469,1.866-1.053,2.497c5.099,2.268,11.067,2.08,16.538,2.146c2.283,0.027,4.952,0.047,7.073,1.024
		c2.187,1.005,2.347,3.27,2.302,5.442c-0.113,5.461-2.419,11.884-6.049,16.933c-1.511,1.228-3.422,1.66-6.087,1.575
		c-1.982-0.063-3.914-0.568-5.798-1.15c-0.872-0.27-1.736-0.716-2.604-1.122c-0.103-0.275-0.301-0.515-0.628-0.656
		c-1.297-0.558-2.648-0.976-3.926-1.489c-0.373-0.407-0.736-0.822-1.09-1.246c0.11-0.316,0.074-0.689-0.191-0.984
		c-0.081-0.09-0.159-0.165-0.238-0.245c0.267-0.504,0.133-1.192-0.614-1.438c-0.585-0.193-1.056-0.469-1.556-0.803
		c-0.548-0.365-1.146-0.079-1.42,0.398c-0.038-0.081-0.082-0.154-0.118-0.237c-0.317-0.728-1.156-0.606-1.467-0.087
		c-0.112,0.187-0.152,0.42-0.083,0.688c-0.197,0.267-0.249,0.659-0.043,0.97c-1.362,1.189-3.074,2.147-4.845,2.771
		c0.111,0.202,0.194,0.425,0.25,0.662c-1.148-0.081-2.301-0.142-3.457-0.219c-2.153-0.142-4.037-0.58-5.838-1.298
		c-1.045-2.003-2.034-4.044-3.17-5.987c-0.141-5.726-3.204-11.238-2.111-16.942c0.702-3.661,3.965-2.212,6.512-1.52
		c3.372,0.917,6.944,2.109,10.487,1.652c1.547-0.2,1.649-2.58,0-2.5c-7.051,0.343-16.304-9.889-21.439-0.791
		c-1.514,2.682-1.518,6.004-1.124,9.11c-3.467-0.389-6.721-4.818-8.666-9.595c-0.106-2.048-0.101-4.091-0.013-6.133l0.227-0.003
		c-0.018-1.209-0.002-2.445,0.048-3.781l-0.035-0.001c0.021-0.252,0.044-0.505,0.067-0.757h0.002
		c0.001-0.034,0.005-0.068,0.006-0.102c0.299-3.312,0.722-6.625,1.116-9.948c0.256-1.468,0.553-2.948,0.9-4.416
		C287.522,343.29,308.993,323.943,330.741,326.979z M273.789,360.936c-0.324-0.38-0.669-0.745-1.046-1.087
		c0.549-0.149,1.098-0.305,1.646-0.46C274.17,359.918,273.966,360.432,273.789,360.936c2.331,2.744,3.193,6.348,2.838,10.189
		c-0.028,0.313,0.095,0.538,0.273,0.684c-0.339,1.495-0.645,3.001-0.894,4.492l0.379,0.063c-0.016,0.115-0.035,0.229-0.051,0.344
		c-0.148,0.122-0.281,0.282-0.387,0.489c0,0.006,0,0.006-0.007,0.012C271.936,372.477,271.316,367.719,273.789,360.936z
		 M376.412,381.805c-1.486,4.908-4.775,8.959-7.246,13.318c-0.183,0.322-0.237,0.631-0.209,0.898
		c-0.595,0.666-1.181,1.339-1.744,2.035c-0.019-0.086-0.036-0.172-0.06-0.26c1.602-3.203,2.758-6.641,3.273-10.253
		c0.154-1.075-0.342-1.804-1.03-2.143c0.006-0.047,0.011-0.094,0.018-0.141l0.84,0.062c0.033-0.465,0.055-0.925,0.075-1.392
		l-0.763-0.034c0.094-0.994,0.145-1.992,0.14-2.977c0.212-0.513,0.441-1.019,0.692-1.512h0.003c0-0.002,0-0.003,0-0.005
		c0.721-1.413,1.614-2.714,2.778-3.706c1.459-1.235,3.03,0.339,3.58,1.726C377.288,378.745,376.804,380.497,376.412,381.805z"/>
	<path d="M320.454,383.102c-3.9-0.208-7.65,2.462-10.658,4.882c-0.81,0.655,0.105,1.951,0.924,1.322
		c2.73-2.103,5.606-4.005,8.983-4.431c3.962-0.5,6.723,2.724,8.652,5.94c0.442,0.739,1.439-0.096,1.02-0.832
		C327.343,386.436,324.577,383.321,320.454,383.102z"/>
	<path d="M317.54,395.069c-0.23,0.2-0.418,0.457-0.547,0.743C317.256,395.604,317.435,395.351,317.54,395.069z"/>
	<path d="M305.651,405.504c-0.079-0.034-0.169-0.052-0.269-0.047c-0.171,0.009-0.34,0.023-0.509,0.038
		c-2.3,0.026-4.584,0.557-6.971,1.622c-0.713,0.318-0.189,1.564,0.533,1.264c0.004-0.002,0.008-0.003,0.013-0.005
		c-0.567,0.64-1.043,1.396-1.406,2.281c-1.161,2.826-0.35,6.303,1.415,8.685c1.931,2.604,5.009,3.693,8.15,2.982
		c5.409-1.226,9.055-7.061,11.476-11.635c1.114,0.24,2.251,0.411,3.438,0.46c2.807,0.119,5.664-0.878,8.394-1.393
		c1.372-0.258,2.761-0.395,4.117-0.007c2.162,0.618,2.122,3.578,2.138,5.332c0.013,1.356,2.081,1.355,2.102,0
		c0.045-3.014-0.603-6.104-3.724-7.2c-3.004-1.055-6.926,0.501-9.866,1.098c-4.661,0.945-8.854-0.619-13.168-2.23
		C309.494,405.994,307.562,405.577,305.651,405.504z M300.121,418.435c-1.567-1.791-2.104-4.455-1.517-6.727
		c0.686-2.646,3.097-3.998,5.581-4.607c1.502-0.037,2.997,0.158,4.534,0.562c-3.544,1.05-5.961,3.862-6.48,7.853
		c-0.127,0.974,1.528,1.19,1.711,0.231c0.742-3.907,3.171-6.547,7.17-7.217c0.045-0.007,0.077-0.031,0.115-0.046
		c1.637,0.621,3.236,1.226,4.866,1.705C313.115,415.406,306.029,425.183,300.121,418.435z"/>
	<path d="M294.753,357.547c9.081,3.31,17.902-0.006,25.935-4.433c2.324-1.281,0.272-4.732-2.066-3.537
		c-7.265,3.713-14.843,7.958-23.187,5.496C293.827,354.6,293.223,356.99,294.753,357.547z"/>
	<path d="M334.21,353.742c-0.834-0.995-2.549,0.327-1.8,1.389c4.119,5.845,10.745,13.534,18.739,12.723
		c2.31-0.234,2.313-3.362,0-3.592C344.094,363.56,338.637,359.021,334.21,353.742z"/>
	<path d="M317.034,345.156c5.987,4.432,13.82,5.275,21.045,4.446c1.074-0.123,1.086-1.822,0-1.697
		c-6.954,0.797-14.447,0.138-20.37-3.905C316.986,343.507,316.355,344.653,317.034,345.156z"/>
	<path d="M326.626,345.827c4.21,2.63,11.004,1.2,15.69,1.178c1.143-0.005,1.143-1.79,0-1.772c-2.56,0.039-5.115,0.182-7.675,0.226
		c-2.257,0.038-5.3,0.342-7.363-0.749C326.541,344.32,325.918,345.383,326.626,345.827z"/>
	<ellipse transform="matrix(0.6215 -0.7834 0.7834 0.6215 -186.5144 395.5042)" cx="316.018" cy="390.76" rx="1.62" ry="2.567"/>
	<ellipse transform="matrix(-0.1687 -0.9857 0.9857 -0.1687 -7.0164 776.1866)" cx="323.798" cy="391.052" rx="1.621" ry="2.567"/>
	<path d="M289.662,380.896c-0.253-1.322-0.507-2.645-0.76-3.967c-0.145-0.756-1.282-0.432-1.148,0.316
		c0.238,1.327,0.477,2.654,0.714,3.98C288.608,382.007,289.811,381.678,289.662,380.896z"/>
	<path d="M290.302,380.608c0.23,0.722,1.375,0.409,1.136-0.313c-0.34-1.028-0.531-2.097-0.872-3.124
		c-0.229-0.695-1.326-0.401-1.101,0.303C289.794,378.505,289.973,379.576,290.302,380.608z"/>
	<path d="M292.925,380.695c0.454,0.656,1.54,0.014,1.069-0.625c-0.731-0.993-1.014-2.227-1.745-3.22
		c-0.423-0.576-1.395-0.036-0.976,0.57C291.977,378.435,292.222,379.679,292.925,380.695z"/>
	<path d="M348.334,384.365c0.25,0.885,0.103,1.831-0.035,2.724c-0.126,0.813,1.01,0.965,1.109,0.15
		c0.128-1.042,0.246-2.129-0.077-3.149C349.131,383.458,348.152,383.72,348.334,384.365z"/>
	<path d="M351.328,384.076c-0.167,1.107-0.373,2.155-0.874,3.167c-0.33,0.668,0.686,1.253,0.997,0.583
		c0.543-1.167,0.768-2.339,0.929-3.607C352.455,383.621,351.419,383.481,351.328,384.076z"/>
	<path d="M353.978,388.175c0.618-0.958,1.181-2.165,0.838-3.32c-0.189-0.638-1.165-0.373-0.997,0.274
		c0.226,0.872-0.35,1.783-0.827,2.469C352.572,388.201,353.577,388.795,353.978,388.175z"/>
	<path d="M312.502,376.341c-1.136-1.858-2.281-3.733-3.493-5.561c1.113-1.218,2.249-2.412,3.451-3.532
		c0.004,0.229-0.01,0.46-0.048,0.692c0.039-0.066,0.077-0.147,0.108-0.225c0.087-0.217,0.134-0.439,0.147-0.658
		c1.241-1.141,2.556-2.203,4-3.123c0.977-0.622,0.089-2.164-0.909-1.558c-3.001,1.824-5.502,4.212-7.912,6.706
		c-1.403-1.988-2.916-3.895-4.637-5.613c-0.883-0.881-2.219,0.462-1.364,1.364c1.698,1.79,3.168,3.76,4.496,5.826
		c-1.403,1.48-2.805,2.965-4.286,4.362c-1.041,0.981,0.549,2.572,1.567,1.567c1.332-1.315,2.59-2.709,3.846-4.105
		c0.996,1.687,1.914,3.421,2.793,5.167C311.01,379.136,313.38,377.78,312.502,376.341z"/>
	<path d="M340.592,369.804c-1.217,1.202-2.407,2.463-3.606,3.722c-1.211-2.898-2.461-5.781-3.719-8.658
		c-0.48-1.099-2.402-0.292-1.943,0.819c1.323,3.202,2.685,6.4,3.925,9.64c-1.818,1.853-3.7,3.634-5.775,5.14
		c-1.455,1.056,0.12,3.102,1.507,1.952c1.807-1.5,3.48-3.142,5.107-4.835c0.779,2.167,1.492,4.356,2.079,6.585
		c0.45,1.706,2.861,0.958,2.588-0.713c-0.428-2.613-1.77-5.298-2.858-7.785c1.378-1.48,2.739-2.974,4.137-4.426
		C342.942,370.297,341.528,368.88,340.592,369.804z"/>
	<path d="M303.288,301.644c3.01,3.506-3.908,7.581-5.765,10.166c-3.108,4.327,0.098,7.448,4.126,9.459
		c0.946,0.473,1.772-0.906,0.834-1.426c-2.089-1.156-5.345-2.95-4.052-5.802c0.765-1.688,2.421-3.027,3.726-4.289
		c1.853-1.791,4.845-4.456,3.91-7.368c-0.924-2.879-4.247-5.053-6.311-7.067c-1.092-1.065-2.636-2.47-2.713-4.102
		c-0.109-2.303,5.061-3.183,6.558-3.588c1.215-0.329,0.698-2.115-0.515-1.868c-3.254,0.663-9.205,2.27-7.879,6.801
		C296.31,296.325,300.851,298.804,303.288,301.644z"/>
	<path d="M324.069,312.227c0.776,0.51,1.467-0.714,0.72-1.233c-1.143-0.795-3.812-2.373-3.043-4.19
		c0.343-0.812,1.226-1.443,1.878-1.998c1.522-1.299,3.062-2.521,3.912-4.38c2.141-4.679-2.216-8.337-2.935-12.679
		c-0.18-1.08-1.765-0.603-1.623,0.448c0.41,3.017,2.221,4.887,3.206,7.627c1.248,3.472-1.412,5.841-3.725,7.821
		C318.604,306.944,320.243,309.712,324.069,312.227z"/>
	<path d="M351.913,325.927c-1.78-2.33-3.761-4.985-3.666-8.06c0.06-1.924,1.642-3.554,2.812-4.919
		c2.164-2.524,4.651-6.278,3.608-9.832c-0.6-2.044-2.281-3.316-3.655-4.851c-2.495-2.791-0.908-5.115,1.775-6.452
		c3.662-1.825,2.64-4.599,0.553-7.504c-0.688-0.958-2.291-0.037-1.595,0.933c0.676,0.941,1.96,2.389,1.761,3.659
		c-0.111,0.714-1.538,1.158-2.086,1.419c-1.436,0.686-2.663,1.581-3.321,3.07c-2.242,5.066,4.9,7.368,4.799,11.883
		c-0.095,4.186-3.88,6.567-5.619,10c-2.086,4.115,0.986,8.438,3.455,11.565C351.26,327.504,352.43,326.603,351.913,325.927z"/>
</g>
<g>
	<g>
		<path d="M108.828,46.859c-0.943-2.083-3.701-4.333-5.89-2.85c-1.097,0.74-1.932,1.813-2.583,3.044C95.049,19.6,76.116,0,54.402,0
			C31.6,0,12.169,21.418,7.866,50.5c-0.664-2.8-2.017-5.219-4.211-7.193c-0.344-0.312-0.7-0.606-1.086-0.894
			c-0.593-0.441-1.364,0.032-1.56,0.69c-2.539,8.235-0.13,15.072,5.475,19.845c-1.228,4.185-1.756,8.677-1.388,13.041
			c0.005,0.064,0.012,0.122,0.029,0.179c0.356,14.133,5.48,28.336,13.34,39.48c3.73,5.296,8.452,8.74,13.606,12.261
			c5.148,3.52,11.423,7.45,13.458,14.05c0.45,1.476,1.975,2.23,3.274,1.431c0.475-0.294,0.955-0.582,1.441-0.869
			c7.218-4.287,14.829-7.916,21.525-13.143c6.726-5.252,11.204-12.171,15.587-19.628c4.099-6.977,7.937-14.133,10.89-21.769
			c1.975-5.104,3.921-11.488,2.604-17.084c0.659-1.061,1.371-2.077,2.1-3.086c0.392-0.025,0.777-0.281,0.991-0.843
			c0.143-0.377,0.291-0.754,0.445-1.131c0.077-0.205,0.16-0.409,0.243-0.607c1.175-2.875,2.486-5.674,3.482-8.632
			C109.071,53.747,110.145,49.786,108.828,46.859z M54.402,3.833c19.618,0,36.81,17.862,42,43.017
			c-0.242,0.268-0.383,0.615-0.334,1.024c0.598,5.029,1.467,10.218,1.466,15.356c-0.208,1.246-0.464,2.482-0.777,3.704
			c-0.564,0.306-1.033,0.836-1.258,1.527c-2.295,7.06-4.241,14.235-6.993,21.116c-0.113,0.282-0.226,0.563-0.345,0.844
			c-1.885,2.735-3.938,5.335-6.014,7.917c0.105-1.632,0.278-3.271,0.39-4.896c0.304-1.153,0.498-2.366,0.561-3.645
			c0.026-0.551-0.068-1.016-0.24-1.411c-0.03-5.086-1.397-10.048-5.595-13.233c-5.58-4.233-15.145-1.961-21.514-1.688
			c-2.106,0.09-2.112,3.194,0,3.272c5.416,0.198,11.237-0.327,16.419,1.565c5.206,1.9,4.283,9.406,3.598,13.66
			c-0.14,0.869-0.306,1.753-0.493,2.644c-2.703,4.382-8.124,7.229-13.479,8.912c-0.133-0.071-0.268-0.143-0.398-0.211
			c-0.74-0.392-1.576-0.461-2.37-0.299c-3.346-0.77-6.753-1.048-8.872-4.467c-0.415-0.677-1.228-0.44-1.465,0.116
			c-0.119-0.013-0.243,0.032-0.374,0.134c-2.408,1.986-5.137,2.479-7.901,3.59c-0.38,0.152-0.613,0.424-0.742,0.731
			c-2.594-1.384-4.959-3.081-7.122-5.058c-0.913-3.375-1.668-6.856-2.332-10.349l-0.581,0.134c-0.211-1.125-1.112-2.052-2.073-2.071
			c-0.016-0.083-0.033-0.165-0.048-0.247c-0.279-1.497-0.523-2.581-0.544-3.942c0.021,0.3,0.123-0.44,0.321-0.798
			c0.188-0.339,0.51-0.546,0.822-0.747c1.058-0.679,2.502-0.755,3.716-0.831c6.211-0.391,12.759,0.675,18.421-2.574
			c1.156-0.663,1.003-2.212,0.188-2.939c0.132-0.188,0.235-0.385,0.283-0.597c-0.141,0.161-0.246,0.352-0.332,0.551
			c-0.385-0.317-0.905-0.454-1.501-0.247c-3.346,1.167-7.063,0.341-10.5-0.033c-3.567-0.388-7.039-0.688-10.583,0.061
			c-3.129,0.661-5.848,2.923-6.881,5.966c-0.657,1.933-0.237,3.952,0.039,5.922c0.162,1.155,0.346,2.311,0.541,3.465
			c-3.28-0.405-6.766-4.094-9.176-8.242c-0.389-2.026-0.664-4.062-0.858-6.106l0.203-0.031c-0.184-1.192-0.343-2.455-0.474-3.752
			l-0.012,0.001c-0.203-3.688-0.238-7.399-0.323-11.123c0.054-1.41,0.139-2.83,0.271-4.241C13.848,25.953,32.448,3.833,54.402,3.833
			z M2.681,45.326c2.687,2.396,4.04,5.846,4.217,9.699c0.015,0.315,0.169,0.521,0.366,0.641c-0.129,1.523-0.224,3.057-0.265,4.571
			l0.374,0.01c0,0.121-0.003,0.242-0.003,0.362c-0.124,0.14-0.231,0.311-0.305,0.523c0,0.006,0,0.006-0.006,0.013
			C2.438,57.012,1.169,52.386,2.681,45.326z M107.203,51.83c-0.795,5.067-3.494,9.533-5.338,14.191
			c-0.137,0.345-0.148,0.658-0.083,0.919c-0.498,0.742-0.984,1.489-1.447,2.256c-0.03-0.083-0.06-0.166-0.095-0.249
			c1.145-3.393,1.814-6.958,1.827-10.606c0.004-1.089-0.591-1.743-1.323-1.982c0-0.046-0.001-0.092-0.002-0.139l0.847-0.056
			c-0.029-0.444-0.07-0.882-0.112-1.326l-0.779,0.047c-0.05-0.982-0.141-1.964-0.281-2.927c0.145-0.564,0.309-1.124,0.499-1.673
			h0.003c0-0.002,0-0.004-0.001-0.006c0.519-1.499,1.224-2.91,2.241-4.053c1.275-1.424,3.048-0.083,3.784,1.214
			C107.647,48.68,107.411,50.482,107.203,51.83z"/>
		<path d="M74.567,51.941c-4.823,2.024-9.86,0.315-13.897-2.973c-0.886-0.725-1.918,0.692-1.047,1.432
			c4.501,3.831,10.251,5.808,15.706,3.515C76.512,53.421,75.745,51.446,74.567,51.941z"/>
		<path d="M67.929,50.424c1.896-0.227,3.241-2.067,2.997-4.117c-0.245-2.048-1.987-3.526-3.883-3.3
			c-1.902,0.228-3.247,2.074-3.002,4.124C64.286,49.18,66.026,50.651,67.929,50.424z"/>
		<path d="M72.548,40.49c-3.033-1.433-6.657-1.02-9.812-0.571c-1.069,0.153-0.856,1.884,0.214,1.789
			c2.754-0.239,5.525-0.345,8.192,0.623c3.472,1.265,5.384,4.421,6.833,7.844c0.567,1.349,2.488,0.527,1.959-0.845
			C78.448,45.474,76.169,42.207,72.548,40.49z"/>
		<path d="M46.039,62.839c-0.54-0.671-1.412,0.294-0.896,0.964c2.503,3.233,5.67,5.936,9.787,5.584
			c3.891-0.332,7.236-3.495,9.881-6.306c0.712-0.76-0.374-1.917-1.097-1.182c-2.414,2.459-5,4.741-8.287,5.628
			C51.573,68.57,48.394,65.759,46.039,62.839z"/>
		<path d="M43,49.676c-2.555,3.418-6.414,3.215-9.792,1.874c-1.101-0.441-1.849,1.56-0.797,2.081
			c4.175,2.077,8.986,1.184,11.817-2.989C44.755,49.863,43.557,48.924,43,49.676z"/>
		<path d="M43.775,43.103c1.511,0.785,2.854-1.728,1.332-2.489c-6.854-3.451-13.133-0.09-17.532,6.238
			c-0.632,0.911,0.743,1.952,1.434,1.128C33.042,43.167,38.074,40.131,43.775,43.103z"/>
		<path d="M39.316,43.357c-1.861-0.456-3.769,0.799-4.26,2.803c-0.492,2.005,0.62,3.995,2.48,4.451
			c1.855,0.456,3.762-0.794,4.253-2.799c0.071-0.292,0.108-0.591,0.112-0.88c0.03-0.072,0.057-0.157,0.076-0.238
			c0.219-0.894-0.161-1.783-0.877-2.176C40.654,43.949,40.042,43.535,39.316,43.357z"/>
		<path d="M50.89,85.513c-0.829-0.81-1.889-1.036-3.036-1.527c-0.863-0.369-1.636,0.733-1.012,1.272
			c-4.132,0.164-7.983-0.932-11.827-2.498c0.562-0.322,0.452-1.368-0.349-1.358c-0.647,0.008-1.398,0.166-1.996,0.417
			c-0.44,0.185-1.011,0.701-0.612,1.227c0.334,0.441,0.816,0.456,1.331,0.459c0.303,0.003,0.499-0.153,0.608-0.357
			c-0.132,0.332-0.078,0.736,0.298,0.896c4.41,1.876,8.95,3.311,13.789,2.708c0.391-0.048,0.63-0.322,0.716-0.628
			c0.43,0.219,0.813,0.498,1.063,0.932c0.261,0.454,0.789,0.528,1.23,0.322c1.142-0.532,2.403-0.921,3.468-1.612
			c0.082,0.115,0.197,0.206,0.365,0.232c4.153,0.644,8.389,0.173,12.088-1.903c0.121-0.067,0.208-0.151,0.271-0.244
			c0.384,0.491,1.392,0.341,1.356-0.444c-0.062-1.406-1.26-2.601-2.668-2.616c-0.905-0.009-0.896,1.357,0,1.398
			c0.361,0.016,0.682,0.216,0.859,0.456c0.001,0.001,0.002,0.004,0.003,0.006c-0.187-0.065-0.403-0.056-0.625,0.069
			c-3.301,1.853-7.048,2.379-10.77,1.938c-0.068-0.649-0.962-1.217-1.632-0.636C53.012,84.715,51.9,85.092,50.89,85.513z
			 M34.061,83.018c0.006-0.021,0.006-0.045,0.011-0.067c0.014-0.003,0.028-0.007,0.042-0.01
			C34.095,82.965,34.077,82.991,34.061,83.018z"/>
		<path d="M57.079,91.125c-3.847,3.597-9.833,4.009-13.601,0.085c-0.641-0.667-1.628,0.333-1.01,1.01
			c4.285,4.687,11.292,4.225,15.79,0.085C59.049,91.576,57.863,90.392,57.079,91.125z"/>
		<path d="M59.585,32.502c3.567-0.079,7.118,0.031,10.618,0.765c3.854,0.807,6.751,3.024,9.509,5.735
			c2.078,2.043,5.298-1.177,3.193-3.193c-2.924-2.802-6.259-5.025-10.284-5.824c-4.291-0.852-8.778,0.343-13.037,0.823
			C58.526,30.927,58.468,32.527,59.585,32.502z"/>
		<path d="M25.506,36.213c3.597-1.676,7.145-3.191,11.067-3.889c4.208-0.75,8.226,0.093,12.239,1.327
			c2.575,0.792,3.591-3.12,1.1-3.991c-8.779-3.07-17.546,1.045-25.253,5.105C23.691,35.275,24.54,36.663,25.506,36.213z"/>
	</g>
	
		<ellipse transform="matrix(0.1186 0.9929 -0.9929 0.1186 105.5897 -28.2579)" fill="#FFFFFF" cx="68.712" cy="45.348" rx="1.727" ry="1.602"/>
	
		<ellipse transform="matrix(0.1186 0.9929 -0.9929 0.1186 80.6094 0.3715)" fill="#FFFFFF" cx="40.095" cy="45.593" rx="1.727" ry="1.602"/>
</g>
<g>
	<path d="M239.871,50.211c-0.944-2.083-3.702-4.332-5.891-2.85c-1.097,0.74-1.932,1.813-2.583,3.043
		c-5.307-27.454-24.239-47.053-45.953-47.053c-22.803,0-42.233,21.418-46.537,50.499c-0.664-2.799-2.017-5.218-4.211-7.192
		c-0.344-0.312-0.7-0.606-1.085-0.894c-0.593-0.441-1.364,0.032-1.56,0.69c-2.538,8.235-0.13,15.072,5.475,19.845
		c-1.228,4.185-1.755,8.677-1.388,13.041c0.005,0.063,0.012,0.122,0.029,0.179c0.356,14.133,5.481,28.336,13.34,39.479
		c3.73,5.297,8.452,8.74,13.606,12.261c2.924,1.999,6.209,4.132,8.876,6.81c-0.197,0.141-0.321,0.382-0.247,0.69
		c0.627,2.6,1.819,4.772,4.042,6.319c0.219,0.152,0.49,0.155,0.727,0.062c0.019,0.057,0.042,0.111,0.06,0.168
		c0.451,1.476,1.976,2.23,3.274,1.431c0.474-0.294,0.955-0.582,1.441-0.869c7.219-4.287,14.829-7.916,21.525-13.143
		c6.726-5.252,11.204-12.171,15.588-19.628c4.098-6.977,7.937-14.133,10.889-21.769c1.976-5.104,3.921-11.487,2.604-17.084
		c0.659-1.061,1.37-2.077,2.099-3.086c0.392-0.026,0.778-0.281,0.991-0.844c0.142-0.377,0.291-0.754,0.445-1.13
		c0.078-0.205,0.16-0.41,0.242-0.607c1.175-2.875,2.486-5.673,3.483-8.632C240.114,57.099,241.187,53.138,239.871,50.211z
		 M178.39,142.117c0.022,0.05,0.043,0.1,0.066,0.15c-0.009,0.058-0.017,0.115-0.027,0.173c-0.054-0.083-0.106-0.167-0.16-0.249
		C178.309,142.166,178.35,142.141,178.39,142.117z M185.444,7.186c19.618,0,36.809,17.862,42,43.017
		c-0.243,0.268-0.383,0.615-0.334,1.024c0.598,5.03,1.466,10.22,1.466,15.357c-0.208,1.246-0.463,2.481-0.776,3.702
		c-0.564,0.306-1.034,0.837-1.258,1.527c-2.296,7.06-4.242,14.235-6.993,21.117c-0.112,0.281-0.226,0.562-0.344,0.843
		c-1.886,2.735-3.938,5.335-6.014,7.917c0.104-1.632,0.277-3.269,0.389-4.894c0.305-1.154,0.499-2.367,0.562-3.646
		c0.026-0.552-0.069-1.017-0.241-1.412c-0.03-5.085-1.398-10.048-5.595-13.232c-5.579-4.233-15.145-1.962-21.514-1.688
		c-2.106,0.091-2.111,3.195,0,3.273c5.417,0.198,11.238-0.327,16.419,1.565c5.205,1.9,4.283,9.406,3.598,13.66
		c-0.14,0.869-0.305,1.754-0.493,2.645c-2.703,4.382-8.124,7.229-13.479,8.912c-0.132-0.07-0.269-0.143-0.398-0.211
		c-0.74-0.392-1.576-0.461-2.371-0.299c-3.345-0.77-6.752-1.048-8.872-4.467c-0.414-0.677-1.227-0.44-1.465,0.115
		c-0.119-0.013-0.243,0.032-0.373,0.134c-2.409,1.987-5.137,2.479-7.901,3.59c-0.381,0.152-0.613,0.423-0.743,0.73
		c-2.593-1.384-4.959-3.082-7.122-5.058c-0.912-3.375-1.667-6.856-2.331-10.349l-0.582,0.134c-0.211-1.125-1.112-2.052-2.073-2.072
		c-0.016-0.083-0.033-0.165-0.048-0.247c-0.28-1.497-0.523-2.581-0.544-3.942c0.021,0.3,0.123-0.44,0.321-0.798
		c0.187-0.338,0.51-0.546,0.822-0.746c1.058-0.679,2.503-0.755,3.717-0.832c6.211-0.39,12.758,0.675,18.421-2.574
		c1.157-0.663,1.003-2.212,0.189-2.939c0.132-0.188,0.235-0.385,0.282-0.597c-0.141,0.161-0.245,0.351-0.332,0.55
		c-0.385-0.316-0.905-0.454-1.501-0.246c-3.346,1.167-7.063,0.341-10.5-0.033c-3.568-0.389-7.04-0.688-10.584,0.06
		c-3.129,0.661-5.848,2.923-6.881,5.966c-0.657,1.933-0.236,3.953,0.039,5.922c0.162,1.155,0.346,2.311,0.541,3.465
		c-3.28-0.405-6.767-4.094-9.177-8.242c-0.389-2.025-0.664-4.061-0.858-6.105l0.204-0.032c-0.184-1.192-0.343-2.455-0.474-3.752
		L142.231,74c-0.203-3.688-0.238-7.399-0.323-11.123c0.054-1.41,0.139-2.83,0.271-4.241C144.89,29.305,163.49,7.186,185.444,7.186z
		 M133.723,48.678c2.687,2.396,4.04,5.847,4.217,9.699c0.015,0.315,0.169,0.521,0.366,0.641c-0.129,1.524-0.224,3.057-0.265,4.571
		l0.374,0.01c0,0.121-0.002,0.242-0.002,0.362c-0.125,0.14-0.231,0.311-0.306,0.523c0,0.006,0,0.006-0.005,0.013
		C133.479,60.364,132.21,55.738,133.723,48.678z M238.244,55.183c-0.795,5.066-3.493,9.533-5.337,14.19
		c-0.138,0.345-0.149,0.658-0.084,0.92c-0.498,0.741-0.984,1.489-1.446,2.255c-0.03-0.083-0.06-0.166-0.095-0.249
		c1.145-3.393,1.814-6.958,1.827-10.606c0.002-1.089-0.592-1.743-1.324-1.982c0-0.046-0.001-0.093-0.002-0.14l0.847-0.057
		c-0.031-0.465-0.074-0.923-0.117-1.389l-0.775,0.074c-0.051-0.97-0.141-1.938-0.28-2.889c0.145-0.564,0.31-1.124,0.5-1.673l0.003,0
		c-0.001-0.002-0.001-0.004-0.001-0.007c0.519-1.499,1.223-2.91,2.24-4.052c1.275-1.424,3.049-0.083,3.784,1.214
		C238.69,52.032,238.453,53.834,238.244,55.183z"/>
	<path d="M205.609,55.293c-4.823,2.024-9.86,0.316-13.897-2.973c-0.886-0.724-1.918,0.692-1.047,1.432
		c4.501,3.831,10.251,5.808,15.707,3.515C207.554,56.773,206.787,54.799,205.609,55.293z"/>
	<path d="M177.081,66.191c-0.54-0.671-1.412,0.294-0.896,0.965c2.503,3.233,5.671,5.936,9.787,5.584
		c3.891-0.332,7.236-3.495,9.882-6.307c0.711-0.76-0.375-1.917-1.097-1.182c-2.415,2.459-5,4.741-8.287,5.629
		C182.614,71.922,179.436,69.111,177.081,66.191z"/>
	<path d="M174.042,53.028c-2.555,3.419-6.414,3.215-9.792,1.874c-1.101-0.442-1.849,1.559-0.798,2.081
		c4.175,2.077,8.986,1.185,11.818-2.989C175.797,53.215,174.598,52.276,174.042,53.028z"/>
	<path d="M181.932,88.865c-0.829-0.809-1.889-1.035-3.036-1.526c-0.863-0.37-1.636,0.733-1.011,1.272
		c-4.132,0.164-7.983-0.932-11.828-2.498c0.563-0.323,0.452-1.369-0.349-1.358c-0.647,0.008-1.398,0.166-1.996,0.417
		c-0.44,0.185-1.011,0.7-0.612,1.227c0.334,0.441,0.816,0.456,1.331,0.46c0.304,0.002,0.499-0.153,0.608-0.357
		c-0.132,0.332-0.078,0.736,0.298,0.896c4.411,1.875,8.95,3.311,13.789,2.708c0.391-0.049,0.63-0.322,0.715-0.628
		c0.431,0.219,0.814,0.498,1.064,0.933c0.261,0.454,0.789,0.528,1.23,0.322c1.142-0.532,2.403-0.922,3.468-1.612
		c0.082,0.115,0.197,0.206,0.365,0.232c4.154,0.644,8.39,0.174,12.088-1.903c0.12-0.068,0.207-0.152,0.271-0.245
		c0.384,0.492,1.392,0.341,1.356-0.443c-0.062-1.405-1.26-2.601-2.668-2.615c-0.905-0.009-0.896,1.357,0,1.397
		c0.361,0.016,0.682,0.216,0.86,0.456c0.001,0.002,0.002,0.004,0.004,0.006c-0.188-0.065-0.404-0.056-0.626,0.069
		c-3.301,1.853-7.047,2.379-10.77,1.938c-0.068-0.649-0.962-1.217-1.631-0.637C184.054,88.067,182.941,88.444,181.932,88.865z
		 M165.102,86.37c0.007-0.021,0.006-0.045,0.011-0.067c0.014-0.003,0.028-0.007,0.042-0.01
		C165.137,86.318,165.118,86.343,165.102,86.37z"/>
	<path d="M188.12,94.478c-3.847,3.597-9.833,4.009-13.601,0.085c-0.641-0.667-1.628,0.333-1.01,1.009
		c4.286,4.687,11.292,4.225,15.79,0.084C190.091,94.928,188.905,93.744,188.12,94.478z"/>
	<path d="M190.626,35.855c3.568-0.079,7.118,0.031,10.619,0.764c3.854,0.808,6.751,3.025,9.509,5.736
		c2.078,2.043,5.297-1.177,3.193-3.193c-2.924-2.802-6.259-5.025-10.284-5.824c-4.291-0.852-8.778,0.343-13.037,0.823
		C189.568,34.279,189.509,35.88,190.626,35.855z"/>
	<path d="M156.547,39.565c3.598-1.675,7.145-3.191,11.067-3.889c4.208-0.749,8.226,0.093,12.239,1.327
		c2.575,0.792,3.591-3.12,1.1-3.991c-8.778-3.07-17.546,1.045-25.253,5.105C154.732,38.627,155.582,40.015,156.547,39.565z"/>
</g>
<g>
	<g>
		<path d="M118.709,367.944c-0.943-2.083-3.702-4.332-5.89-2.85c-1.097,0.74-1.932,1.813-2.583,3.044
			c-5.307-27.455-24.239-47.054-45.953-47.054c-22.803,0-42.232,21.418-46.537,50.499c-0.664-2.799-2.017-5.219-4.211-7.193
			c-0.344-0.312-0.7-0.606-1.086-0.894c-0.593-0.441-1.364,0.032-1.56,0.69c-2.539,8.236-0.13,15.072,5.475,19.845
			c-1.228,4.185-1.755,8.677-1.388,13.041c0.006,0.063,0.012,0.122,0.03,0.179c0.355,14.133,5.481,28.336,13.339,39.479
			c3.731,5.297,8.452,8.741,13.607,12.261c5.148,3.521,11.423,7.45,13.458,14.05c0.451,1.476,1.975,2.23,3.274,1.432
			c0.474-0.294,0.955-0.582,1.441-0.869c7.219-4.288,14.829-7.917,21.525-13.143c6.727-5.252,11.204-12.172,15.587-19.628
			c4.099-6.977,7.937-14.133,10.89-21.769c1.976-5.104,3.921-11.488,2.604-17.084c0.659-1.061,1.371-2.077,2.1-3.086
			c0.392-0.025,0.777-0.281,0.991-0.843c0.142-0.377,0.291-0.754,0.445-1.131c0.018-0.025,0.036-0.051,0.054-0.077
			c0.125-0.179,0.189-0.364,0.189-0.53c1.175-2.875,2.486-5.674,3.482-8.632C118.952,374.833,120.025,370.871,118.709,367.944z
			 M35.47,421.027c-0.139-0.5-0.273-1.002-0.403-1.507c0.102,0.137,0.208,0.277,0.316,0.417
			C35.43,420.297,35.455,420.662,35.47,421.027z M64.283,324.919c19.619,0,36.81,17.862,42.001,43.017
			c-0.243,0.268-0.383,0.615-0.334,1.025c0.598,5.029,1.467,10.218,1.466,15.355c-0.208,1.247-0.464,2.483-0.777,3.704
			c-0.564,0.307-1.033,0.837-1.258,1.527c-2.295,7.06-4.241,14.236-6.993,21.117c-0.113,0.281-0.226,0.563-0.344,0.844
			c-1.205,1.748-2.481,3.438-3.785,5.105c0.177-0.935,0.324-1.866,0.439-2.788c0.995-7.999,0.127-18.368-9.897-18.892
			c-7.528-0.393-14.412,5.012-22.022,3.532c-1.711-0.333-2.436,2.143-0.726,2.634c5.531,1.588,11.579,0.336,17.165-0.304
			c2.12-0.243,4.979-0.613,7.004,0.301c2.449,1.105,2.553,4.275,2.608,6.598c0.118,4.919-1.149,10.913-3.719,15.936
			c-1.396,1.502-3.352,2.191-6.034,2.394c-1.964,0.148-3.941-0.026-5.873-0.384c-0.85-0.158-1.686-0.427-2.523-0.677
			c-0.134-0.282-0.377-0.512-0.744-0.611c-1.366-0.375-2.766-0.602-4.105-0.937c-0.418-0.346-0.827-0.702-1.228-1.066
			c0.075-0.316,0.02-0.659-0.237-0.875c-0.119-0.1-0.24-0.189-0.36-0.28c0.187-0.539,0.003-1.205-0.675-1.327
			c-0.592-0.107-1.116-0.281-1.663-0.545c-0.686-0.331-1.279,0.011-1.472,0.541c-0.053-0.079-0.109-0.15-0.16-0.233
			c-0.415-0.677-1.228-0.44-1.465,0.116c-0.087,0.205-0.094,0.45,0.021,0.711c-0.218,0.292-0.252,0.702,0.061,0.975
			c-1.182,1.355-2.737,2.53-4.393,3.387c0.138,0.185,0.251,0.393,0.339,0.62c-1.226,0.085-2.452,0.192-3.684,0.274
			c-2.067,0.138-3.934-0.037-5.758-0.487c-1.27-1.766-2.486-3.58-3.811-5.301c-0.682-5.94-5.81-11.742-4.373-17.742
			c0.702-2.93,5.042-1.5,7.081-1.23c3.215,0.424,6.562,0.91,9.749,0.038c1.573-0.431,0.899-2.707-0.665-2.411
			c-6.612,1.252-16.944-7.364-20.939,1.591c-1.36,3.047-0.945,6.522-0.094,9.73c-3.481,0.099-7.308-3.823-9.895-8.276
			c-0.389-2.025-0.664-4.061-0.858-6.105l0.204-0.031c-0.183-1.184-0.342-2.447-0.474-3.753l-0.012,0.001
			c-0.203-3.687-0.238-7.396-0.322-11.118c0.053-1.408,0.138-2.829,0.271-4.245C23.729,347.038,42.328,324.919,64.283,324.919z
			 M12.562,366.411c2.687,2.396,4.039,5.847,4.217,9.7c0.015,0.315,0.168,0.521,0.365,0.641c-0.129,1.527-0.224,3.061-0.265,4.572
			l0.374,0.01c0,0.121-0.003,0.241-0.003,0.362c-0.125,0.139-0.23,0.31-0.305,0.523c0,0.006,0,0.006-0.006,0.012
			C12.319,378.097,11.05,373.471,12.562,366.411z M117.083,372.916c-0.795,5.066-3.494,9.533-5.338,14.191
			c-0.137,0.345-0.149,0.657-0.083,0.919c-0.498,0.741-0.985,1.489-1.447,2.256c-0.03-0.083-0.06-0.166-0.095-0.249
			c1.145-3.393,1.814-6.958,1.827-10.607c0.003-1.089-0.591-1.743-1.323-1.982c0-0.046-0.001-0.093-0.002-0.139l0.847-0.056
			c-0.029-0.444-0.07-0.882-0.111-1.326l-0.779,0.047c-0.05-0.983-0.141-1.964-0.282-2.928c0.145-0.564,0.309-1.124,0.499-1.672
			l0.003,0c0-0.002-0.001-0.004-0.001-0.006c0.519-1.499,1.224-2.91,2.241-4.052c1.274-1.425,3.048-0.083,3.784,1.214
			C117.528,369.765,117.291,371.567,117.083,372.916z"/>
		<path d="M84.448,373.027c-4.823,2.024-9.86,0.315-13.897-2.973c-0.886-0.725-1.917,0.692-1.047,1.431
			c4.502,3.831,10.252,5.808,15.707,3.516C86.393,374.506,85.625,372.532,84.448,373.027z"/>
		<path d="M61.839,381.924c-3.891,0.332-7.236,3.495-9.881,6.306c-0.712,0.76,0.374,1.917,1.097,1.182
			c2.414-2.459,5-4.741,8.287-5.628c3.855-1.042,7.034,1.77,9.389,4.689c0.54,0.671,1.413-0.294,0.896-0.965
			C69.123,384.275,65.955,381.572,61.839,381.924z"/>
		<path d="M60.605,394.179c-0.201,0.23-0.35,0.511-0.439,0.812C60.398,394.748,60.541,394.473,60.605,394.179z"/>
		<path d="M42.292,374.716c4.175,2.076,8.985,1.184,11.817-2.989c0.528-0.778-0.671-1.717-1.228-0.965
			c-2.556,3.418-6.415,3.215-9.792,1.874C41.988,372.193,41.24,374.194,42.292,374.716z"/>
		<path d="M51.67,368.897c0.071-0.292,0.108-0.591,0.112-0.88c0.03-0.072,0.056-0.157,0.076-0.238
			c0.22-0.894-0.161-1.783-0.877-2.176c-0.446-0.57-1.06-0.983-1.785-1.162c-1.861-0.456-3.769,0.799-4.26,2.803
			c-0.492,2.005,0.62,3.995,2.481,4.451C49.271,372.152,51.179,370.902,51.67,368.897z"/>
		<path d="M42.898,408.768c-0.755,0.469-0.075,1.646,0.698,1.194c4.623-2.705,8.706-2.582,13.724-1.35
			c3.361,0.825,6.735,1.372,10.188,0.822c2.67-0.426,5.189-1.715,7.751-2.53c4.219-1.343,5.97,0.497,6.587,4.658
			c0.174,1.167,2.213,0.893,2.064-0.279c-0.366-2.882-1.267-5.944-4.413-6.711c-2.905-0.708-6.292,1.077-8.922,2.051
			c-4.634,1.717-8.872,1.192-13.62,0.111C51.794,405.557,47.471,405.932,42.898,408.768z"/>
		<path d="M73.796,415.506c-3.994-1.795-7.936-1.154-12.036-0.058c-5.319,1.421-10.52,3.097-14.819-1.47
			c-0.627-0.667-1.605,0.325-0.999,0.999c3.023,3.357,6.69,4.34,11.086,3.655c5.228-0.814,10.487-3.723,15.73-1.35
			C73.958,417.824,75.003,416.048,73.796,415.506z"/>
		<path d="M52.226,358.492c-5.028,3.48-10.069,6.399-16.208,7.333c-0.842,0.129-0.646,1.583,0.202,1.491
			c6.213-0.679,12.242-2.925,17.218-6.75C54.63,359.648,53.523,357.594,52.226,358.492z"/>
		<path d="M87.649,366.574c-4.899-1.024-9.669-3.632-12.967-7.422c-1.041-1.197-2.795,0.557-1.74,1.739
			c1.092,1.225,2.365,2.306,3.754,3.242c-1.78,0.342-3.01,2.117-2.776,4.083c0.246,2.049,1.986,3.521,3.889,3.294
			c1.896-0.227,3.242-2.067,2.997-4.117c-0.051-0.428-0.171-0.828-0.34-1.195c2.244,0.981,4.629,1.637,6.971,1.939
			C88.331,368.253,88.519,366.756,87.649,366.574z"/>
		<path d="M32.684,360.126c9.413,2.042,17.677-2.267,25.015-7.775c2.065-1.55,0.128-5.069-2.067-3.536
			c-6.623,4.624-13.711,10.14-22.266,8.837C31.771,357.41,31.038,359.77,32.684,360.126z"/>
		<path d="M69.911,352.672c5,5.338,12.541,11.762,20.456,9.867c1.967-0.471,1.552-3.61-0.477-3.528
			c-7.154,0.289-13.169-3.28-18.357-7.96C70.437,350.063,68.896,351.588,69.911,352.672z"/>
		<path d="M53.133,344.772c6.63,3.602,14.51,3.356,21.648,1.518c1.059-0.272,0.609-1.909-0.451-1.636
			c-6.693,1.723-14.17,2.103-20.521-1.038C53.041,343.238,52.369,344.357,53.133,344.772z"/>
		<path d="M62.728,344.114c4.608,2.039,11.177-0.299,15.896-0.982c1.124-0.163,0.651-1.883-0.471-1.708
			c-2.372,0.367-4.729,0.826-7.099,1.209c-2.349,0.38-5.492,1.138-7.829,0.3C62.54,342.686,62.059,343.817,62.728,344.114z"/>
		<ellipse transform="matrix(0.5072 -0.8618 0.8618 0.5072 -307.3825 242.6584)" cx="58.503" cy="390.122" rx="1.62" ry="2.566"/>
		<ellipse transform="matrix(-0.3031 -0.953 0.953 -0.3031 -284.6945 570.4745)" cx="66.249" cy="389.337" rx="1.621" ry="2.567"/>
		<path d="M29.872,384.399c0.247,0.756,1.451,0.427,1.193-0.33c-0.434-1.275-0.867-2.551-1.301-3.827
			c-0.245-0.721-1.387-0.417-1.147,0.316C29.036,381.839,29.454,383.119,29.872,384.399z"/>
		<path d="M31.664,383.679c0.328,0.684,1.353,0.086,1.017-0.594c-0.479-0.97-0.815-2.002-1.293-2.973
			c-0.327-0.663-1.302-0.083-0.986,0.577C30.87,381.666,31.196,382.702,31.664,383.679z"/>
		<path d="M32.998,379.575c-0.512-0.522-1.292,0.266-0.799,0.798c0.837,0.906,1.25,2.11,2.092,3.02
			c0.542,0.586,1.435-0.304,0.875-0.875C34.306,381.642,33.862,380.455,32.998,379.575z"/>
		<path d="M89.656,379.383c0.368,0.839,0.321,1.825,0.307,2.721c-0.011,0.729,1.142,0.729,1.13,0
			c-0.018-1.104-0.061-2.229-0.544-3.242C90.259,378.253,89.393,378.785,89.656,379.383z"/>
		<path d="M93.215,382.257c0.358-1.177,0.418-2.338,0.404-3.561c-0.008-0.69-1.062-0.69-1.07,0c-0.014,1.127-0.09,2.178-0.447,3.254
			C91.868,382.657,92.999,382.969,93.215,382.257z"/>
		<path d="M95.708,382.392c0.512-1.104,0.906-2.362,0.379-3.53c-0.24-0.532-1.167-0.143-0.945,0.398
			c0.348,0.847-0.031,1.788-0.42,2.556C94.387,382.476,95.4,383.054,95.708,382.392z"/>
		<path d="M2.461,340.634c2.302,1.172,4.962,2.066,7.562,2.041c0.06,0,0.114-0.009,0.169-0.018c0.22,0.127,0.441,0.255,0.663,0.383
			c0.992,0.57,1.854-0.921,0.892-1.526c-0.4-0.251-0.794-0.496-1.185-0.731c-0.04-0.027-0.08-0.053-0.125-0.074
			c-2.411-1.438-4.713-2.456-7.723-2.006C1.804,338.839,1.695,340.244,2.461,340.634z"/>
		<path d="M6.589,354.187c-1.192,0.249-2.392-0.132-3.588,0.078c-1.443,0.253-1.996,1.843-2.243,3.083
			c-0.122,0.613,0.275,1.275,0.958,1.258c1.899-0.049,3.065-1.28,4.734-1.964c0.353-0.145,0.555-0.421,0.63-0.721
			C8.199,355.64,7.714,353.952,6.589,354.187z"/>
		<path d="M110.935,335.849c0.105-0.104,0.208-0.21,0.312-0.315c0.073-0.017,0.148-0.041,0.224-0.076
			c2.199-1.016,4.588-1.493,6.056-3.574c0.409-0.579-0.137-1.415-0.801-1.396c-1.359,0.036-2.634,0.272-3.778,1.042
			c-0.875,0.587-1.609,1.382-2.329,2.171c-0.045,0.021-0.094,0.039-0.139,0.062c-0.303,0.152-0.452,0.379-0.491,0.622
			c-0.083,0.089-0.167,0.179-0.251,0.266C108.975,335.435,110.156,336.618,110.935,335.849z"/>
		<path d="M114.579,346.688c-0.497-0.303-0.958-0.018-1.126,0.395c-0.685,0.093-1.236,0.984-0.598,1.621
			c1.203,1.2,2.518,2.536,4.047,3.309c0.533,0.27,1.166,0.043,1.344-0.546c0.395-1.305,0.664-2.816-0.585-3.723
			C116.778,347.102,115.516,347.26,114.579,346.688z M116.706,349.185c-0.02-0.012,0.076,0.069,0.077,0.072
			c0.059,0.157,0.064,0.338,0.044,0.523c-0.371-0.28-0.728-0.589-1.074-0.91c0.191,0.051,0.383,0.102,0.576,0.157
			C116.489,349.074,116.565,349.104,116.706,349.185z"/>
		<path d="M55.31,376.256c0.571-0.721-0.442-1.749-1.02-1.02c-3.415,4.312-8.017,6.142-13.209,3.766
			c-0.777-0.355-1.458,0.789-0.675,1.155C46.119,382.829,51.464,381.112,55.31,376.256z"/>
		<path d="M81.435,378.855c-3.886,1.229-7.436,1.013-10.944-1.163c-0.777-0.482-1.481,0.735-0.713,1.219
			c3.794,2.393,7.81,2.701,12.057,1.393C82.758,380.02,82.361,378.563,81.435,378.855z"/>
	</g>
	
		<ellipse transform="matrix(0.1186 0.9929 -0.9929 0.1186 432.2391 246.0136)" fill="#FFFFFF" cx="77.541" cy="366.486" rx="1.727" ry="1.601"/>
	
		<ellipse transform="matrix(0.1186 0.9929 -0.9929 0.1186 407.2616 274.6496)" fill="#FFFFFF" cx="48.924" cy="366.73" rx="1.727" ry="1.601"/>
</g>
<g>
	<g>
		<path d="M117.407,520.832c-0.943-2.083-3.701-4.332-5.89-2.85c-1.097,0.74-1.931,1.813-2.583,3.044
			c-5.308-27.455-24.24-47.054-45.953-47.054c-22.804,0-42.234,21.419-46.537,50.499c-0.664-2.799-2.017-5.218-4.212-7.192
			c-0.344-0.312-0.7-0.606-1.085-0.894c-0.593-0.441-1.364,0.032-1.56,0.69c-2.388,7.748-0.396,14.256,4.515,18.974
			c-0.403,3.154-0.669,6.348-0.782,9.555c-2.163,14.629,2.155,33.254,9.389,42.418c0.082,0.104,0.167,0.205,0.249,0.31
			c0.055,0.093,0.105,0.188,0.16,0.281c0.37,0.631,0.757,1.254,1.152,1.874c0.576,1.51,1.192,2.926,1.694,4.128
			c2.651,6.346,6.071,12.356,10.126,17.911c4.529,6.204,12.696,14.886,20.912,14.493c1.128,0.96,2.277,1.895,3.452,2.795
			c0.652,0.969,1.276,1.946,1.869,2.933c0.315-0.287,0.631-0.577,0.947-0.866c0.712,0.485,1.766,0.263,2.346-0.312
			c10.812-10.725,23.947-19.186,31.935-32.475c5.001-8.32,7.715-17.83,9.408-27.322c1.527-8.562,2.324-17.303,2.631-26.057
			c0.703-0.254,1.294-0.847,1.38-1.779c0.047-0.514,0.092-1.031,0.134-1.551c0.142-0.2,0.281-0.402,0.424-0.602
			c0.392-0.025,0.778-0.281,0.991-0.844c0.142-0.377,0.291-0.754,0.445-1.131c0.077-0.204,0.16-0.409,0.242-0.606
			c1.175-2.876,2.486-5.674,3.483-8.632C117.65,527.72,118.724,523.758,117.407,520.832z M56.963,594.747
			c0.053,0.054,0.106,0.107,0.166,0.155c-0.073,0.09-0.146,0.175-0.219,0.263C56.932,595.025,56.949,594.887,56.963,594.747z
			 M61.776,599.932c-0.115-0.244-0.229-0.491-0.342-0.74c0.142,0.262,0.287,0.521,0.436,0.779
			C61.838,599.958,61.807,599.945,61.776,599.932z M62.981,477.806c20.646,0,38.614,19.776,42.725,47.023l0.006-0.001
			c0.016,3.415,0.047,6.901,0.051,10.432c-0.397,0.277-0.674,0.755-0.594,1.35c1.514,11.145-1.803,21.252-7.871,30.513
			c-0.104,0.159-0.213,0.315-0.319,0.474c0.027-0.709,0.027-1.417-0.012-2.122c-0.373-6.653-4.212-10.962-9.254-13.939
			c-2.346-2.526-5.239-4.563-8.402-5.87c-5.092-2.102-10.427-1.478-15.569,0.199c-1.746,0.57-1.019,3.299,0.762,2.765
			c8.085-2.427,17.046,1.812,21.705,8.616c5.237,7.646,4.162,16.927-1.629,23.875c-0.623,0.748-0.682,1.597-0.418,2.311
			c-5.134,6.399-10.405,12.636-16.966,17.517c-0.005,0-0.009,0.001-0.014,0.001c-2.353-2.208-4.255-5.555-5.585-7.872
			c-0.241-0.419-0.642-0.612-1.058-0.637c-0.24-0.838-0.918-1.531-2.049-1.531c-1.288,0-1.993,0.896-2.125,1.885
			c-0.612-0.22-1.443,0.116-1.514,0.979c-0.126,1.552-0.716,2.768-1.573,3.775c-0.687,0.266-1.356,0.542-1.927,0.879
			c-0.664-0.319-1.309-0.666-1.934-1.038c-0.153-0.185-0.309-0.366-0.463-0.548c-2.472-3.065-4.864-6.195-7.283-9.304
			c-1.22-1.827-2.553-3.578-4.011-5.236c-0.42-1.331-0.865-2.641-1.247-3.911c-0.85-2.827-1.702-5.686-2.325-8.584
			c0.051-0.165,0.089-0.337,0.11-0.518c0.312-2.623,0.27-5.063,0.996-7.654c0.723-2.579,1.997-4.975,3.503-7.177
			c0.917-1.341,1.985-2.552,3.171-3.562c1.27-0.77,2.585-1.521,3.879-2.307c2.009-0.729,4.214-0.867,6.544-0.143
			c1.564,0.486,2.118-1.825,0.662-2.399c-6.295-2.485-12.977-1.124-17.573,3.9c-0.753,0.823-1.481,1.765-2.168,2.783
			c-2.394,1.999-4.138,4.594-4.579,8.329c-0.208,1.764-0.204,3.518-0.058,5.262c-0.015,1.267,0.104,2.504,0.398,3.674
			c0.054,0.214,0.126,0.404,0.208,0.58c0.117,0.599,0.245,1.194,0.38,1.789c-1.167-2.151-2.164-4.473-3.038-6.89
			c-0.599-1.791-1.142-3.605-1.622-5.447c-2.492-9.566-3.456-19.455-5.312-29.159c0.039-0.538,0.074-1.075,0.125-1.61
			C22.426,499.925,41.026,477.806,62.981,477.806z M11.259,519.298c2.688,2.396,4.04,5.847,4.218,9.699
			c0.015,0.314,0.169,0.521,0.366,0.641c-0.065,0.77-0.123,1.539-0.166,2.312c-0.509-0.019-1.012,0.234-1.105,0.818
			c-0.061,0.377-0.115,0.755-0.171,1.134C10.807,530.064,9.894,525.676,11.259,519.298z M115.781,525.803
			c-0.671,4.276-2.697,8.126-4.421,12.023c0.128-4.692-0.232-9.441-1.784-13.812c0.511-1.411,1.198-2.733,2.161-3.815
			c1.275-1.424,3.049-0.083,3.784,1.214C116.227,522.652,115.989,524.454,115.781,525.803z"/>
		<path d="M50.787,540.364c-0.713,0.76,0.373,1.917,1.097,1.182c2.414-2.459,5-4.74,8.286-5.628c3.855-1.042,7.035,1.77,9.39,4.689
			c0.539,0.671,1.412-0.294,0.895-0.965c-2.502-3.233-5.67-5.936-9.786-5.584C56.777,534.39,53.431,537.553,50.787,540.364z"/>
		<ellipse transform="matrix(0.8619 0.5071 -0.5071 0.8619 282.9082 45.8247)" cx="57.332" cy="542.257" rx="2.567" ry="1.62"/>
		<ellipse transform="matrix(-0.303 -0.953 0.953 -0.303 -431.2318 767.5316)" cx="65.077" cy="541.471" rx="1.621" ry="2.566"/>
		<path d="M51.239,517.093c1.712,0.403,2.443-2.358,0.724-2.735c-7.739-1.719-13.218,3.042-16.079,10.236
			c-0.411,1.034,1.228,1.718,1.718,0.754C40.469,519.713,44.777,515.566,51.239,517.093z"/>
		<path d="M87.245,526.817c0.417,1.406,2.492,0.818,2.117-0.606c-1.056-4.006-2.995-7.52-6.505-9.654
			c-2.939-1.783-6.714-1.802-10.009-1.732c-1.117,0.026-1.111,1.77,0,1.802c2.859,0.09,5.719,0.313,8.34,1.591
			C84.599,519.885,86.177,523.246,87.245,526.817z"/>
		<path d="M53.552,524.307c0.338-0.881-1.098-1.508-1.473-0.646c-1.725,3.93-5.651,4.651-9.376,4.153
			c-1.216-0.166-1.474,1.955-0.289,2.211C47.121,531.048,51.736,529.035,53.552,524.307z"/>
		<path d="M83.525,528.166c-5.205,1.438-10.168-0.855-13.913-4.601c-0.822-0.824-2.056,0.46-1.251,1.298
			c4.154,4.337,9.819,6.983,15.704,5.354C85.342,529.866,84.796,527.814,83.525,528.166z"/>
		<path d="M35.294,515.783c1.982-4.016,4.127-8.549,9.069-8.468c4.284,0.071,8.486,0.22,12.777,0.053
			c2.294-0.086,2.403-3.405,0.105-3.688c-4.894-0.603-10.117-3.034-14.958-1.097c-4.545,1.822-7.052,7.687-8.935,11.941
			C32.767,515.864,34.617,517.143,35.294,515.783z"/>
		<path d="M68.612,506.464c7.217-1.538,18.064-2.95,19.977,6.675c0.446,2.25,3.389,1.39,3.583-0.59
			c1.361-14.35-15.909-10.492-24.197-8.462C66.457,504.458,67.111,506.787,68.612,506.464z"/>
		<path d="M73.301,522.141c0,2.064,1.608,3.731,3.59,3.731c1.976,0,3.584-1.667,3.584-3.731s-1.608-3.738-3.584-3.738
			C74.909,518.403,73.301,520.077,73.301,522.141z"/>
		<path d="M48.917,519.115c-0.59-0.446-1.313-0.712-2.097-0.712c-1.982,0-3.59,1.674-3.59,3.738s1.608,3.731,3.59,3.731
			c1.976,0,3.584-1.667,3.584-3.731c0-0.31-0.04-0.609-0.108-0.897c0.009-0.078,0.022-0.154,0.022-0.234
			C50.318,520.098,49.724,519.338,48.917,519.115z"/>
		<path d="M39.539,559.392c-0.713,2.489,0.454,5.079,1.382,7.331c0.819,1.985,1.514,3.939,1.81,5.974
			c-0.345,0.253-0.578,0.668-0.558,1.269c0.296,8.824,5.562,15.782,14.687,16.191c8.501,0.382,17.384-4.699,23.183-10.555
			c5.645-5.7,8.981-14.18,4.589-21.615c-2.489-4.215-8.285-5.768-12.732-6.604c-5.759-1.085-11.841-1.133-17.635-0.31
			C49.078,551.811,41.19,553.628,39.539,559.392z M49.486,579.149c0-0.203-0.003-0.406-0.007-0.608
			c0.035,0.024,0.073,0.047,0.109,0.069c-0.008,0.225-0.018,0.447-0.024,0.672C49.54,579.237,49.512,579.194,49.486,579.149z
			 M52.995,566.311c-0.103,0.075-0.193,0.168-0.274,0.27c-0.039-0.05-0.071-0.104-0.111-0.153c-0.059-0.072-0.131-0.126-0.202-0.182
			c0.027-0.043,0.052-0.086,0.073-0.131C52.651,566.181,52.824,566.243,52.995,566.311z M68.611,572.22
			c-0.08-0.145-0.165-0.286-0.256-0.425c0.414,0.03,0.823,0.032,1.224,0.003C69.302,571.996,68.977,572.134,68.611,572.22z
			 M58.99,577.554c0.001,0.181,0.002,0.361,0.003,0.542c-0.147-0.15-0.304-0.291-0.471-0.423
			C58.675,577.632,58.832,577.593,58.99,577.554z M48.954,571.27c0.002,0.005,0.003,0.009,0.004,0.014c-0.001,0-0.002,0-0.004,0.001
			C48.954,571.279,48.954,571.274,48.954,571.27z M76.396,574.53c0.009-0.014,0.018-0.027,0.026-0.041c0,0.014,0,0.027,0,0.041
			C76.414,574.53,76.405,574.53,76.396,574.53z M43.477,566.354c0.359,0.221,0.719,0.438,1.082,0.639
			c-0.255,0.166-0.511,0.332-0.767,0.499C43.686,567.113,43.581,566.734,43.477,566.354z M48.236,569.723
			c0.053-0.002,0.107-0.004,0.161-0.006c0.024,0.13,0.052,0.26,0.085,0.39c-0.15-0.11-0.326-0.206-0.515-0.305
			C48.057,569.784,48.146,569.759,48.236,569.723z M50.116,562.241c0.073-0.126,0.143-0.253,0.209-0.38
			c0.062,0.081,0.127,0.159,0.192,0.238C50.376,562.127,50.242,562.175,50.116,562.241z M48.953,563.835
			c-0.008,0.004-0.016,0.006-0.024,0.009c0.008-0.009,0.017-0.017,0.025-0.025C48.954,563.824,48.953,563.83,48.953,563.835z
			 M45.414,573.965c-0.05-0.429-0.231-0.766-0.48-1.02c-0.079-0.871-0.224-1.727-0.408-2.574c0.098-0.015,0.199-0.04,0.304-0.078
			c0.233-0.085,0.467-0.153,0.701-0.215c0.873,0.118,2.059,0.466,2.045,1.232c-0.014,0.8,0.092,2.133-0.454,2.787
			c-0.502,0.603,0.166,1.432,0.736,1.214c-0.017,0.748-0.093,1.541-0.523,2.115c-0.465-0.063-0.896,0.039-1.296,0.231
			C45.734,576.439,45.555,575.184,45.414,573.965z M60.545,581.149c-0.007-0.033-0.018-0.062-0.025-0.095
			c0.038-0.01,0.076-0.019,0.113-0.027C60.604,581.067,60.575,581.109,60.545,581.149z M71.72,581.64
			c-0.058,0.016-0.109,0.039-0.161,0.067c-0.045-0.094-0.089-0.19-0.136-0.279c-0.04-0.104-0.076-0.21-0.105-0.316
			c-0.011-0.037-0.02-0.076-0.028-0.114c0-0.002,0-0.002,0-0.004c-0.01-0.292-0.176-0.477-0.382-0.568
			c0.019-0.327,0.072-0.645,0.164-0.948c1.165-0.648,2.246-1.465,3.231-2.438c0.274-0.017,0.552-0.007,0.829,0.02
			c0.104,0.15,0.231,0.295,0.412,0.434c0.391,0.299,0.845,0.374,1.262,0.272C75.188,579.247,73.427,580.555,71.72,581.64z
			 M77.904,576.704c0.052-0.261,0.03-0.537-0.014-0.8c-0.04-0.235-0.15-0.437-0.281-0.625c0.017-0.72,0.041-1.444,0.095-2.166
			c0.461-0.235,0.906-0.498,1.336-0.783c0.331,0.7,0.553,1.449,0.751,2.248C79.209,575.315,78.575,576.025,77.904,576.704z
			 M82.828,562.434c-0.049,0.022-0.101,0.034-0.148,0.063c-0.069,0.043-0.141,0.085-0.211,0.128
			c0.101-0.129,0.198-0.263,0.292-0.398C82.784,562.295,82.806,562.364,82.828,562.434z M79.072,564.371
			c-0.007-0.005-0.014-0.01-0.021-0.015c0.017,0,0.032,0.003,0.048,0.004C79.09,564.363,79.081,564.367,79.072,564.371z
			 M48.656,555.547c0.326,1.853,0.265,3.766,0.239,5.639c-0.002,0.148,0.047,0.262,0.115,0.357
			c-0.621,1.143-1.531,2.112-2.764,2.505c-0.7-0.076-1.401-0.166-2.104-0.289c-0.201-0.035-0.389-0.026-0.563,0.011
			c-0.37-0.247-0.684-0.579-0.942-0.962c-0.033-0.184-0.069-0.366-0.098-0.552C41.969,558.641,45.154,556.672,48.656,555.547z
			 M46.292,578.563c0.05-0.026,0.101-0.048,0.152-0.069c0.063,0.34,0.433,0.646,0.824,0.422c0.194-0.112,0.36-0.241,0.515-0.379
			c0.203,0.131,0.383,0.318,0.542,0.531c-0.023,0.962-0.092,1.94-0.375,2.846c-0.145-0.195-0.286-0.397-0.421-0.609
			C46.987,580.454,46.593,579.526,46.292,578.563z M48.909,583.036c0.159-0.397,0.28-0.804,0.364-1.218
			c0.33-0.348,0.684-0.67,1.062-0.955c0.306,0.108,0.655,0.111,0.962,0.006c0.07,0.615,0.502,1.177,1.307,1.174
			c0.958-0.004,1.917-0.009,2.875-0.013c0.25-0.002,0.476-0.076,0.67-0.194c0.269-0.03,0.532-0.072,0.798-0.108
			c0.504,0.795,0.841,1.725,1.055,2.594c0.047,0.19,0.17,0.29,0.312,0.332c0.08,0.516,0.132,1.035,0.165,1.557
			C54.886,586.392,51.408,585.566,48.909,583.036z M59.623,586.117c-0.073-0.919-0.203-1.83-0.432-2.724
			c0.066-0.007,0.128-0.026,0.187-0.056c-0.012,0.031-0.025,0.062-0.037,0.094c-0.194,0.54,0.652,0.759,0.852,0.234
			c0.378-0.993,0.914-1.857,1.549-2.566c0.021,0.004,0.039,0.011,0.061,0.014c2.721,0.369,5.256,0.067,7.533-0.817
			c0.213,0.207,0.417,0.44,0.611,0.699c0.033,0.472,0.113,0.943,0.235,1.399c0.014,0.054,0.041,0.094,0.066,0.134
			c-0.367,0.21-0.729,0.412-1.082,0.599C66.451,584.562,63.027,585.752,59.623,586.117z M82.001,560.531
			c-0.555,1.047-1.3,1.994-2.468,2.324c-0.534,0.151-1.061,0.071-1.56-0.137c-0.292-0.468-0.772-0.83-1.432-0.949
			c-0.111-0.098-0.217-0.197-0.321-0.298c0.093-0.235,0.181-0.476,0.261-0.72c0.207-0.633-0.371-1.01-0.878-0.923
			c0.103-1.349,0.114-2.706,0.057-4.056C78.374,556.721,80.64,558.172,82.001,560.531z M73.115,555.041
			c0.491,0.115,0.97,0.243,1.442,0.382c0,0.005-0.003,0.008-0.003,0.013c-0.003,0.055-0.005,0.108-0.007,0.162
			c-0.292-0.062-0.621,0.088-0.602,0.477c0.021,0.43,0.128,1.047,0.522,1.309c-0.063,1.409-0.152,2.804-0.387,4.199
			c-3.294-0.116-6.588,0.234-9.882,0.603c-0.286-0.236-0.565-0.485-0.834-0.746c0.274-0.802,0.399-1.736,0.331-2.809
			c-0.03-0.472-0.41-0.708-0.775-0.705c-0.018-1.386-0.035-2.771-0.052-4.156C66.339,553.849,69.812,554.27,73.115,555.041z
			 M61.779,553.748c-0.022,1.841-0.045,3.681-0.069,5.521c-0.004,0.329,0.211,0.513,0.461,0.568
			c-0.012,0.092-0.026,0.182-0.042,0.271c-0.001-0.001-0.002-0.003-0.004-0.004c-0.449-0.546-1.405,0.188-0.981,0.757
			c0.17,0.229,0.352,0.459,0.538,0.688c-0.118,0.241-0.256,0.465-0.413,0.673c-0.2,0.071-0.385,0.185-0.545,0.331
			c-2.459,0.237-4.918,0.384-7.38,0.255c-0.999-0.569-1.86-1.348-2.472-2.296c0.013-0.377-0.341-0.612-0.699-0.604
			c-0.028-1.57-0.1-3.153-0.427-4.685c1.719-0.467,3.429-0.753,4.734-0.951C56.864,553.914,59.317,553.745,61.779,553.748z"/>
		<path d="M28.366,557.787c-0.34-5.418,1.336-10.38,7.2-11.756c0.928-0.218,0.522-1.561-0.388-1.405
			c-6.166,1.052-11.301,7.233-9.994,13.592C25.552,560.006,28.481,559.608,28.366,557.787z"/>
		<path d="M85.965,545.095c5.675,1.088,10.968,5.548,10.994,11.734c0.01,2.502,4.026,1.831,3.27-0.442
			c-1.07-3.219-2.238-6.059-4.679-8.497c-2.434-2.431-5.828-3.784-9.186-4.244C85.432,543.518,84.997,544.909,85.965,545.095z"/>
	</g>
	
		<ellipse transform="matrix(0.1186 0.9929 -0.9929 0.1186 587.894 384.7455)" fill="#FFFFFF" cx="77.221" cy="523.532" rx="1.727" ry="1.602"/>
	
		<ellipse transform="matrix(0.1185 0.993 -0.993 0.1185 561.804 414.7161)" fill="#FFFFFF" cx="47.327" cy="523.776" rx="1.727" ry="1.601"/>
</g>
</svg>
